  0
SECTION
  2
HEADER
  9
$ACADVER
  1
AC1014
  9
$ACADMAINTVER
 70
     9
  9
$DWGCODEPAGE
  3
ANSI_1252
  9
$INSBASE
 10
0.0
 20
0.0
 30
0.0
  9
$EXTMIN
 10
1.000000000000000E+20
 20
1.000000000000000E+20
 30
1.000000000000000E+20
  9
$EXTMAX
 10
-1.000000000000000E+20
 20
-1.000000000000000E+20
 30
-1.000000000000000E+20
  9
$LIMMIN
 10
0.0
 20
0.0
  9
$LIMMAX
 10
12.0
 20
9.0
  9
$ORTHOMODE
 70
     0
  9
$REGENMODE
 70
     1
  9
$FILLMODE
 70
     1
  9
$QTEXTMODE
 70
     0
  9
$MIRRTEXT
 70
     1
  9
$DRAGMODE
 70
     2
  9
$LTSCALE
 40
1.0
  9
$OSMODE
 70
    37
  9
$ATTMODE
 70
     1
  9
$TEXTSIZE
 40
0.2
  9
$TRACEWID
 40
0.05
  9
$TEXTSTYLE
  7
STANDARD
  9
$CLAYER
  8
0
  9
$CELTYPE
  6
BYLAYER
  9
$CECOLOR
 62
   256
  9
$CELTSCALE
 40
1.0
  9
$DELOBJ
 70
     1
  9
$DISPSILH
 70
     0
  9
$DIMSCALE
 40
1.0
  9
$DIMASZ
 40
0.18
  9
$DIMEXO
 40
0.0625
  9
$DIMDLI
 40
0.38
  9
$DIMRND
 40
0.0
  9
$DIMDLE
 40
0.0
  9
$DIMEXE
 40
0.18
  9
$DIMTP
 40
0.0
  9
$DIMTM
 40
0.0
  9
$DIMTXT
 40
0.18
  9
$DIMCEN
 40
0.09
  9
$DIMTSZ
 40
0.0
  9
$DIMTOL
 70
     0
  9
$DIMLIM
 70
     0
  9
$DIMTIH
 70
     1
  9
$DIMTOH
 70
     1
  9
$DIMSE1
 70
     0
  9
$DIMSE2
 70
     0
  9
$DIMTAD
 70
     0
  9
$DIMZIN
 70
     0
  9
$DIMBLK
  1

  9
$DIMASO
 70
     1
  9
$DIMSHO
 70
     1
  9
$DIMPOST
  1

  9
$DIMAPOST
  1

  9
$DIMALT
 70
     0
  9
$DIMALTD
 70
     2
  9
$DIMALTF
 40
0.0393700787401575
  9
$DIMLFAC
 40
1.0
  9
$DIMTOFL
 70
     0
  9
$DIMTVP
 40
0.0
  9
$DIMTIX
 70
     0
  9
$DIMSOXD
 70
     0
  9
$DIMSAH
 70
     0
  9
$DIMBLK1
  1

  9
$DIMBLK2
  1

  9
$DIMSTYLE
  2
STANDARD
  9
$DIMCLRD
 70
     0
  9
$DIMCLRE
 70
     0
  9
$DIMCLRT
 70
     0
  9
$DIMTFAC
 40
1.0
  9
$DIMGAP
 40
0.09
  9
$DIMJUST
 70
     0
  9
$DIMSD1
 70
     0
  9
$DIMSD2
 70
     0
  9
$DIMTOLJ
 70
     1
  9
$DIMTZIN
 70
     0
  9
$DIMALTZ
 70
     0
  9
$DIMALTTZ
 70
     0
  9
$DIMFIT
 70
     3
  9
$DIMUPT
 70
     0
  9
$DIMUNIT
 70
     2
  9
$DIMDEC
 70
     4
  9
$DIMTDEC
 70
     4
  9
$DIMALTU
 70
     2
  9
$DIMALTTD
 70
     2
  9
$DIMTXSTY
  7
STANDARD
  9
$DIMAUNIT
 70
     0
  9
$LUNITS
 70
     2
  9
$LUPREC
 70
     4
  9
$SKETCHINC
 40
0.1
  9
$FILLETRAD
 40
0.5
  9
$AUNITS
 70
     0
  9
$AUPREC
 70
     0
  9
$MENU
  1
.
  9
$ELEVATION
 40
0.0
  9
$PELEVATION
 40
0.0
  9
$THICKNESS
 40
0.0
  9
$LIMCHECK
 70
     0
  9
$CHAMFERA
 40
0.0
  9
$CHAMFERB
 40
0.0
  9
$CHAMFERC
 40
0.0
  9
$CHAMFERD
 40
0.0
  9
$SKPOLY
 70
     0
  9
$TDCREATE
 40
2459746.463800995
  9
$TDUPDATE
 40
2459746.46380103
  9
$TDINDWG
 40
0.0000000116
  9
$TDUSRTIMER
 40
0.0000000116
  9
$USRTIMER
 70
     1
  9
$ANGBASE
 50
0.0
  9
$ANGDIR
 70
     0
  9
$PDMODE
 70
     0
  9
$PDSIZE
 40
0.0
  9
$PLINEWID
 40
0.0
  9
$COORDS
 70
     1
  9
$SPLFRAME
 70
     0
  9
$SPLINETYPE
 70
     6
  9
$SPLINESEGS
 70
     8
  9
$ATTDIA
 70
     0
  9
$ATTREQ
 70
     1
  9
$HANDLING
 70
     1
  9
$HANDSEED
  5
10000320
  9
$SURFTAB1
 70
     6
  9
$SURFTAB2
 70
     6
  9
$SURFTYPE
 70
     6
  9
$SURFU
 70
     6
  9
$SURFV
 70
     6
  9
$UCSNAME
  2

  9
$UCSORG
 10
0.0
 20
0.0
 30
0.0
  9
$UCSXDIR
 10
1.0
 20
0.0
 30
0.0
  9
$UCSYDIR
 10
0.0
 20
1.0
 30
0.0
  9
$PUCSNAME
  2

  9
$PUCSORG
 10
0.0
 20
0.0
 30
0.0
  9
$PUCSXDIR
 10
1.0
 20
0.0
 30
0.0
  9
$PUCSYDIR
 10
0.0
 20
1.0
 30
0.0
  9
$USERI1
 70
     0
  9
$USERI2
 70
     0
  9
$USERI3
 70
     0
  9
$USERI4
 70
     0
  9
$USERI5
 70
     0
  9
$USERR1
 40
0.0
  9
$USERR2
 40
0.0
  9
$USERR3
 40
0.0
  9
$USERR4
 40
0.0
  9
$USERR5
 40
0.0
  9
$WORLDVIEW
 70
     1
  9
$SHADEDGE
 70
     3
  9
$SHADEDIF
 70
    70
  9
$TILEMODE
 70
     1
  9
$MAXACTVP
 70
    64
  9
$PINSBASE
 10
0.0
 20
0.0
 30
0.0
  9
$PLIMCHECK
 70
     0
  9
$PEXTMIN
 10
1.000000000000000E+20
 20
1.000000000000000E+20
 30
1.000000000000000E+20
  9
$PEXTMAX
 10
-1.000000000000000E+20
 20
-1.000000000000000E+20
 30
-1.000000000000000E+20
  9
$PLIMMIN
 10
0.0
 20
0.0
  9
$PLIMMAX
 10
12.0
 20
9.0
  9
$UNITMODE
 70
     0
  9
$VISRETAIN
 70
     1
  9
$PLINEGEN
 70
     0
  9
$PSLTSCALE
 70
     1
  9
$TREEDEPTH
 70
  3020
  9
$PICKSTYLE
 70
     1
  9
$CMLSTYLE
  2
STANDARD
  9
$CMLJUST
 70
     0
  9
$CMLSCALE
 40
1.0
  9
$PROXYGRAPHICS
 70
     1
  9
$MEASUREMENT
 70
     0
  0
ENDSEC
  0
SECTION
  2
CLASSES
  0
CLASS
  1
ACDBDICTIONARYWDFLT
  2
AcDbDictionaryWithDefault
  3
ObjectDBX Classes
 90
        0
280
     0
281
     0
  0
CLASS
  1
VISUALSTYLE
  2
AcDbVisualStyle
  3
ObjectDBX Classes
 90
     4095
280
     0
281
     0
  0
CLASS
  1
MATERIAL
  2
AcDbMaterial
  3
ObjectDBX Classes
 90
     1153
280
     0
281
     0
  0
CLASS
  1
SCALE
  2
AcDbScale
  3
ObjectDBX Classes
 90
     1153
280
     0
281
     0
  0
CLASS
  1
TABLESTYLE
  2
AcDbTableStyle
  3
ObjectDBX Classes
 90
     4095
280
     0
281
     0
  0
CLASS
  1
MLEADERSTYLE
  2
AcDbMLeaderStyle
  3
ACDB_MLEADERSTYLE_CLASS
 90
     4095
280
     0
281
     0
  0
CLASS
  1
SUN
  2
AcDbSun
  3
SCENEOE
 90
     1153
280
     0
281
     0
  0
CLASS
  1
SORTENTSTABLE
  2
AcDbSortentsTable
  3
ObjectDBX Classes
 90
        0
280
     0
281
     0
  0
CLASS
  1
DICTIONARYVAR
  2
AcDbDictionaryVar
  3
ObjectDBX Classes
 90
        0
280
     0
281
     0
  0
CLASS
  1
XRECORD
  2
AcDbXrecord
  3
ObjectDBX Classes
 90
        0
280
     0
281
     0
  0
CLASS
  1
LWPOLYLINE
  2
AcDbPolyline
  3
ObjectDBX Classes
 90
        0
280
     0
281
     1
  0
CLASS
  1
HATCH
  2
AcDbHatch
  3
ObjectDBX Classes
 90
        0
280
     0
281
     1
  0
CLASS
  1
ACDBPLACEHOLDER
  2
AcDbPlaceHolder
  3
ObjectDBX Classes
 90
        0
280
     0
281
     0
  0
CLASS
  1
LAYOUT
  2
AcDbLayout
  3
ObjectDBX Classes
 90
        0
280
     0
281
     0
  0
ENDSEC
  0
SECTION
  2
TABLES
  0
TABLE
  2
VPORT
  5
8
102
{ACAD_XDICTIONARY
360
10000315
102
}
330
0
100
AcDbSymbolTable
 70
     1
  0
VPORT
  5
29
330
8
100
AcDbSymbolTableRecord
100
AcDbViewportTableRecord
  2
*ACTIVE
 70
     0
 10
0.0
 20
0.0
 11
1.0
 21
1.0
 12
10.42990654205607
 22
4.5
 13
0.0
 23
0.0
 14
0.5
 24
0.5
 15
0.5
 25
0.5
 16
0.0
 26
0.0
 36
1.0
 17
0.0
 27
0.0
 37
0.0
 40
9.0
 41
1.972972972850329
 42
50.0
 43
0.0
 44
0.0
 50
0.0
 51
0.0
 71
     0
 72
   100
 73
     1
 74
     3
 75
     0
 76
     0
 77
     0
 78
     0
  0
ENDTAB
  0
TABLE
  2
LTYPE
  5
5
330
0
100
AcDbSymbolTable
 70
     7
  0
LTYPE
  5
14
330
5
100
AcDbSymbolTableRecord
100
AcDbLinetypeTableRecord
  2
BYBLOCK
 70
     0
  3

 72
    65
 73
     0
 40
0.0
  0
LTYPE
  5
15
330
5
100
AcDbSymbolTableRecord
100
AcDbLinetypeTableRecord
  2
BYLAYER
 70
     0
  3

 72
    65
 73
     0
 40
0.0
  0
LTYPE
  5
16
330
5
100
AcDbSymbolTableRecord
100
AcDbLinetypeTableRecord
  2
CONTINUOUS
 70
     0
  3
Solid line
 72
    65
 73
     0
 40
0.0
  0
LTYPE
  5
10000024
330
5
100
AcDbSymbolTableRecord
100
AcDbLinetypeTableRecord
  2
ONS_PHANTOM
 70
     0
  3
Onshape Phantom line ______ __ __ ______
 72
    65
 73
     6
 40
0.4999999999999999
 49
0.25
 74
     0
 49
-0.05
 74
     0
 49
0.05
 74
     0
 49
-0.05
 74
     0
 49
0.05
 74
     0
 49
-0.05
 74
     0
  0
LTYPE
  5
10000025
330
5
100
AcDbSymbolTableRecord
100
AcDbLinetypeTableRecord
  2
CENTER
 70
     0
  3
Center line ____ _ ____ _ ____ _
 72
    65
 73
     4
 40
0.7199999999999999
 49
0.45
 74
     0
 49
-0.09
 74
     0
 49
0.09
 74
     0
 49
-0.09
 74
     0
  0
LTYPE
  5
10000026
330
5
100
AcDbSymbolTableRecord
100
AcDbLinetypeTableRecord
  2
DASHED
 70
     0
  3
Dashed line __ __ __ __ __
 72
    65
 73
     2
 40
0.75
 49
0.5
 74
     0
 49
-0.25
 74
     0
  0
LTYPE
  5
10000027
330
5
100
AcDbSymbolTableRecord
100
AcDbLinetypeTableRecord
  2
ONS_DASHDOT
 70
     0
  3
Onshape Dashed with Dot _ . ____ . ____
 72
    65
 73
     4
 40
0.71
 49
0.5
 74
     0
 49
-0.1
 74
     0
 49
0.01
 74
     0
 49
-0.1
 74
     0
  0
LTYPE
  5
10000028
330
5
100
AcDbSymbolTableRecord
100
AcDbLinetypeTableRecord
  2
ONS_DOTTED
 70
     0
  3
Onshape Dotted line . . . . . . .
 72
    65
 73
     2
 40
0.11
 49
0.01
 74
     0
 49
-0.1
 74
     0
  0
LTYPE
  5
10000029
330
5
100
AcDbSymbolTableRecord
100
AcDbLinetypeTableRecord
  2
HIDDEN
 70
     0
  3
Hidden line ____ ____ ____ ____ 
 72
    65
 73
     2
 40
0.15
 49
0.1
 74
     0
 49
-0.05
 74
     0
  0
ENDTAB
  0
TABLE
  2
LAYER
  5
2
330
0
100
AcDbSymbolTable
 70
    39
  0
LAYER
  5
10
330
2
100
AcDbSymbolTableRecord
100
AcDbLayerTableRecord
  2
0
 70
     0
 62
     7
  6
CONTINUOUS
  0
LAYER
  5
1000002A
330
2
100
AcDbSymbolTableRecord
100
AcDbLayerTableRecord
  2
SECTION_CUTTING_LINE
 70
     0
 62
     7
  6
ONS_PHANTOM
  0
LAYER
  5
1000002B
330
2
100
AcDbSymbolTableRecord
100
AcDbLayerTableRecord
  2
DETAIL_VIEW_BORDER
 70
     0
 62
     7
  6
CONTINUOUS
  0
LAYER
  5
1000002C
330
2
100
AcDbSymbolTableRecord
100
AcDbLayerTableRecord
  2
DETAIL_VIEW_PARENT_BORDER
 70
     0
 62
     7
  6
ONS_PHANTOM
  0
LAYER
  5
1000002D
330
2
100
AcDbSymbolTableRecord
100
AcDbLayerTableRecord
  2
TEXT
 70
     0
 62
     7
  6
CONTINUOUS
  0
LAYER
  5
1000002E
330
2
100
AcDbSymbolTableRecord
100
AcDbLayerTableRecord
  2
SKETCHED_GEOMETRY
 70
     0
 62
    -7
  6
CONTINUOUS
  0
LAYER
  5
1000002F
330
2
100
AcDbSymbolTableRecord
100
AcDbLayerTableRecord
  2
VIRTUAL_SHARPS
 70
     0
 62
    -7
  6
CONTINUOUS
  0
LAYER
  5
10000030
330
2
100
AcDbSymbolTableRecord
100
AcDbLayerTableRecord
  2
CENTERLINES
 70
     0
 62
    -7
  6
CENTER
  0
LAYER
  5
10000031
330
2
100
AcDbSymbolTableRecord
100
AcDbLayerTableRecord
  2
CENTERMARKS
 70
     0
 62
    -7
  6
CONTINUOUS
  0
LAYER
  5
10000032
330
2
100
AcDbSymbolTableRecord
100
AcDbLayerTableRecord
  2
TABLES
 70
     0
 62
     7
  6
CONTINUOUS
  0
LAYER
  5
10000033
330
2
100
AcDbSymbolTableRecord
100
AcDbLayerTableRecord
  2
IMAGES
 70
     0
 62
    -7
  6
CONTINUOUS
  0
LAYER
  5
10000034
330
2
100
AcDbSymbolTableRecord
100
AcDbLayerTableRecord
  2
ANNOTATION_LINES
 70
     0
 62
    -7
  6
CONTINUOUS
  0
LAYER
  5
10000035
330
2
100
AcDbSymbolTableRecord
100
AcDbLayerTableRecord
  2
ANNOTATION_TEXT
 70
     0
 62
    -7
  6
CONTINUOUS
  0
LAYER
  5
10000036
330
2
100
AcDbSymbolTableRecord
100
AcDbLayerTableRecord
  2
SIDE_THREAD_SYMBOLS
 70
     0
 62
     7
  6
HIDDEN
  0
LAYER
  5
10000037
330
2
100
AcDbSymbolTableRecord
100
AcDbLayerTableRecord
  2
SIDE_THREAD_SYMBOLS_HIDDEN
 70
     0
 62
    -7
  6
HIDDEN
  0
LAYER
  5
10000038
330
2
100
AcDbSymbolTableRecord
100
AcDbLayerTableRecord
  2
SURFACE_THREAD_SYMBOLS
 70
     0
 62
     7
  6
HIDDEN
  0
LAYER
  5
10000039
330
2
100
AcDbSymbolTableRecord
100
AcDbLayerTableRecord
  2
SURFACE_THREAD_SYMBOLS_ON_
 70
     0
 62
     7
  6
HIDDEN
  0
LAYER
  5
1000003A
330
2
100
AcDbSymbolTableRecord
100
AcDbLayerTableRecord
  2
SURFACE_THREAD_SYMBOLS_HID
 70
     0
 62
    -7
  6
HIDDEN
  0
LAYER
  5
1000003B
330
2
100
AcDbSymbolTableRecord
100
AcDbLayerTableRecord
  2
BLIND_THREAD_SYMBOLS
 70
     0
 62
     7
  6
CONTINUOUS
  0
LAYER
  5
1000003C
330
2
100
AcDbSymbolTableRecord
100
AcDbLayerTableRecord
  2
BLIND_THREAD_SYMBOLS_HIDDE
 70
     0
 62
    -7
  6
HIDDEN
  0
LAYER
  5
1000003D
330
2
100
AcDbSymbolTableRecord
100
AcDbLayerTableRecord
  2
EXPLODE_LINES
 70
     0
 62
     7
  6
ONS_PHANTOM
  0
LAYER
  5
1000003E
330
2
100
AcDbSymbolTableRecord
100
AcDbLayerTableRecord
  2
HIDDEN_EXPLODE_LINES
 70
     0
 62
    -7
  6
ONS_PHANTOM
  0
LAYER
  5
1000003F
330
2
100
AcDbSymbolTableRecord
100
AcDbLayerTableRecord
  2
BREAK_LINES
 70
     0
 62
    -7
  6
CONTINUOUS
  0
LAYER
  5
10000040
330
2
100
AcDbSymbolTableRecord
100
AcDbLayerTableRecord
  2
SHEETMETAL_BEND_LINES_UP
 70
     0
 62
     7
  6
CENTER
  0
LAYER
  5
10000041
330
2
100
AcDbSymbolTableRecord
100
AcDbLayerTableRecord
  2
SHEETMETAL_BEND_LINES_DOWN
 70
     0
 62
     7
  6
CENTER
  0
LAYER
  5
10000042
330
2
100
AcDbSymbolTableRecord
100
AcDbLayerTableRecord
  2
SHEETMETAL_BEND_TANGENT_LI
 70
     0
 62
     7
  6
CONTINUOUS
  0
LAYER
  5
10000043
330
2
100
AcDbSymbolTableRecord
100
AcDbLayerTableRecord
  2
SHEETMETAL_CUT_LINES
 70
     0
 62
     7
  6
CONTINUOUS
  0
LAYER
  5
10000044
330
2
100
AcDbSymbolTableRecord
100
AcDbLayerTableRecord
  2
REGION_ASSOC_POINTS
 70
     0
 62
    -7
  6
CONTINUOUS
  0
LAYER
  5
10000045
330
2
100
AcDbSymbolTableRecord
100
AcDbLayerTableRecord
  2
HIDDEN
 70
     0
 62
    -7
  6
HIDDEN
  0
LAYER
  5
10000046
330
2
100
AcDbSymbolTableRecord
100
AcDbLayerTableRecord
  2
VISIBLE
 70
     0
 62
     7
  6
CONTINUOUS
  0
LAYER
  5
10000047
330
2
100
AcDbSymbolTableRecord
100
AcDbLayerTableRecord
  2
MODELSKETCH_VISIBLE
 70
     0
 62
     7
  6
CONTINUOUS
  0
LAYER
  5
10000048
330
2
100
AcDbSymbolTableRecord
100
AcDbLayerTableRecord
  2
MODELSKETCH_POINT
 70
     0
 62
     7
  6
CONTINUOUS
  0
LAYER
  5
10000049
330
2
100
AcDbSymbolTableRecord
100
AcDbLayerTableRecord
  2
MODELSKETCH_CONSTRUCTION
 70
     0
 62
    -7
  6
CENTER
  0
LAYER
  5
1000004A
330
2
100
AcDbSymbolTableRecord
100
AcDbLayerTableRecord
  2
HIDDEN_BASE_VIEW
 70
     0
 62
     7
  6
CONTINUOUS
  0
LAYER
  5
1000004B
330
2
100
AcDbSymbolTableRecord
100
AcDbLayerTableRecord
  2
TANGENT_LINES
 70
     0
 62
    -7
  6
CONTINUOUS
  0
LAYER
  5
1000004C
330
2
100
AcDbSymbolTableRecord
100
AcDbLayerTableRecord
  2
TANGENT_HIDDEN
 70
     0
 62
    -7
  6
HIDDEN
  0
LAYER
  5
1000004D
330
2
100
AcDbSymbolTableRecord
100
AcDbLayerTableRecord
  2
INVISIBLE_LINES
 70
     0
 62
    -7
  6
CONTINUOUS
  0
LAYER
  5
1000004E
330
2
100
AcDbSymbolTableRecord
100
AcDbLayerTableRecord
  2
VIEW_HATCHES
 70
     0
 62
    -7
  6
CONTINUOUS
  0
LAYER
  5
1000004F
330
2
100
AcDbSymbolTableRecord
100
AcDbLayerTableRecord
  2
SECTION_JOG_LINES
 70
     0
 62
    -7
  6
CONTINUOUS
  0
ENDTAB
  0
TABLE
  2
STYLE
  5
3
330
0
100
AcDbSymbolTable
 70
     2
  0
STYLE
  5
11
330
3
100
AcDbSymbolTableRecord
100
AcDbTextStyleTableRecord
  2
STANDARD
 70
     0
 40
0.0
 41
1.0
 50
0.0
 71
     0
 42
0.2
  3
txt
  4

  0
STYLE
  5
10000004
330
3
100
AcDbSymbolTableRecord
100
AcDbTextStyleTableRecord
  2
TTFSTYLE
 70
     0
 40
0.0
 41
1.0
 50
0.0
 71
     0
 42
0.2
  3
Verdana.ttf
  4

1001
ACAD
1000
Verdana
1071
       34
  0
ENDTAB
  0
TABLE
  2
VIEW
  5
6
330
0
100
AcDbSymbolTable
 70
     0
  0
ENDTAB
  0
TABLE
  2
UCS
  5
7
330
0
100
AcDbSymbolTable
 70
     0
  0
ENDTAB
  0
TABLE
  2
APPID
  5
9
330
0
100
AcDbSymbolTable
 70
     2
  0
APPID
  5
12
330
9
100
AcDbSymbolTableRecord
100
AcDbRegAppTableRecord
  2
ACAD
 70
     0
  0
APPID
  5
1000031F
330
9
100
AcDbSymbolTableRecord
100
AcDbRegAppTableRecord
  2
ACAD_MLEADERVER
 70
     0
  0
ENDTAB
  0
TABLE
  2
DIMSTYLE
  5
A
330
0
100
AcDbSymbolTable
 70
     1
  0
DIMSTYLE
105
27
330
A
100
AcDbSymbolTableRecord
100
AcDbDimStyleTableRecord
  2
STANDARD
 70
     0
  3

  4

  5

  6

  7

 40
1.0
 41
0.18
 42
0.0625
 43
0.38
 44
0.18
 45
0.0
 46
0.0
 47
0.0
 48
0.0
140
0.18
141
0.09
142
0.0
143
25.4
144
1.0
145
0.0
146
1.0
147
0.09
 71
     0
 72
     0
 73
     1
 74
     1
 75
     0
 76
     0
 77
     0
 78
     0
170
     0
171
     2
172
     0
173
     0
174
     0
175
     0
176
     0
177
     0
178
     0
270
     2
271
     4
272
     4
273
     2
274
     2
340
11
275
     0
280
     0
281
     0
282
     0
283
     1
284
     0
285
     0
286
     0
287
     3
288
     0
  0
ENDTAB
  0
TABLE
  2
BLOCK_RECORD
  5
1
330
0
100
AcDbSymbolTable
 70
     0
  0
BLOCK_RECORD
  5
1F
102
{ACAD_XDICTIONARY
360
100002EA
102
}
330
1
100
AcDbSymbolTableRecord
100
AcDbBlockTableRecord
  2
*MODEL_SPACE
  0
BLOCK_RECORD
  5
1B
330
1
100
AcDbSymbolTableRecord
100
AcDbBlockTableRecord
  2
*PAPER_SPACE
  0
ENDTAB
  0
ENDSEC
  0
SECTION
  2
BLOCKS
  0
BLOCK
  5
20
330
1F
100
AcDbEntity
  8
0
100
AcDbBlockBegin
  2
*MODEL_SPACE
 70
     0
 10
0.0
 20
0.0
 30
0.0
  3
*MODEL_SPACE
  1

  0
ENDBLK
  5
21
330
1F
100
AcDbEntity
  8
0
100
AcDbBlockEnd
  0
BLOCK
  5
1C
330
1B
100
AcDbEntity
 67
     1
  8
0
100
AcDbBlockBegin
  2
*PAPER_SPACE
 70
     0
 10
0.0
 20
0.0
 30
0.0
  3
*PAPER_SPACE
  1

  0
ENDBLK
  5
1D
330
1B
100
AcDbEntity
 67
     1
  8
0
100
AcDbBlockEnd
  0
ENDSEC
  0
SECTION
  2
ENTITIES
  0
SPLINE
  5
10000050
102
{ACAD_XDICTIONARY
360
10000051
102
}
330
1F
100
AcDbEntity
  8
MODELSKETCH_VISIBLE
100
AcDbSpline
210
0.0
220
0.0
230
1.0
 70
     8
 71
     2
 72
     6
 73
     3
 74
     0
 42
0.000000001
 43
0.00000001
 40
0.0
 40
0.0
 40
0.0
 40
1.0
 40
1.0
 40
1.0
 10
-81.45692067941934
 20
-3.668023474438498
 30
0.0
 10
-80.50379675889012
 20
-4.863876286729168
 30
0.0
 10
-78.66871550389786
 20
-4.863876286729168
 30
0.0
  0
SPLINE
  5
10000053
102
{ACAD_XDICTIONARY
360
10000054
102
}
330
1F
100
AcDbEntity
  8
MODELSKETCH_VISIBLE
100
AcDbSpline
210
0.0
220
0.0
230
1.0
 70
     8
 71
     2
 72
     6
 73
     3
 74
     0
 42
0.000000001
 43
0.00000001
 40
0.0
 40
0.0
 40
0.0
 40
1.0
 40
1.0
 40
1.0
 10
-82.41004459994858
 20
-0.1948399080299945
 30
0.0
 10
-82.41004459994858
 20
-2.472170662147827
 30
0.0
 10
-81.45692067941934
 20
-3.668023474438498
 30
0.0
  0
SPLINE
  5
10000056
102
{ACAD_XDICTIONARY
360
10000057
102
}
330
1F
100
AcDbEntity
  8
MODELSKETCH_VISIBLE
100
AcDbSpline
210
0.0
220
0.0
230
1.0
 70
     8
 71
     2
 72
     6
 73
     3
 74
     0
 42
0.000000001
 43
0.00000001
 40
0.0
 40
0.0
 40
0.0
 40
1.0
 40
1.0
 40
1.0
 10
-81.3933790847174
 20
3.217343727464638
 30
0.0
 10
-82.41004459994858
 20
1.957949320472019
 30
0.0
 10
-82.41004459994858
 20
-0.1948399080299945
 30
0.0
  0
SPLINE
  5
10000059
102
{ACAD_XDICTIONARY
360
1000005A
102
}
330
1F
100
AcDbEntity
  8
MODELSKETCH_VISIBLE
100
AcDbSpline
210
0.0
220
0.0
230
1.0
 70
     8
 71
     2
 72
     6
 73
     3
 74
     0
 42
0.000000001
 43
0.00000001
 40
0.0
 40
0.0
 40
0.0
 40
1.0
 40
1.0
 40
1.0
 10
-78.66871550389784
 20
4.476738134457255
 30
0.0
 10
-80.37671356948623
 20
4.476738134457255
 30
0.0
 10
-81.3933790847174
 20
3.217343727464638
 30
0.0
  0
SPLINE
  5
1000005C
102
{ACAD_XDICTIONARY
360
1000005D
102
}
330
1F
100
AcDbEntity
  8
MODELSKETCH_VISIBLE
100
AcDbSpline
210
0.0
220
0.0
230
1.0
 70
     8
 71
     2
 72
     6
 73
     3
 74
     0
 42
0.000000001
 43
0.00000001
 40
0.0
 40
0.0
 40
0.0
 40
1.0
 40
1.0
 40
1.0
 10
-76.24650991385957
 20
3.856572170166238
 30
0.0
 10
-77.46905019592506
 20
4.476738134457253
 30
0.0
 10
-78.66871550389784
 20
4.476738134457255
 30
0.0
  0
LINE
  5
1000005F
102
{ACAD_XDICTIONARY
360
10000060
102
}
330
1F
100
AcDbEntity
  8
MODELSKETCH_VISIBLE
100
AcDbLine
 10
-75.62634394956856
 20
5.096904098748269
 30
0.0
 11
-76.24650991385957
 21
3.856572170166239
 31
0.0
  0
SPLINE
  5
10000062
102
{ACAD_XDICTIONARY
360
10000063
102
}
330
1F
100
AcDbEntity
  8
MODELSKETCH_VISIBLE
100
AcDbSpline
210
0.0
220
0.0
230
1.0
 70
     8
 71
     2
 72
     6
 73
     3
 74
     0
 42
0.000000001
 43
0.00000001
 40
0.0
 40
0.0
 40
0.0
 40
1.0
 40
1.0
 40
1.0
 10
-78.66871550389784
 20
5.778069993953159
 30
0.0
 10
-76.92259248148831
 20
5.778069993953157
 30
0.0
 10
-75.62634394956855
 20
5.096904098748271
 30
0.0
  0
SPLINE
  5
10000065
102
{ACAD_XDICTIONARY
360
10000066
102
}
330
1F
100
AcDbEntity
  8
MODELSKETCH_VISIBLE
100
AcDbSpline
210
0.0
220
0.0
230
1.0
 70
     8
 71
     2
 72
     6
 73
     3
 74
     0
 42
0.000000001
 43
0.00000001
 40
0.0
 40
0.0
 40
0.0
 40
1.0
 40
1.0
 40
1.0
 10
-82.55364860397498
 20
4.174280143675982
 30
0.0
 10
-81.13158771454538
 20
5.778069993953159
 30
0.0
 10
-78.66871550389784
 20
5.778069993953159
 30
0.0
  0
SPLINE
  5
10000068
102
{ACAD_XDICTIONARY
360
10000069
102
}
330
1F
100
AcDbEntity
  8
MODELSKETCH_VISIBLE
100
AcDbSpline
210
0.0
220
0.0
230
1.0
 70
     8
 71
     2
 72
     6
 73
     3
 74
     0
 42
0.000000001
 43
0.00000001
 40
0.0
 40
0.0
 40
0.0
 40
1.0
 40
1.0
 40
1.0
 10
-83.97570949340458
 20
-0.1770482615134489
 30
0.0
 10
-83.97570949340458
 20
2.570490293398802
 30
0.0
 10
-82.55364860397498
 20
4.174280143675982
 30
0.0
  0
SPLINE
  5
1000006B
102
{ACAD_XDICTIONARY
360
1000006C
102
}
330
1F
100
AcDbEntity
  8
MODELSKETCH_VISIBLE
100
AcDbSpline
210
0.0
220
0.0
230
1.0
 70
     8
 71
     2
 72
     6
 73
     3
 74
     0
 42
0.000000001
 43
0.00000001
 40
0.0
 40
0.0
 40
0.0
 40
1.0
 40
1.0
 40
1.0
 10
-82.67310680201464
 20
-4.602084916557139
 30
0.0
 10
-83.97570949340458
 20
-3.044045014465363
 30
0.0
 10
-83.97570949340458
 20
-0.1770482615134489
 30
0.0
  0
LINE
  5
1000006E
102
{ACAD_XDICTIONARY
360
1000006F
102
}
330
1F
100
AcDbEntity
  8
MODELSKETCH_VISIBLE
100
AcDbLine
 10
-100.0
 20
5.5
 30
0.0
 11
-106.0
 21
5.499999999999999
 31
0.0
  0
LINE
  5
10000071
102
{ACAD_XDICTIONARY
360
10000072
102
}
330
1F
100
AcDbEntity
  8
MODELSKETCH_VISIBLE
100
AcDbLine
 10
-100.0
 20
11.0
 30
0.0
 11
-100.0
 21
-11.0
 31
0.0
  0
LINE
  5
10000074
102
{ACAD_XDICTIONARY
360
10000075
102
}
330
1F
100
AcDbEntity
  8
MODELSKETCH_VISIBLE
100
AcDbLine
 10
100.0
 20
11.0
 30
0.0
 11
100.0
 21
-11.0
 31
0.0
  0
LINE
  5
10000077
102
{ACAD_XDICTIONARY
360
10000078
102
}
330
1F
100
AcDbEntity
  8
MODELSKETCH_VISIBLE
100
AcDbLine
 10
100.0
 20
-11.0
 30
0.0
 11
-100.0
 21
-11.0
 31
0.0
  0
LINE
  5
1000007A
102
{ACAD_XDICTIONARY
360
1000007B
102
}
330
1F
100
AcDbEntity
  8
MODELSKETCH_VISIBLE
100
AcDbLine
 10
100.0
 20
11.0
 30
0.0
 11
-100.0
 21
11.0
 31
0.0
  0
LINE
  5
1000007D
102
{ACAD_XDICTIONARY
360
1000007E
102
}
330
1F
100
AcDbEntity
  8
MODELSKETCH_VISIBLE
100
AcDbLine
 10
32.73005908862417
 20
-6.000000000000037
 30
0.0
 11
32.51449725380456
 21
-4.835966091974152
 31
0.0
  0
LINE
  5
10000080
102
{ACAD_XDICTIONARY
360
10000081
102
}
330
1F
100
AcDbEntity
  8
MODELSKETCH_VISIBLE
100
AcDbLine
 10
33.89409299665006
 20
-6.000000000000036
 30
0.0
 11
32.73005908862417
 21
-6.000000000000037
 31
0.0
  0
LINE
  5
10000083
102
{ACAD_XDICTIONARY
360
10000084
102
}
330
1F
100
AcDbEntity
  8
MODELSKETCH_VISIBLE
100
AcDbLine
 10
33.89409299665004
 20
6.332672973267671
 30
0.0
 11
33.89409299665006
 21
-6.000000000000036
 31
0.0
  0
LINE
  5
10000086
102
{ACAD_XDICTIONARY
360
10000087
102
}
330
1F
100
AcDbEntity
  8
MODELSKETCH_VISIBLE
100
AcDbLine
 10
32.45109671415173
 20
6.332672973267671
 30
0.0
 11
33.89409299665004
 21
6.332672973267672
 31
0.0
  0
LINE
  5
10000089
102
{ACAD_XDICTIONARY
360
1000008A
102
}
330
1F
100
AcDbEntity
  8
MODELSKETCH_VISIBLE
100
AcDbLine
 10
32.45109671415173
 20
2.876075551395599
 30
0.0
 11
32.45109671415173
 21
6.33267297326767
 31
0.0
  0
SPLINE
  5
1000008C
102
{ACAD_XDICTIONARY
360
1000008D
102
}
330
1F
100
AcDbEntity
  8
MODELSKETCH_VISIBLE
100
AcDbSpline
210
0.0
220
0.0
230
1.0
 70
     8
 71
     2
 72
     6
 73
     3
 74
     0
 42
0.000000001
 43
0.00000001
 40
0.0
 40
0.0
 40
0.0
 40
1.0
 40
1.0
 40
1.0
 10
-14.25533012263866
 20
-1.623254956929805
 30
0.0
 10
-14.25533012263866
 20
-4.960459510676137
 30
0.0
 10
-11.7848329206269
 20
-4.960459510676137
 30
0.0
  0
SPLINE
  5
1000008F
102
{ACAD_XDICTIONARY
360
10000090
102
}
330
1F
100
AcDbEntity
  8
MODELSKETCH_VISIBLE
100
AcDbSpline
210
0.0
220
0.0
230
1.0
 70
     8
 71
     2
 72
     6
 73
     3
 74
     0
 42
0.000000001
 43
0.00000001
 40
0.0
 40
0.0
 40
0.0
 40
1.0
 40
1.0
 40
1.0
 10
32.54746553442403
 20
1.5928486288224
 30
0.0
 10
32.45109671415174
 20
2.614865328025955
 30
0.0
 10
32.45109671415174
 20
2.876075551395599
 30
0.0
  0
SPLINE
  5
10000092
102
{ACAD_XDICTIONARY
360
10000093
102
}
330
1F
100
AcDbEntity
  8
MODELSKETCH_VISIBLE
100
AcDbSpline
210
0.0
220
0.0
230
1.0
 70
     8
 71
     2
 72
     6
 73
     3
 74
     0
 42
0.000000001
 43
0.00000001
 40
0.0
 40
0.0
 40
0.0
 40
1.0
 40
1.0
 40
1.0
 10
-11.80008290335538
 20
1.680907967571515
 30
0.0
 10
-14.25533012263866
 20
1.680907967571515
 30
0.0
 10
-14.25533012263866
 20
-1.623254956929805
 30
0.0
  0
LINE
  5
10000095
102
{ACAD_XDICTIONARY
360
10000096
102
}
330
1F
100
AcDbEntity
  8
MODELSKETCH_VISIBLE
100
AcDbLine
 10
32.45109671415174
 20
1.5928486288224
 30
0.0
 11
32.54746553442403
 21
1.5928486288224
 31
0.0
  0
SPLINE
  5
10000098
102
{ACAD_XDICTIONARY
360
10000099
102
}
330
1F
100
AcDbEntity
  8
MODELSKETCH_VISIBLE
100
AcDbSpline
210
0.0
220
0.0
230
1.0
 70
     8
 71
     2
 72
     6
 73
     3
 74
     0
 42
0.000000001
 43
0.00000001
 40
0.0
 40
0.0
 40
0.0
 40
1.0
 40
1.0
 40
1.0
 10
-9.321960709979384
 20
-1.623254956929805
 30
0.0
 10
-9.321960709979384
 20
1.680907967571515
 30
0.0
 10
-11.80008290335538
 20
1.680907967571515
 30
0.0
  0
SPLINE
  5
1000009B
102
{ACAD_XDICTIONARY
360
1000009C
102
}
330
1F
100
AcDbEntity
  8
MODELSKETCH_VISIBLE
100
AcDbSpline
210
0.0
220
0.0
230
1.0
 70
     8
 71
     2
 72
     6
 73
     3
 74
     0
 42
0.000000001
 43
0.00000001
 40
0.0
 40
0.0
 40
0.0
 40
1.0
 40
1.0
 40
1.0
 10
29.89985899852202
 20
2.860859421878919
 30
0.0
 10
31.53305689997881
 20
2.86085942187892
 30
0.0
 10
32.45109671415174
 20
1.5928486288224
 30
0.0
  0
SPLINE
  5
1000009E
102
{ACAD_XDICTIONARY
360
1000009F
102
}
330
1F
100
AcDbEntity
  8
MODELSKETCH_VISIBLE
100
AcDbSpline
210
0.0
220
0.0
230
1.0
 70
     8
 71
     2
 72
     6
 73
     3
 74
     0
 42
0.000000001
 43
0.00000001
 40
0.0
 40
0.0
 40
0.0
 40
1.0
 40
1.0
 40
1.0
 10
-11.7848329206269
 20
-4.960459510676137
 30
0.0
 10
-9.321960709979384
 20
-4.960459510676138
 30
0.0
 10
-9.321960709979384
 20
-1.623254956929805
 30
0.0
  0
SPLINE
  5
100000A1
102
{ACAD_XDICTIONARY
360
100000A2
102
}
330
1F
100
AcDbEntity
  8
MODELSKETCH_VISIBLE
100
AcDbSpline
210
0.0
220
0.0
230
1.0
 70
     8
 71
     2
 72
     6
 73
     3
 74
     0
 42
0.000000001
 43
0.00000001
 40
0.0
 40
0.0
 40
0.0
 40
1.0
 40
1.0
 40
1.0
 10
27.40314574699373
 20
1.667661265612731
 30
0.0
 10
28.31484550720137
 20
2.860859421878917
 30
0.0
 10
29.89985899852202
 20
2.860859421878919
 30
0.0
  0
SPLINE
  5
100000A4
102
{ACAD_XDICTIONARY
360
100000A5
102
}
330
1F
100
AcDbEntity
  8
MODELSKETCH_VISIBLE
100
AcDbSpline
210
0.0
220
0.0
230
1.0
 70
     8
 71
     2
 72
     6
 73
     3
 74
     0
 42
0.000000001
 43
0.00000001
 40
0.0
 40
0.0
 40
0.0
 40
1.0
 40
1.0
 40
1.0
 10
-8.917836167674997
 20
-4.943938696053632
 30
0.0
 10
-10.00566826897235
 20
-6.160124818648924
 30
0.0
 10
-11.81787454987192
 20
-6.160124818648924
 30
0.0
  0
SPLINE
  5
100000A7
102
{ACAD_XDICTIONARY
360
100000A8
102
}
330
1F
100
AcDbEntity
  8
MODELSKETCH_VISIBLE
100
AcDbSpline
210
0.0
220
0.0
230
1.0
 70
     8
 71
     2
 72
     6
 73
     3
 74
     0
 42
0.000000001
 43
0.00000001
 40
0.0
 40
0.0
 40
0.0
 40
1.0
 40
1.0
 40
1.0
 10
26.4914459867861
 20
-1.665939109332859
 30
0.0
 10
26.49144598678609
 20
0.4744631093465462
 30
0.0
 10
27.40314574699373
 20
1.667661265612731
 30
0.0
  0
SPLINE
  5
100000AA
102
{ACAD_XDICTIONARY
360
100000AB
102
}
330
1F
100
AcDbEntity
  8
MODELSKETCH_VISIBLE
100
AcDbSpline
210
0.0
220
0.0
230
1.0
 70
     8
 71
     2
 72
     6
 73
     3
 74
     0
 42
0.000000001
 43
0.00000001
 40
0.0
 40
0.0
 40
0.0
 40
1.0
 40
1.0
 40
1.0
 10
-7.830004066377641
 20
-1.623254956929806
 30
0.0
 10
-7.830004066377641
 20
-3.727752573458337
 30
0.0
 10
-8.917836167674997
 20
-4.943938696053632
 30
0.0
  0
SPLINE
  5
100000AD
102
{ACAD_XDICTIONARY
360
100000AE
102
}
330
1F
100
AcDbEntity
  8
MODELSKETCH_VISIBLE
100
AcDbSpline
210
0.0
220
0.0
230
1.0
 70
     8
 71
     2
 72
     6
 73
     3
 74
     0
 42
0.000000001
 43
0.00000001
 40
0.0
 40
0.0
 40
0.0
 40
1.0
 40
1.0
 40
1.0
 10
27.39934171461456
 20
-4.974179268417316
 30
0.0
 10
26.4914459867861
 20
-3.788589176909472
 30
0.0
 10
26.4914459867861
 20
-1.665939109332859
 30
0.0
  0
SPLINE
  5
100000B0
102
{ACAD_XDICTIONARY
360
100000B1
102
}
330
1F
100
AcDbEntity
  8
MODELSKETCH_VISIBLE
100
AcDbSpline
210
0.0
220
0.0
230
1.0
 70
     8
 71
     2
 72
     6
 73
     3
 74
     0
 42
0.000000001
 43
0.00000001
 40
0.0
 40
0.0
 40
0.0
 40
1.0
 40
1.0
 40
1.0
 10
-8.934356982297498
 20
1.64913717022054
 30
0.0
 10
-7.830004066377641
 20
0.4177010648967793
 30
0.0
 10
-7.830004066377641
 20
-1.623254956929806
 30
0.0
  0
SPLINE
  5
100000B3
102
{ACAD_XDICTIONARY
360
100000B4
102
}
330
1F
100
AcDbEntity
  8
MODELSKETCH_VISIBLE
100
AcDbSpline
210
0.0
220
0.0
230
1.0
 70
     8
 71
     2
 72
     6
 73
     3
 74
     0
 42
0.000000001
 43
0.00000001
 40
0.0
 40
0.0
 40
0.0
 40
1.0
 40
1.0
 40
1.0
 10
29.89985899852202
 20
-6.159769359925161
 30
0.0
 10
28.30723744244304
 20
-6.159769359925162
 30
0.0
 10
27.39934171461456
 20
-4.974179268417316
 30
0.0
  0
SPLINE
  5
100000B6
102
{ACAD_XDICTIONARY
360
100000B7
102
}
330
1F
100
AcDbEntity
  8
MODELSKETCH_VISIBLE
100
AcDbSpline
210
0.0
220
0.0
230
1.0
 70
     8
 71
     2
 72
     6
 73
     3
 74
     0
 42
0.000000001
 43
0.00000001
 40
0.0
 40
0.0
 40
0.0
 40
1.0
 40
1.0
 40
1.0
 10
-11.76958293789844
 20
2.880573275544302
 30
0.0
 10
-10.03870989821737
 20
2.880573275544302
 30
0.0
 10
-8.934356982297498
 20
1.64913717022054
 30
0.0
  0
SPLINE
  5
100000B9
102
{ACAD_XDICTIONARY
360
100000BA
102
}
330
1F
100
AcDbEntity
  8
MODELSKETCH_VISIBLE
100
AcDbSpline
210
0.0
220
0.0
230
1.0
 70
     8
 71
     2
 72
     6
 73
     3
 74
     0
 42
0.000000001
 43
0.00000001
 40
0.0
 40
0.0
 40
0.0
 40
1.0
 40
1.0
 40
1.0
 10
32.45109671415174
 20
-4.835966091974152
 30
0.0
 10
31.55588109425383
 20
-6.159769359925159
 30
0.0
 10
29.89985899852202
 20
-6.159769359925161
 30
0.0
  0
SPLINE
  5
100000BC
102
{ACAD_XDICTIONARY
360
100000BD
102
}
330
1F
100
AcDbEntity
  8
MODELSKETCH_VISIBLE
100
AcDbSpline
210
0.0
220
0.0
230
1.0
 70
     8
 71
     2
 72
     6
 73
     3
 74
     0
 42
0.000000001
 43
0.00000001
 40
0.0
 40
0.0
 40
0.0
 40
1.0
 40
1.0
 40
1.0
 10
-14.67343381577749
 20
1.673282976207282
 30
0.0
 10
-13.59703920152648
 20
2.880573275544302
 30
0.0
 10
-11.76958293789844
 20
2.880573275544302
 30
0.0
  0
LINE
  5
100000BF
102
{ACAD_XDICTIONARY
360
100000C0
102
}
330
1F
100
AcDbEntity
  8
MODELSKETCH_VISIBLE
100
AcDbLine
 10
32.51449725380456
 20
-4.835966091974152
 30
0.0
 11
32.45109671415174
 21
-4.835966091974152
 31
0.0
  0
SPLINE
  5
100000C2
102
{ACAD_XDICTIONARY
360
100000C3
102
}
330
1F
100
AcDbEntity
  8
MODELSKETCH_VISIBLE
100
AcDbSpline
210
0.0
220
0.0
230
1.0
 70
     8
 71
     2
 72
     6
 73
     3
 74
     0
 42
0.000000001
 43
0.00000001
 40
0.0
 40
0.0
 40
0.0
 40
1.0
 40
1.0
 40
1.0
 10
-15.74982843002849
 20
-1.623254956929805
 30
0.0
 10
-15.74982843002849
 20
0.4659926768702605
 30
0.0
 10
-14.67343381577749
 20
1.673282976207282
 30
0.0
  0
SPLINE
  5
100000C5
102
{ACAD_XDICTIONARY
360
100000C6
102
}
330
1F
100
AcDbEntity
  8
MODELSKETCH_VISIBLE
100
AcDbSpline
210
0.0
220
0.0
230
1.0
 70
     8
 71
     2
 72
     6
 73
     3
 74
     0
 42
0.000000001
 43
0.00000001
 40
0.0
 40
0.0
 40
0.0
 40
1.0
 40
1.0
 40
1.0
 10
-14.64166301842651
 20
-4.924876217643046
 30
0.0
 10
-15.74982843002849
 20
-3.689627616637168
 30
0.0
 10
-15.74982843002849
 20
-1.623254956929805
 30
0.0
  0
SPLINE
  5
100000C8
102
{ACAD_XDICTIONARY
360
100000C9
102
}
330
1F
100
AcDbEntity
  8
MODELSKETCH_VISIBLE
100
AcDbSpline
210
0.0
220
0.0
230
1.0
 70
     8
 71
     2
 72
     6
 73
     3
 74
     0
 42
0.000000001
 43
0.00000001
 40
0.0
 40
0.0
 40
0.0
 40
1.0
 40
1.0
 40
1.0
 10
-11.81787454987192
 20
-6.160124818648924
 30
0.0
 10
-13.53349760682453
 20
-6.160124818648924
 30
0.0
 10
-14.64166301842651
 20
-4.924876217643046
 30
0.0
  0
LINE
  5
100000CB
102
{ACAD_XDICTIONARY
360
100000CC
102
}
330
1F
100
AcDbEntity
  8
MODELSKETCH_VISIBLE
100
AcDbLine
 10
-22.19802946038221
 20
-4.863876286729175
 30
0.0
 11
-22.19802946038221
 21
5.223987288152162
 31
0.0
  0
LINE
  5
100000CE
102
{ACAD_XDICTIONARY
360
100000CF
102
}
330
1F
100
AcDbEntity
  8
MODELSKETCH_VISIBLE
100
AcDbLine
 10
-24.93031803256601
 20
-5.024001105378085
 30
0.0
 11
-22.19802946038221
 21
-4.863876286729175
 31
0.0
  0
LINE
  5
100000D1
102
{ACAD_XDICTIONARY
360
100000D2
102
}
330
1F
100
AcDbEntity
  8
MODELSKETCH_VISIBLE
100
AcDbLine
 10
-24.93031803256601
 20
-6.000000000000012
 30
0.0
 11
-24.93031803256601
 21
-5.024001105378085
 31
0.0
  0
LINE
  5
100000D4
102
{ACAD_XDICTIONARY
360
100000D5
102
}
330
1F
100
AcDbEntity
  8
MODELSKETCH_VISIBLE
100
AcDbLine
 10
-17.95090927050398
 20
-6.000000000000013
 30
0.0
 11
-24.93031803256601
 21
-6.000000000000013
 31
0.0
  0
LINE
  5
100000D7
102
{ACAD_XDICTIONARY
360
100000D8
102
}
330
1F
100
AcDbEntity
  8
MODELSKETCH_VISIBLE
100
AcDbLine
 10
-17.95090927050398
 20
-5.024001105378085
 30
0.0
 11
-17.95090927050398
 21
-6.000000000000014
 31
0.0
  0
LINE
  5
100000DA
102
{ACAD_XDICTIONARY
360
100000DB
102
}
330
1F
100
AcDbEntity
  8
MODELSKETCH_VISIBLE
100
AcDbLine
 10
-20.74673943738972
 20
-4.863876286729175
 30
0.0
 11
-17.95090927050398
 21
-5.024001105378086
 31
0.0
  0
LINE
  5
100000DD
102
{ACAD_XDICTIONARY
360
100000DE
102
}
330
1F
100
AcDbEntity
  8
MODELSKETCH_VISIBLE
100
AcDbLine
 10
-20.74673943738972
 20
6.360111001422999
 30
0.0
 11
-20.74673943738972
 21
-4.863876286729175
 31
0.0
  0
LINE
  5
100000E0
102
{ACAD_XDICTIONARY
360
100000E1
102
}
330
1F
100
AcDbEntity
  8
MODELSKETCH_VISIBLE
100
AcDbLine
 10
-24.32794371479153
 20
6.360111001423
 30
0.0
 11
-20.74673943738972
 21
6.360111001423
 31
0.0
  0
LINE
  5
100000E3
102
{ACAD_XDICTIONARY
360
100000E4
102
}
330
1F
100
AcDbEntity
  8
MODELSKETCH_VISIBLE
100
AcDbLine
 10
-24.32794371479153
 20
5.389195434377228
 30
0.0
 11
-24.32794371479153
 21
6.360111001423
 31
0.0
  0
LINE
  5
100000E6
102
{ACAD_XDICTIONARY
360
100000E7
102
}
330
1F
100
AcDbEntity
  8
MODELSKETCH_VISIBLE
100
AcDbLine
 10
-22.19802946038221
 20
5.223987288152162
 30
0.0
 11
-24.32794371479153
 21
5.389195434377227
 31
0.0
  0
SPLINE
  5
100000E9
102
{ACAD_XDICTIONARY
360
100000EA
102
}
330
1F
100
AcDbEntity
  8
MODELSKETCH_VISIBLE
100
AcDbSpline
210
0.0
220
0.0
230
1.0
 70
     8
 71
     2
 72
     6
 73
     3
 74
     0
 42
0.000000001
 43
0.00000001
 40
0.0
 40
0.0
 40
0.0
 40
1.0
 40
1.0
 40
1.0
 10
-31.20822758911851
 20
1.680907967571518
 30
0.0
 10
-33.39151678307746
 20
1.680907967571518
 30
0.0
 10
-33.59739154991178
 20
-0.7412976224667571
 30
0.0
  0
SPLINE
  5
100000EC
102
{ACAD_XDICTIONARY
360
100000ED
102
}
330
1F
100
AcDbEntity
  8
MODELSKETCH_VISIBLE
100
AcDbSpline
210
0.0
220
0.0
230
1.0
 70
     8
 71
     2
 72
     6
 73
     3
 74
     0
 42
0.000000001
 43
0.00000001
 40
0.0
 40
0.0
 40
0.0
 40
1.0
 40
1.0
 40
1.0
 10
-29.04781336925226
 20
-0.741297622466758
 30
0.0
 10
-29.04781336925226
 20
1.680907967571517
 30
0.0
 10
-31.20822758911851
 20
1.680907967571518
 30
0.0
  0
LINE
  5
100000EF
102
{ACAD_XDICTIONARY
360
100000F0
102
}
330
1F
100
AcDbEntity
  8
MODELSKETCH_VISIBLE
100
AcDbLine
 10
-33.59739154991178
 20
-0.7412976224667568
 30
0.0
 11
-29.04781336925226
 21
-0.7412976224667575
 31
0.0
  0
LINE
  5
100000F2
102
{ACAD_XDICTIONARY
360
100000F3
102
}
330
1F
100
AcDbEntity
  8
MODELSKETCH_VISIBLE
100
AcDbLine
 10
-27.48214847579625
 20
-1.020880639155331
 30
0.0
 11
-27.48214847579625
 21
-1.918087956346843
 31
0.0
  0
SPLINE
  5
100000F5
102
{ACAD_XDICTIONARY
360
100000F6
102
}
330
1F
100
AcDbEntity
  8
MODELSKETCH_VISIBLE
100
AcDbSpline
210
0.0
220
0.0
230
1.0
 70
     8
 71
     2
 72
     6
 73
     3
 74
     0
 42
0.000000001
 43
0.00000001
 40
0.0
 40
0.0
 40
0.0
 40
1.0
 40
1.0
 40
1.0
 10
-28.48737650398107
 20
1.815616148339647
 30
0.0
 10
-27.48214847579625
 20
0.7506590211349912
 30
0.0
 10
-27.48214847579625
 20
-1.020880639155331
 30
0.0
  0
LINE
  5
100000F8
102
{ACAD_XDICTIONARY
360
100000F9
102
}
330
1F
100
AcDbEntity
  8
MODELSKETCH_VISIBLE
100
AcDbLine
 10
32.45109671415174
 20
-1.990549872355323
 30
0.0
 11
32.45109671415174
 21
-1.665939109332854
 31
0.0
  0
SPLINE
  5
100000FB
102
{ACAD_XDICTIONARY
360
100000FC
102
}
330
1F
100
AcDbEntity
  8
MODELSKETCH_VISIBLE
100
AcDbSpline
210
0.0
220
0.0
230
1.0
 70
     8
 71
     2
 72
     6
 73
     3
 74
     0
 42
0.000000001
 43
0.00000001
 40
0.0
 40
0.0
 40
0.0
 40
1.0
 40
1.0
 40
1.0
 10
32.45109671415174
 20
-1.665939109332854
 30
0.0
 10
32.45109671415174
 20
0.1346362168074032
 30
0.0
 10
31.90078002996521
 20
0.8992467250204849
 30
0.0
  0
LINE
  5
100000FE
102
{ACAD_XDICTIONARY
360
100000FF
102
}
330
1F
100
AcDbEntity
  8
MODELSKETCH_VISIBLE
100
AcDbLine
 10
-100.0
 20
-5.5
 30
0.0
 11
-106.0
 21
-5.500000000000001
 31
0.0
  0
SPLINE
  5
10000101
102
{ACAD_XDICTIONARY
360
10000102
102
}
330
1F
100
AcDbEntity
  8
MODELSKETCH_VISIBLE
100
AcDbSpline
210
0.0
220
0.0
230
1.0
 70
     8
 71
     2
 72
     6
 73
     3
 74
     0
 42
0.000000001
 43
0.00000001
 40
0.0
 40
0.0
 40
0.0
 40
1.0
 40
1.0
 40
1.0
 10
31.90078002996521
 20
0.8992467250204849
 30
0.0
 10
31.35046334577868
 20
1.663857233233565
 30
0.0
 10
30.14585309237498
 20
1.663857233233564
 30
0.0
  0
LINE
  5
10000104
102
{ACAD_XDICTIONARY
360
10000105
102
}
330
1F
100
AcDbEntity
  8
MODELSKETCH_VISIBLE
100
AcDbLine
 10
-100.0
 20
5.499999999999998
 30
0.0
 11
-100.0
 21
-5.5
 31
0.0
  0
SPLINE
  5
10000107
102
{ACAD_XDICTIONARY
360
10000108
102
}
330
1F
100
AcDbEntity
  8
MODELSKETCH_VISIBLE
100
AcDbSpline
210
0.0
220
0.0
230
1.0
 70
     8
 71
     2
 72
     6
 73
     3
 74
     0
 42
0.000000001
 43
0.00000001
 40
0.0
 40
0.0
 40
0.0
 40
1.0
 40
1.0
 40
1.0
 10
30.14585309237498
 20
1.663857233233564
 30
0.0
 10
27.9902347441789
 20
1.663857233233562
 30
0.0
 10
27.9902347441789
 20
-1.681155238849536
 30
0.0
  0
LINE
  5
1000010A
102
{ACAD_XDICTIONARY
360
1000010B
102
}
330
1F
100
AcDbEntity
  8
MODELSKETCH_VISIBLE
100
AcDbLine
 10
-106.0
 20
5.499999999999999
 30
0.0
 11
-106.0
 21
-5.500000000000001
 31
0.0
  0
SPLINE
  5
1000010D
102
{ACAD_XDICTIONARY
360
1000010E
102
}
330
1F
100
AcDbEntity
  8
MODELSKETCH_VISIBLE
100
AcDbSpline
210
0.0
220
0.0
230
1.0
 70
     8
 71
     2
 72
     6
 73
     3
 74
     0
 42
0.000000001
 43
0.00000001
 40
0.0
 40
0.0
 40
0.0
 40
1.0
 40
1.0
 40
1.0
 10
27.9902347441789
 20
-1.681155238849536
 30
0.0
 10
27.99023474417891
 20
-4.962767171279808
 30
0.0
 10
30.16106922189167
 20
-4.962767171279806
 30
0.0
  0
LINE
  5
10000110
102
{ACAD_XDICTIONARY
360
10000111
102
}
330
1F
100
AcDbEntity
  8
MODELSKETCH_VISIBLE
100
AcDbLine
 10
100.0
 20
5.500000000000023
 30
0.0
 11
106.0
 21
5.500000000000027
 31
0.0
  0
SPLINE
  5
10000113
102
{ACAD_XDICTIONARY
360
10000114
102
}
330
1F
100
AcDbEntity
  8
MODELSKETCH_VISIBLE
100
AcDbSpline
210
0.0
220
0.0
230
1.0
 70
     8
 71
     2
 72
     6
 73
     3
 74
     0
 42
0.000000001
 43
0.00000001
 40
0.0
 40
0.0
 40
0.0
 40
1.0
 40
1.0
 40
1.0
 10
30.16106922189167
 20
-4.962767171279806
 30
0.0
 10
31.36567947529536
 20
-4.962767171279805
 30
0.0
 10
31.89317196520687
 20
-4.260289191926493
 30
0.0
  0
LINE
  5
10000116
102
{ACAD_XDICTIONARY
360
10000117
102
}
330
1F
100
AcDbEntity
  8
MODELSKETCH_VISIBLE
100
AcDbLine
 10
100.0
 20
-5.499999999999976
 30
0.0
 11
106.0
 21
-5.499999999999972
 31
0.0
  0
SPLINE
  5
10000119
102
{ACAD_XDICTIONARY
360
1000011A
102
}
330
1F
100
AcDbEntity
  8
MODELSKETCH_VISIBLE
100
AcDbSpline
210
0.0
220
0.0
230
1.0
 70
     8
 71
     2
 72
     6
 73
     3
 74
     0
 42
0.000000001
 43
0.00000001
 40
0.0
 40
0.0
 40
0.0
 40
1.0
 40
1.0
 40
1.0
 10
31.89317196520687
 20
-4.260289191926493
 30
0.0
 10
32.42066445511838
 20
-3.55781121257318
 30
0.0
 10
32.45109671415174
 20
-1.990549872355323
 30
0.0
  0
LINE
  5
1000011C
102
{ACAD_XDICTIONARY
360
1000011D
102
}
330
1F
100
AcDbEntity
  8
MODELSKETCH_VISIBLE
100
AcDbLine
 10
100.0
 20
5.500000000000024
 30
0.0
 11
100.0
 21
-5.499999999999975
 31
0.0
  0
SPLINE
  5
1000011F
102
{ACAD_XDICTIONARY
360
10000120
102
}
330
1F
100
AcDbEntity
  8
MODELSKETCH_VISIBLE
100
AcDbSpline
210
0.0
220
0.0
230
1.0
 70
     8
 71
     2
 72
     6
 73
     3
 74
     0
 42
0.000000001
 43
0.00000001
 40
0.0
 40
0.0
 40
0.0
 40
1.0
 40
1.0
 40
1.0
 10
39.98054480332135
 20
-6.159769359925153
 30
0.0
 10
38.26873023269505
 20
-6.159769359925154
 30
0.0
 10
37.16302482114977
 20
-4.927262869074218
 30
0.0
  0
LINE
  5
10000122
102
{ACAD_XDICTIONARY
360
10000123
102
}
330
1F
100
AcDbEntity
  8
MODELSKETCH_VISIBLE
100
AcDbLine
 10
106.0
 20
5.500000000000028
 30
0.0
 11
106.0
 21
-5.499999999999973
 31
0.0
  0
SPLINE
  5
10000125
102
{ACAD_XDICTIONARY
360
10000126
102
}
330
1F
100
AcDbEntity
  8
MODELSKETCH_VISIBLE
100
AcDbSpline
210
0.0
220
0.0
230
1.0
 70
     8
 71
     2
 72
     6
 73
     3
 74
     0
 42
0.000000001
 43
0.00000001
 40
0.0
 40
0.0
 40
0.0
 40
1.0
 40
1.0
 40
1.0
 10
37.16302482114977
 20
-4.927262869074218
 30
0.0
 10
36.05731940960448
 20
-3.694756378223282
 30
0.0
 10
36.05731940960448
 20
-1.632970828713381
 30
0.0
  0
SPLINE
  5
10000128
102
{ACAD_XDICTIONARY
360
10000129
102
}
330
1F
100
AcDbEntity
  8
MODELSKETCH_VISIBLE
100
AcDbSpline
210
0.0
220
0.0
230
1.0
 70
     8
 71
     2
 72
     6
 73
     3
 74
     0
 42
0.000000001
 43
0.00000001
 40
0.0
 40
0.0
 40
0.0
 40
1.0
 40
1.0
 40
1.0
 10
36.05731940960448
 20
-1.632970828713381
 30
0.0
 10
36.05731940960448
 20
0.4516389150715366
 30
0.0
 10
37.13132455132335
 20
1.656249168475231
 30
0.0
  0
SPLINE
  5
1000012B
102
{ACAD_XDICTIONARY
360
1000012C
102
}
330
1F
100
AcDbEntity
  8
MODELSKETCH_VISIBLE
100
AcDbSpline
210
0.0
220
0.0
230
1.0
 70
     8
 71
     2
 72
     6
 73
     3
 74
     0
 42
0.000000001
 43
0.00000001
 40
0.0
 40
0.0
 40
0.0
 40
1.0
 40
1.0
 40
1.0
 10
37.13132455132335
 20
1.656249168475231
 30
0.0
 10
38.20532969304222
 20
2.860859421878925
 30
0.0
 10
40.0287292134575
 20
2.860859421878927
 30
0.0
  0
SPLINE
  5
1000012E
102
{ACAD_XDICTIONARY
360
1000012F
102
}
330
1F
100
AcDbEntity
  8
MODELSKETCH_VISIBLE
100
AcDbSpline
210
0.0
220
0.0
230
1.0
 70
     8
 71
     2
 72
     6
 73
     3
 74
     0
 42
0.000000001
 43
0.00000001
 40
0.0
 40
0.0
 40
0.0
 40
1.0
 40
1.0
 40
1.0
 10
40.0287292134575
 20
2.860859421878927
 30
0.0
 10
41.75575991360048
 20
2.860859421878927
 30
0.0
 10
42.85766129276659
 20
1.632156963407161
 30
0.0
  0
SPLINE
  5
10000131
102
{ACAD_XDICTIONARY
360
10000132
102
}
330
1F
100
AcDbEntity
  8
MODELSKETCH_VISIBLE
100
AcDbSpline
210
0.0
220
0.0
230
1.0
 70
     8
 71
     2
 72
     6
 73
     3
 74
     0
 42
0.000000001
 43
0.00000001
 40
0.0
 40
0.0
 40
0.0
 40
1.0
 40
1.0
 40
1.0
 10
42.85766129276659
 20
1.632156963407161
 30
0.0
 10
43.95956267193271
 20
0.4034545049353949
 30
0.0
 10
43.95956267193271
 20
-1.632970828713375
 30
0.0
  0
SPLINE
  5
10000134
102
{ACAD_XDICTIONARY
360
10000135
102
}
330
1F
100
AcDbEntity
  8
MODELSKETCH_VISIBLE
100
AcDbSpline
210
0.0
220
0.0
230
1.0
 70
     8
 71
     2
 72
     6
 73
     3
 74
     0
 42
0.000000001
 43
0.00000001
 40
0.0
 40
0.0
 40
0.0
 40
1.0
 40
1.0
 40
1.0
 10
43.95956267193271
 20
-1.632970828713375
 30
0.0
 10
43.95956267193271
 20
-3.732796702014971
 30
0.0
 10
42.87414543307633
 20
-4.946283030970061
 30
0.0
  0
LINE
  5
10000137
102
{ACAD_XDICTIONARY
360
10000138
102
}
330
1F
100
AcDbEntity
  8
MODELSKETCH_VISIBLE
100
AcDbLine
 10
-76.0711351124822
 20
-4.403835141087061
 30
0.0
 11
-76.0711351124822
 21
-5.689917017854498
 31
0.0
  0
SPLINE
  5
1000013A
102
{ACAD_XDICTIONARY
360
1000013B
102
}
330
1F
100
AcDbEntity
  8
MODELSKETCH_VISIBLE
100
AcDbSpline
210
0.0
220
0.0
230
1.0
 70
     8
 71
     2
 72
     6
 73
     3
 74
     0
 42
0.000000001
 43
0.00000001
 40
0.0
 40
0.0
 40
0.0
 40
1.0
 40
1.0
 40
1.0
 10
42.87414543307633
 20
-4.946283030970061
 30
0.0
 10
41.78872819421995
 20
-6.159769359925151
 30
0.0
 10
39.98054480332135
 20
-6.159769359925153
 30
0.0
  0
SPLINE
  5
1000013D
102
{ACAD_XDICTIONARY
360
1000013E
102
}
330
1F
100
AcDbEntity
  8
MODELSKETCH_VISIBLE
100
AcDbSpline
210
0.0
220
0.0
230
1.0
 70
     8
 71
     2
 72
     6
 73
     3
 74
     0
 42
0.000000001
 43
0.00000001
 40
0.0
 40
0.0
 40
0.0
 40
1.0
 40
1.0
 40
1.0
 10
-76.0711351124822
 20
-5.689917017854499
 30
0.0
 10
-77.23267546363381
 20
-6.160124818648916
 30
0.0
 10
-78.9152568913414
 20
-6.160124818648916
 30
0.0
  0
SPLINE
  5
10000140
102
{ACAD_XDICTIONARY
360
10000141
102
}
330
1F
100
AcDbEntity
  8
MODELSKETCH_VISIBLE
100
AcDbSpline
210
0.0
220
0.0
230
1.0
 70
     8
 71
     2
 72
     6
 73
     3
 74
     0
 42
0.000000001
 43
0.00000001
 40
0.0
 40
0.0
 40
0.0
 40
1.0
 40
1.0
 40
1.0
 10
40.01351308394082
 20
-4.962767171279799
 30
0.0
 10
42.47091800088436
 20
-4.962767171279797
 30
0.0
 10
42.47091800088436
 20
-1.632970828713377
 30
0.0
  0
SPLINE
  5
10000143
102
{ACAD_XDICTIONARY
360
10000144
102
}
330
1F
100
AcDbEntity
  8
MODELSKETCH_VISIBLE
100
AcDbSpline
210
0.0
220
0.0
230
1.0
 70
     8
 71
     2
 72
     6
 73
     3
 74
     0
 42
0.000000001
 43
0.00000001
 40
0.0
 40
0.0
 40
0.0
 40
1.0
 40
1.0
 40
1.0
 10
-78.9152568913414
 20
-6.160124818648916
 30
0.0
 10
-81.3705041106247
 20
-6.160124818648915
 30
0.0
 10
-82.67310680201464
 20
-4.602084916557139
 30
0.0
  0
SPLINE
  5
10000146
102
{ACAD_XDICTIONARY
360
10000147
102
}
330
1F
100
AcDbEntity
  8
MODELSKETCH_VISIBLE
100
AcDbSpline
210
0.0
220
0.0
230
1.0
 70
     8
 71
     2
 72
     6
 73
     3
 74
     0
 42
0.000000001
 43
0.00000001
 40
0.0
 40
0.0
 40
0.0
 40
1.0
 40
1.0
 40
1.0
 10
42.47091800088436
 20
-1.632970828713377
 30
0.0
 10
42.47091800088435
 20
1.663857233233573
 30
0.0
 10
39.99829695442414
 20
1.663857233233572
 30
0.0
  0
SPLINE
  5
10000149
102
{ACAD_XDICTIONARY
360
1000014A
102
}
330
1F
100
AcDbEntity
  8
MODELSKETCH_VISIBLE
100
AcDbSpline
210
0.0
220
0.0
230
1.0
 70
     8
 71
     2
 72
     6
 73
     3
 74
     0
 42
0.000000001
 43
0.00000001
 40
0.0
 40
0.0
 40
0.0
 40
1.0
 40
1.0
 40
1.0
 10
39.99829695442414
 20
1.663857233233572
 30
0.0
 10
37.54850010223895
 20
1.66385723323357
 30
0.0
 10
37.54850010223895
 20
-1.63297082871338
 30
0.0
  0
SPLINE
  5
1000014C
102
{ACAD_XDICTIONARY
360
1000014D
102
}
330
1F
100
AcDbEntity
  8
MODELSKETCH_VISIBLE
100
AcDbSpline
210
0.0
220
0.0
230
1.0
 70
     8
 71
     2
 72
     6
 73
     3
 74
     0
 42
0.000000001
 43
0.00000001
 40
0.0
 40
0.0
 40
0.0
 40
1.0
 40
1.0
 40
1.0
 10
37.54850010223895
 20
-1.63297082871338
 30
0.0
 10
37.54850010223895
 20
-4.9627671712798
 30
0.0
 10
40.01351308394082
 20
-4.962767171279799
 30
0.0
  0
LINE
  5
1000014F
102
{ACAD_XDICTIONARY
360
10000150
102
}
330
1F
100
AcDbEntity
  8
MODELSKETCH_VISIBLE
100
AcDbLine
 10
55.74699100418612
 20
-5.611988697324724
 30
0.0
 11
55.74699100418612
 21
-4.201960695445874
 31
0.0
  0
SPLINE
  5
10000152
102
{ACAD_XDICTIONARY
360
10000153
102
}
330
1F
100
AcDbEntity
  8
MODELSKETCH_VISIBLE
100
AcDbSpline
210
0.0
220
0.0
230
1.0
 70
     8
 71
     2
 72
     6
 73
     3
 74
     0
 42
0.000000001
 43
0.00000001
 40
0.0
 40
0.0
 40
0.0
 40
1.0
 40
1.0
 40
1.0
 10
55.74699100418612
 20
-4.201960695445874
 30
0.0
 10
57.41822922943461
 20
-4.881614480524168
 30
0.0
 10
59.02606691503028
 20
-4.881614480524166
 30
0.0
  0
SPLINE
  5
10000155
102
{ACAD_XDICTIONARY
360
10000156
102
}
330
1F
100
AcDbEntity
  8
MODELSKETCH_VISIBLE
100
AcDbSpline
210
0.0
220
0.0
230
1.0
 70
     8
 71
     2
 72
     6
 73
     3
 74
     0
 42
0.000000001
 43
0.00000001
 40
0.0
 40
0.0
 40
0.0
 40
1.0
 40
1.0
 40
1.0
 10
59.02606691503028
 20
-4.881614480524166
 30
0.0
 10
61.80047453023794
 20
-4.881614480524164
 30
0.0
 10
61.80047453023794
 20
-2.979598290939385
 30
0.0
  0
SPLINE
  5
10000158
102
{ACAD_XDICTIONARY
360
10000159
102
}
330
1F
100
AcDbEntity
  8
MODELSKETCH_VISIBLE
100
AcDbSpline
210
0.0
220
0.0
230
1.0
 70
     8
 71
     2
 72
     6
 73
     3
 74
     0
 42
0.000000001
 43
0.00000001
 40
0.0
 40
0.0
 40
0.0
 40
1.0
 40
1.0
 40
1.0
 10
61.80047453023794
 20
-2.979598290939385
 30
0.0
 10
61.80047453023794
 20
-2.155391275452647
 30
0.0
 10
61.24254978129306
 20
-1.711587497882866
 30
0.0
  0
SPLINE
  5
1000015B
102
{ACAD_XDICTIONARY
360
1000015C
102
}
330
1F
100
AcDbEntity
  8
MODELSKETCH_VISIBLE
100
AcDbSpline
210
0.0
220
0.0
230
1.0
 70
     8
 71
     2
 72
     6
 73
     3
 74
     0
 42
0.000000001
 43
0.00000001
 40
0.0
 40
0.0
 40
0.0
 40
1.0
 40
1.0
 40
1.0
 10
61.24254978129306
 20
-1.711587497882866
 30
0.0
 10
60.6846250323482
 20
-1.267783720313084
 30
0.0
 10
58.98041852648023
 20
-0.6591385396459574
 30
0.0
  0
SPLINE
  5
1000015E
102
{ACAD_XDICTIONARY
360
1000015F
102
}
330
1F
100
AcDbEntity
  8
MODELSKETCH_VISIBLE
100
AcDbSpline
210
0.0
220
0.0
230
1.0
 70
     8
 71
     2
 72
     6
 73
     3
 74
     0
 42
0.000000001
 43
0.00000001
 40
0.0
 40
0.0
 40
0.0
 40
1.0
 40
1.0
 40
1.0
 10
58.98041852648023
 20
-0.6591385396459574
 30
0.0
 10
57.33200449550675
 20
-0.0809256180121848
 30
0.0
 10
56.61431038663677
 20
0.7242612355787036
 30
0.0
  0
SPLINE
  5
10000161
102
{ACAD_XDICTIONARY
360
10000162
102
}
330
1F
100
AcDbEntity
  8
MODELSKETCH_VISIBLE
100
AcDbSpline
210
0.0
220
0.0
230
1.0
 70
     8
 71
     2
 72
     6
 73
     3
 74
     0
 42
0.000000001
 43
0.00000001
 40
0.0
 40
0.0
 40
0.0
 40
1.0
 40
1.0
 40
1.0
 10
-62.75790019052996
 20
-5.33154242373551
 30
0.0
 10
-63.52039932695333
 20
-4.960459510676131
 30
0.0
 10
-63.52039932695333
 20
-4.109002141670022
 30
0.0
  0
LINE
  5
10000164
102
{ACAD_XDICTIONARY
360
10000165
102
}
330
1F
100
AcDbEntity
  8
MODELSKETCH_VISIBLE
100
AcDbLine
 10
79.77579553260715
 20
6.332672973267707
 30
0.0
 11
79.77579553260715
 21
-4.866398351007471
 31
0.0
  0
SPLINE
  5
10000167
102
{ACAD_XDICTIONARY
360
10000168
102
}
330
1F
100
AcDbEntity
  8
MODELSKETCH_VISIBLE
100
AcDbSpline
210
0.0
220
0.0
230
1.0
 70
     8
 71
     2
 72
     6
 73
     3
 74
     0
 42
0.000000001
 43
0.00000001
 40
0.0
 40
0.0
 40
0.0
 40
1.0
 40
1.0
 40
1.0
 10
73.18213940871325
 20
-1.632970828713352
 30
0.0
 10
73.18213940871325
 20
-3.732796702014948
 30
0.0
 10
72.09672216985687
 20
-4.946283030970038
 30
0.0
  0
SPLINE
  5
1000016A
102
{ACAD_XDICTIONARY
360
1000016B
102
}
330
1F
100
AcDbEntity
  8
MODELSKETCH_VISIBLE
100
AcDbSpline
210
0.0
220
0.0
230
1.0
 70
     8
 71
     2
 72
     6
 73
     3
 74
     0
 42
0.000000001
 43
0.00000001
 40
0.0
 40
0.0
 40
0.0
 40
1.0
 40
1.0
 40
1.0
 10
-61.45656833103405
 20
-2.83054525626682
 30
0.0
 10
-62.24956743291436
 20
-3.275336419180458
 30
0.0
 10
-62.24956743291436
 20
-3.887877392107241
 30
0.0
  0
SPLINE
  5
1000016D
102
{ACAD_XDICTIONARY
360
1000016E
102
}
330
1F
100
AcDbEntity
  8
MODELSKETCH_VISIBLE
100
AcDbSpline
210
0.0
220
0.0
230
1.0
 70
     8
 71
     2
 72
     6
 73
     3
 74
     0
 42
0.000000001
 43
0.00000001
 40
0.0
 40
0.0
 40
0.0
 40
1.0
 40
1.0
 40
1.0
 10
-63.52039932695333
 20
-4.109002141670022
 30
0.0
 10
-63.52039932695333
 20
-3.219419815842743
 30
0.0
 10
-62.46560885490099
 20
-2.584003868823259
 30
0.0
  0
LINE
  5
10000170
102
{ACAD_XDICTIONARY
360
10000171
102
}
330
1F
100
AcDbEntity
  8
MODELSKETCH_VISIBLE
100
AcDbLine
 10
79.77579553260715
 20
-4.866398351007471
 30
0.0
 11
82.56541927733149
 21
-5.02616771093259
 31
0.0
  0
SPLINE
  5
10000173
102
{ACAD_XDICTIONARY
360
10000174
102
}
330
1F
100
AcDbEntity
  8
MODELSKETCH_VISIBLE
100
AcDbSpline
210
0.0
220
0.0
230
1.0
 70
     8
 71
     2
 72
     6
 73
     3
 74
     0
 42
0.000000001
 43
0.00000001
 40
0.0
 40
0.0
 40
0.0
 40
1.0
 40
1.0
 40
1.0
 10
72.09672216985687
 20
-4.946283030970038
 30
0.0
 10
71.0113049310005
 20
-6.159769359925129
 30
0.0
 10
69.2031215401019
 20
-6.15976935992513
 30
0.0
  0
SPLINE
  5
10000176
102
{ACAD_XDICTIONARY
360
10000177
102
}
330
1F
100
AcDbEntity
  8
MODELSKETCH_VISIBLE
100
AcDbSpline
210
0.0
220
0.0
230
1.0
 70
     8
 71
     2
 72
     6
 73
     3
 74
     0
 42
0.000000001
 43
0.00000001
 40
0.0
 40
0.0
 40
0.0
 40
1.0
 40
1.0
 40
1.0
 10
-62.24956743291436
 20
-3.887877392107241
 30
0.0
 10
-62.24956743291436
 20
-4.553793304583662
 30
0.0
 10
-60.97111054751117
 20
-4.553793304583662
 30
0.0
  0
SPLINE
  5
10000179
102
{ACAD_XDICTIONARY
360
1000017A
102
}
330
1F
100
AcDbEntity
  8
MODELSKETCH_VISIBLE
100
AcDbSpline
210
0.0
220
0.0
230
1.0
 70
     8
 71
     2
 72
     6
 73
     3
 74
     0
 42
0.000000001
 43
0.00000001
 40
0.0
 40
0.0
 40
0.0
 40
1.0
 40
1.0
 40
1.0
 10
-62.46560885490099
 20
-2.584003868823259
 30
0.0
 10
-63.17219138798666
 20
-2.291712533194296
 30
0.0
 10
-63.57631593029105
 20
-1.611817469883448
 30
0.0
  0
LINE
  5
1000017C
102
{ACAD_XDICTIONARY
360
1000017D
102
}
330
1F
100
AcDbEntity
  8
MODELSKETCH_VISIBLE
100
AcDbLine
 10
82.5654192773315
 20
-5.026167710932591
 30
0.0
 11
82.5654192773315
 21
-5.999999999999997
 31
0.0
  0
SPLINE
  5
1000017F
102
{ACAD_XDICTIONARY
360
10000180
102
}
330
1F
100
AcDbEntity
  8
MODELSKETCH_VISIBLE
100
AcDbSpline
210
0.0
220
0.0
230
1.0
 70
     8
 71
     2
 72
     6
 73
     3
 74
     0
 42
0.000000001
 43
0.00000001
 40
0.0
 40
0.0
 40
0.0
 40
1.0
 40
1.0
 40
1.0
 10
69.23608982072136
 20
-4.962767171279775
 30
0.0
 10
71.69349473766489
 20
-4.962767171279773
 30
0.0
 10
71.69349473766489
 20
-1.632970828713353
 30
0.0
  0
LINE
  5
10000182
102
{ACAD_XDICTIONARY
360
10000183
102
}
330
1F
100
AcDbEntity
  8
MODELSKETCH_VISIBLE
100
AcDbLine
 10
-60.97111054751117
 20
-4.553793304583662
 30
0.0
 11
-59.48677889527365
 21
-4.553793304583662
 31
0.0
  0
SPLINE
  5
10000185
102
{ACAD_XDICTIONARY
360
10000186
102
}
330
1F
100
AcDbEntity
  8
MODELSKETCH_VISIBLE
100
AcDbSpline
210
0.0
220
0.0
230
1.0
 70
     8
 71
     2
 72
     6
 73
     3
 74
     0
 42
0.000000001
 43
0.00000001
 40
0.0
 40
0.0
 40
0.0
 40
1.0
 40
1.0
 40
1.0
 10
-63.57631593029105
 20
-1.611817469883448
 30
0.0
 10
-63.98044047259545
 20
-0.9319224065725993
 30
0.0
 10
-63.98044047259545
 20
-0.1312983133280486
 30
0.0
  0
LINE
  5
10000188
102
{ACAD_XDICTIONARY
360
10000189
102
}
330
1F
100
AcDbEntity
  8
MODELSKETCH_VISIBLE
100
AcDbLine
 10
82.56541927733149
 20
-5.999999999999997
 30
0.0
 11
75.6015040018651
 21
-6.000000000000003
 31
0.0
  0
SPLINE
  5
1000018B
102
{ACAD_XDICTIONARY
360
1000018C
102
}
330
1F
100
AcDbEntity
  8
MODELSKETCH_VISIBLE
100
AcDbSpline
210
0.0
220
0.0
230
1.0
 70
     8
 71
     2
 72
     6
 73
     3
 74
     0
 42
0.000000001
 43
0.00000001
 40
0.0
 40
0.0
 40
0.0
 40
1.0
 40
1.0
 40
1.0
 10
71.69349473766489
 20
-1.632970828713353
 30
0.0
 10
71.69349473766489
 20
1.663857233233597
 30
0.0
 10
69.22087369120467
 20
1.663857233233595
 30
0.0
  0
SPLINE
  5
1000018E
102
{ACAD_XDICTIONARY
360
1000018F
102
}
330
1F
100
AcDbEntity
  8
MODELSKETCH_VISIBLE
100
AcDbSpline
210
0.0
220
0.0
230
1.0
 70
     8
 71
     2
 72
     6
 73
     3
 74
     0
 42
0.000000001
 43
0.00000001
 40
0.0
 40
0.0
 40
0.0
 40
1.0
 40
1.0
 40
1.0
 10
-59.48677889527365
 20
-4.553793304583662
 30
0.0
 10
-58.10411379455925
 20
-4.553793304583662
 30
0.0
 10
-57.37338545548684
 20
-5.165063445616406
 30
0.0
  0
SPLINE
  5
10000191
102
{ACAD_XDICTIONARY
360
10000192
102
}
330
1F
100
AcDbEntity
  8
MODELSKETCH_VISIBLE
100
AcDbSpline
210
0.0
220
0.0
230
1.0
 70
     8
 71
     2
 72
     6
 73
     3
 74
     0
 42
0.000000001
 43
0.00000001
 40
0.0
 40
0.0
 40
0.0
 40
1.0
 40
1.0
 40
1.0
 10
-63.98044047259545
 20
-0.1312983133280486
 30
0.0
 10
-63.98044047259545
 20
1.314908382088298
 30
0.0
 10
-63.13533726305953
 20
2.097740828816303
 30
0.0
  0
LINE
  5
10000194
102
{ACAD_XDICTIONARY
360
10000195
102
}
330
1F
100
AcDbEntity
  8
MODELSKETCH_VISIBLE
100
AcDbLine
 10
75.6015040018651
 20
-6.000000000000003
 30
0.0
 11
75.6015040018651
 21
-5.026167710932596
 31
0.0
  0
SPLINE
  5
10000197
102
{ACAD_XDICTIONARY
360
10000198
102
}
330
1F
100
AcDbEntity
  8
MODELSKETCH_VISIBLE
100
AcDbSpline
210
0.0
220
0.0
230
1.0
 70
     8
 71
     2
 72
     6
 73
     3
 74
     0
 42
0.000000001
 43
0.00000001
 40
0.0
 40
0.0
 40
0.0
 40
1.0
 40
1.0
 40
1.0
 10
69.22087369120467
 20
1.663857233233595
 30
0.0
 10
66.77107683901949
 20
1.663857233233593
 30
0.0
 10
66.77107683901949
 20
-1.632970828713358
 30
0.0
  0
SPLINE
  5
1000019A
102
{ACAD_XDICTIONARY
360
1000019B
102
}
330
1F
100
AcDbEntity
  8
MODELSKETCH_VISIBLE
100
AcDbSpline
210
0.0
220
0.0
230
1.0
 70
     8
 71
     2
 72
     6
 73
     3
 74
     0
 42
0.000000001
 43
0.00000001
 40
0.0
 40
0.0
 40
0.0
 40
1.0
 40
1.0
 40
1.0
 10
-57.37338545548684
 20
-5.165063445616406
 30
0.0
 10
-56.64265711641443
 20
-5.77633358664915
 30
0.0
 10
-56.64265711641443
 20
-6.912457299919988
 30
0.0
  0
SPLINE
  5
1000019D
102
{ACAD_XDICTIONARY
360
1000019E
102
}
330
1F
100
AcDbEntity
  8
MODELSKETCH_VISIBLE
100
AcDbSpline
210
0.0
220
0.0
230
1.0
 70
     8
 71
     2
 72
     6
 73
     3
 74
     0
 42
0.000000001
 43
0.00000001
 40
0.0
 40
0.0
 40
0.0
 40
1.0
 40
1.0
 40
1.0
 10
-63.13533726305953
 20
2.097740828816303
 30
0.0
 10
-62.29023405352362
 20
2.880573275544307
 30
0.0
 10
-60.7245691600676
 20
2.880573275544307
 30
0.0
  0
LINE
  5
100001A0
102
{ACAD_XDICTIONARY
360
100001A1
102
}
330
1F
100
AcDbEntity
  8
MODELSKETCH_VISIBLE
100
AcDbLine
 10
75.6015040018651
 20
-5.026167710932596
 30
0.0
 11
78.3277272069366
 21
-4.866398351007473
 31
0.0
  0
SPLINE
  5
100001A3
102
{ACAD_XDICTIONARY
360
100001A4
102
}
330
1F
100
AcDbEntity
  8
MODELSKETCH_VISIBLE
100
AcDbSpline
210
0.0
220
0.0
230
1.0
 70
     8
 71
     2
 72
     6
 73
     3
 74
     0
 42
0.000000001
 43
0.00000001
 40
0.0
 40
0.0
 40
0.0
 40
1.0
 40
1.0
 40
1.0
 10
66.77107683901949
 20
-1.632970828713358
 30
0.0
 10
66.77107683901949
 20
-4.962767171279777
 30
0.0
 10
69.23608982072136
 20
-4.962767171279775
 30
0.0
  0
SPLINE
  5
100001A6
102
{ACAD_XDICTIONARY
360
100001A7
102
}
330
1F
100
AcDbEntity
  8
MODELSKETCH_VISIBLE
100
AcDbSpline
210
0.0
220
0.0
230
1.0
 70
     8
 71
     2
 72
     6
 73
     3
 74
     0
 42
0.000000001
 43
0.00000001
 40
0.0
 40
0.0
 40
0.0
 40
1.0
 40
1.0
 40
1.0
 10
-56.64265711641443
 20
-6.912457299919988
 30
0.0
 10
-56.64265711641443
 20
-9.909078906063879
 30
0.0
 10
-61.13123536616008
 20
-9.909078906063877
 30
0.0
  0
SPLINE
  5
100001A9
102
{ACAD_XDICTIONARY
360
100001AA
102
}
330
1F
100
AcDbEntity
  8
MODELSKETCH_VISIBLE
100
AcDbSpline
210
0.0
220
0.0
230
1.0
 70
     8
 71
     2
 72
     6
 73
     3
 74
     0
 42
0.000000001
 43
0.00000001
 40
0.0
 40
0.0
 40
0.0
 40
1.0
 40
1.0
 40
1.0
 10
-60.7245691600676
 20
2.880573275544307
 30
0.0
 10
-60.04086160107464
 20
2.880573275544307
 30
0.0
 10
-59.53252884345905
 20
2.720448456895397
 30
0.0
  0
LINE
  5
100001AC
102
{ACAD_XDICTIONARY
360
100001AD
102
}
330
1F
100
AcDbEntity
  8
MODELSKETCH_VISIBLE
100
AcDbLine
 10
78.3277272069366
 20
-4.866398351007472
 30
0.0
 11
78.3277272069366
 21
5.199071324275178
 31
0.0
  0
LINE
  5
100001AF
102
{ACAD_XDICTIONARY
360
100001B0
102
}
330
1F
100
AcDbEntity
  8
MODELSKETCH_VISIBLE
100
AcDbLine
 10
78.3277272069366
 20
5.199071324275178
 30
0.0
 11
76.20254111777388
 21
5.363912727372524
 31
0.0
  0
SPLINE
  5
100001B2
102
{ACAD_XDICTIONARY
360
100001B3
102
}
330
1F
100
AcDbEntity
  8
MODELSKETCH_VISIBLE
100
AcDbSpline
210
0.0
220
0.0
230
1.0
 70
     8
 71
     2
 72
     6
 73
     3
 74
     0
 42
0.000000001
 43
0.00000001
 40
0.0
 40
0.0
 40
0.0
 40
1.0
 40
1.0
 40
1.0
 10
-61.13123536616008
 20
-9.909078906063877
 30
0.0
 10
-62.86210840584116
 20
-9.909078906063877
 30
0.0
 10
-63.76312821871478
 20
-9.268579631468237
 30
0.0
  0
LINE
  5
100001B5
102
{ACAD_XDICTIONARY
360
100001B6
102
}
330
1F
100
AcDbEntity
  8
MODELSKETCH_VISIBLE
100
AcDbLine
 10
-59.53252884345905
 20
2.720448456895397
 30
0.0
 11
-56.53082390973901
 21
2.720448456895397
 31
0.0
  0
LINE
  5
100001B8
102
{ACAD_XDICTIONARY
360
100001B9
102
}
330
1F
100
AcDbEntity
  8
MODELSKETCH_VISIBLE
100
AcDbLine
 10
76.20254111777388
 20
5.363912727372524
 30
0.0
 11
76.20254111777388
 21
6.332672973267704
 31
0.0
  0
SPLINE
  5
100001BB
102
{ACAD_XDICTIONARY
360
100001BC
102
}
330
1F
100
AcDbEntity
  8
MODELSKETCH_VISIBLE
100
AcDbSpline
210
0.0
220
0.0
230
1.0
 70
     8
 71
     2
 72
     6
 73
     3
 74
     0
 42
0.000000001
 43
0.00000001
 40
0.0
 40
0.0
 40
0.0
 40
1.0
 40
1.0
 40
1.0
 10
-63.76312821871478
 20
-9.268579631468237
 30
0.0
 10
-64.6641480315884
 20
-8.628080356872596
 30
0.0
 10
-64.6641480315884
 20
-7.47670666087329
 30
0.0
  0
SPLINE
  5
100001BE
102
{ACAD_XDICTIONARY
360
100001BF
102
}
330
1F
100
AcDbEntity
  8
MODELSKETCH_VISIBLE
100
AcDbSpline
210
0.0
220
0.0
230
1.0
 70
     8
 71
     2
 72
     6
 73
     3
 74
     0
 42
0.000000001
 43
0.00000001
 40
0.0
 40
0.0
 40
0.0
 40
1.0
 40
1.0
 40
1.0
 10
-60.75761078931262
 20
-1.885046327101826
 30
0.0
 10
-58.98607112902229
 20
-1.885046327101827
 30
0.0
 10
-58.98607112902229
 20
-0.0575900634737893
 30
0.0
  0
LINE
  5
100001C1
102
{ACAD_XDICTIONARY
360
100001C2
102
}
330
1F
100
AcDbEntity
  8
MODELSKETCH_VISIBLE
100
AcDbLine
 10
76.20254111777388
 20
6.332672973267704
 30
0.0
 11
79.77579553260715
 21
6.332672973267708
 31
0.0
  0
SPLINE
  5
100001C4
102
{ACAD_XDICTIONARY
360
100001C5
102
}
330
1F
100
AcDbEntity
  8
MODELSKETCH_VISIBLE
100
AcDbSpline
210
0.0
220
0.0
230
1.0
 70
     8
 71
     2
 72
     6
 73
     3
 74
     0
 42
0.000000001
 43
0.00000001
 40
0.0
 40
0.0
 40
0.0
 40
1.0
 40
1.0
 40
1.0
 10
-64.6641480315884
 20
-7.47670666087329
 30
0.0
 10
-64.6641480315884
 20
-5.794125233165695
 30
0.0
 10
-62.75790019052996
 20
-5.33154242373551
 30
0.0
  0
SPLINE
  5
100001C7
102
{ACAD_XDICTIONARY
360
100001C8
102
}
330
1F
100
AcDbEntity
  8
MODELSKETCH_VISIBLE
100
AcDbSpline
210
0.0
220
0.0
230
1.0
 70
     8
 71
     2
 72
     6
 73
     3
 74
     0
 42
0.000000001
 43
0.00000001
 40
0.0
 40
0.0
 40
0.0
 40
1.0
 40
1.0
 40
1.0
 10
-58.98607112902229
 20
-0.0575900634737893
 30
0.0
 10
-58.98607112902229
 20
1.838491122432352
 30
0.0
 10
-60.77286077204108
 20
1.838491122432352
 30
0.0
  0
SPLINE
  5
100001CA
102
{ACAD_XDICTIONARY
360
100001CB
102
}
330
1F
100
AcDbEntity
  8
MODELSKETCH_VISIBLE
100
AcDbSpline
210
0.0
220
0.0
230
1.0
 70
     8
 71
     2
 72
     6
 73
     3
 74
     0
 42
0.000000001
 43
0.00000001
 40
0.0
 40
0.0
 40
0.0
 40
1.0
 40
1.0
 40
1.0
 10
72.08023802954713
 20
1.632156963407184
 30
0.0
 10
73.18213940871325
 20
0.4034545049354174
 30
0.0
 10
73.18213940871325
 20
-1.632970828713352
 30
0.0
  0
SPLINE
  5
100001CD
102
{ACAD_XDICTIONARY
360
100001CE
102
}
330
1F
100
AcDbEntity
  8
MODELSKETCH_VISIBLE
100
AcDbSpline
210
0.0
220
0.0
230
1.0
 70
     8
 71
     2
 72
     6
 73
     3
 74
     0
 42
0.000000001
 43
0.00000001
 40
0.0
 40
0.0
 40
0.0
 40
1.0
 40
1.0
 40
1.0
 10
-60.77286077204108
 20
-2.8788368682403
 30
0.0
 10
-61.21002694359049
 20
-2.8788368682403
 30
0.0
 10
-61.45656833103405
 20
-2.83054525626682
 30
0.0
  0
SPLINE
  5
100001D0
102
{ACAD_XDICTIONARY
360
100001D1
102
}
330
1F
100
AcDbEntity
  8
MODELSKETCH_VISIBLE
100
AcDbSpline
210
0.0
220
0.0
230
1.0
 70
     8
 71
     2
 72
     6
 73
     3
 74
     0
 42
0.000000001
 43
0.00000001
 40
0.0
 40
0.0
 40
0.0
 40
1.0
 40
1.0
 40
1.0
 10
69.25130595023803
 20
2.86085942187895
 30
0.0
 10
70.97833665038101
 20
2.860859421878951
 30
0.0
 10
72.08023802954713
 20
1.632156963407184
 30
0.0
  0
SPLINE
  5
100001D3
102
{ACAD_XDICTIONARY
360
100001D4
102
}
330
1F
100
AcDbEntity
  8
MODELSKETCH_VISIBLE
100
AcDbSpline
210
0.0
220
0.0
230
1.0
 70
     8
 71
     2
 72
     6
 73
     3
 74
     0
 42
0.000000001
 43
0.00000001
 40
0.0
 40
0.0
 40
0.0
 40
1.0
 40
1.0
 40
1.0
 10
-58.41800927238688
 20
-2.120150227499036
 30
0.0
 10
-59.26311248192279
 20
-2.8788368682403
 30
0.0
 10
-60.77286077204108
 20
-2.8788368682403
 30
0.0
  0
SPLINE
  5
100001D6
102
{ACAD_XDICTIONARY
360
100001D7
102
}
330
1F
100
AcDbEntity
  8
MODELSKETCH_VISIBLE
100
AcDbSpline
210
0.0
220
0.0
230
1.0
 70
     8
 71
     2
 72
     6
 73
     3
 74
     0
 42
0.000000001
 43
0.00000001
 40
0.0
 40
0.0
 40
0.0
 40
1.0
 40
1.0
 40
1.0
 10
66.3539012881039
 20
1.656249168475253
 30
0.0
 10
67.42790642982277
 20
2.860859421878948
 30
0.0
 10
69.25130595023803
 20
2.86085942187895
 30
0.0
  0
SPLINE
  5
100001D9
102
{ACAD_XDICTIONARY
360
100001DA
102
}
330
1F
100
AcDbEntity
  8
MODELSKETCH_VISIBLE
100
AcDbSpline
210
0.0
220
0.0
230
1.0
 70
     8
 71
     2
 72
     6
 73
     3
 74
     0
 42
0.000000001
 43
0.00000001
 40
0.0
 40
0.0
 40
0.0
 40
1.0
 40
1.0
 40
1.0
 10
-57.57290606285096
 20
-0.0830067013545691
 30
0.0
 10
-57.57290606285096
 20
-1.361463586757772
 30
0.0
 10
-58.41800927238688
 20
-2.120150227499036
 30
0.0
  0
SPLINE
  5
100001DC
102
{ACAD_XDICTIONARY
360
100001DD
102
}
330
1F
100
AcDbEntity
  8
MODELSKETCH_VISIBLE
100
AcDbSpline
210
0.0
220
0.0
230
1.0
 70
     8
 71
     2
 72
     6
 73
     3
 74
     0
 42
0.000000001
 43
0.00000001
 40
0.0
 40
0.0
 40
0.0
 40
1.0
 40
1.0
 40
1.0
 10
65.27989614638503
 20
-1.632970828713358
 30
0.0
 10
65.27989614638501
 20
0.4516389150715592
 30
0.0
 10
66.3539012881039
 20
1.656249168475253
 30
0.0
  0
SPLINE
  5
100001DF
102
{ACAD_XDICTIONARY
360
100001E0
102
}
330
1F
100
AcDbEntity
  8
MODELSKETCH_VISIBLE
100
AcDbSpline
210
0.0
220
0.0
230
1.0
 70
     8
 71
     2
 72
     6
 73
     3
 74
     0
 42
0.000000001
 43
0.00000001
 40
0.0
 40
0.0
 40
0.0
 40
1.0
 40
1.0
 40
1.0
 10
-58.08886381183079
 20
1.609741381505338
 30
0.0
 10
-57.57290606285096
 20
0.9336588138766063
 30
0.0
 10
-57.57290606285096
 20
-0.0830067013545691
 30
0.0
  0
SPLINE
  5
100001E2
102
{ACAD_XDICTIONARY
360
100001E3
102
}
330
1F
100
AcDbEntity
  8
MODELSKETCH_VISIBLE
100
AcDbSpline
210
0.0
220
0.0
230
1.0
 70
     8
 71
     2
 72
     6
 73
     3
 74
     0
 42
0.000000001
 43
0.00000001
 40
0.0
 40
0.0
 40
0.0
 40
1.0
 40
1.0
 40
1.0
 10
66.38560155793031
 20
-4.927262869074195
 30
0.0
 10
65.27989614638503
 20
-3.694756378223259
 30
0.0
 10
65.27989614638503
 20
-1.632970828713358
 30
0.0
  0
LINE
  5
100001E5
102
{ACAD_XDICTIONARY
360
100001E6
102
}
330
1F
100
AcDbEntity
  8
MODELSKETCH_VISIBLE
100
AcDbLine
 10
-56.53082390973901
 20
1.823241139703885
 30
0.0
 11
-58.08886381183079
 21
1.609741381505337
 31
0.0
  0
SPLINE
  5
100001E8
102
{ACAD_XDICTIONARY
360
100001E9
102
}
330
1F
100
AcDbEntity
  8
MODELSKETCH_VISIBLE
100
AcDbSpline
210
0.0
220
0.0
230
1.0
 70
     8
 71
     2
 72
     6
 73
     3
 74
     0
 42
0.000000001
 43
0.00000001
 40
0.0
 40
0.0
 40
0.0
 40
1.0
 40
1.0
 40
1.0
 10
69.2031215401019
 20
-6.15976935992513
 30
0.0
 10
67.4913069694756
 20
-6.159769359925131
 30
0.0
 10
66.38560155793031
 20
-4.927262869074195
 30
0.0
  0
LINE
  5
100001EB
102
{ACAD_XDICTIONARY
360
100001EC
102
}
330
1F
100
AcDbEntity
  8
MODELSKETCH_VISIBLE
100
AcDbLine
 10
-56.53082390973901
 20
2.720448456895397
 30
0.0
 11
-56.53082390973901
 21
1.823241139703885
 31
0.0
  0
SPLINE
  5
100001EE
102
{ACAD_XDICTIONARY
360
100001EF
102
}
330
1F
100
AcDbEntity
  8
MODELSKETCH_VISIBLE
100
AcDbSpline
210
0.0
220
0.0
230
1.0
 70
     8
 71
     2
 72
     6
 73
     3
 74
     0
 42
0.000000001
 43
0.00000001
 40
0.0
 40
0.0
 40
0.0
 40
1.0
 40
1.0
 40
1.0
 10
59.02606691503028
 20
-6.159769359925138
 30
0.0
 10
56.92624104172868
 20
-6.159769359925139
 30
0.0
 10
55.74699100418612
 20
-5.611988697324724
 30
0.0
  0
SPLINE
  5
100001F1
102
{ACAD_XDICTIONARY
360
100001F2
102
}
330
1F
100
AcDbEntity
  8
MODELSKETCH_VISIBLE
100
AcDbSpline
210
0.0
220
0.0
230
1.0
 70
     8
 71
     2
 72
     6
 73
     3
 74
     0
 42
0.000000001
 43
0.00000001
 40
0.0
 40
0.0
 40
0.0
 40
1.0
 40
1.0
 40
1.0
 10
-72.83051378268281
 20
-1.623254956929798
 30
0.0
 10
-72.83051378268281
 20
-4.96045951067613
 30
0.0
 10
-70.36001658067106
 20
-4.96045951067613
 30
0.0
  0
SPLINE
  5
100001F4
102
{ACAD_XDICTIONARY
360
100001F5
102
}
330
1F
100
AcDbEntity
  8
MODELSKETCH_VISIBLE
100
AcDbSpline
210
0.0
220
0.0
230
1.0
 70
     8
 71
     2
 72
     6
 73
     3
 74
     0
 42
0.000000001
 43
0.00000001
 40
0.0
 40
0.0
 40
0.0
 40
1.0
 40
1.0
 40
1.0
 10
62.14537346594931
 20
-5.291181966681419
 30
0.0
 10
61.04727611916237
 20
-6.159769359925137
 30
0.0
 10
59.02606691503028
 20
-6.159769359925138
 30
0.0
  0
SPLINE
  5
100001F7
102
{ACAD_XDICTIONARY
360
100001F8
102
}
330
1F
100
AcDbEntity
  8
MODELSKETCH_VISIBLE
100
AcDbSpline
210
0.0
220
0.0
230
1.0
 70
     8
 71
     2
 72
     6
 73
     3
 74
     0
 42
0.000000001
 43
0.00000001
 40
0.0
 40
0.0
 40
0.0
 40
1.0
 40
1.0
 40
1.0
 10
-70.37526656339953
 20
1.680907967571522
 30
0.0
 10
-72.83051378268281
 20
1.680907967571522
 30
0.0
 10
-72.83051378268281
 20
-1.623254956929798
 30
0.0
  0
SPLINE
  5
100001FA
102
{ACAD_XDICTIONARY
360
100001FB
102
}
330
1F
100
AcDbEntity
  8
MODELSKETCH_VISIBLE
100
AcDbSpline
210
0.0
220
0.0
230
1.0
 70
     8
 71
     2
 72
     6
 73
     3
 74
     0
 42
0.000000001
 43
0.00000001
 40
0.0
 40
0.0
 40
0.0
 40
1.0
 40
1.0
 40
1.0
 10
63.24347081273626
 20
-2.900981621769879
 30
0.0
 10
63.24347081273626
 20
-4.422594573437703
 30
0.0
 10
62.14537346594931
 20
-5.291181966681419
 30
0.0
  0
SPLINE
  5
100001FD
102
{ACAD_XDICTIONARY
360
100001FE
102
}
330
1F
100
AcDbEntity
  8
MODELSKETCH_VISIBLE
100
AcDbSpline
210
0.0
220
0.0
230
1.0
 70
     8
 71
     2
 72
     6
 73
     3
 74
     0
 42
0.000000001
 43
0.00000001
 40
0.0
 40
0.0
 40
0.0
 40
1.0
 40
1.0
 40
1.0
 10
-67.89714437002354
 20
-1.623254956929798
 30
0.0
 10
-67.89714437002354
 20
1.680907967571522
 30
0.0
 10
-70.37526656339953
 20
1.680907967571522
 30
0.0
  0
SPLINE
  5
10000200
102
{ACAD_XDICTIONARY
360
10000201
102
}
330
1F
100
AcDbEntity
  8
MODELSKETCH_VISIBLE
100
AcDbSpline
210
0.0
220
0.0
230
1.0
 70
     8
 71
     2
 72
     6
 73
     3
 74
     0
 42
0.000000001
 43
0.00000001
 40
0.0
 40
0.0
 40
0.0
 40
1.0
 40
1.0
 40
1.0
 10
62.58917724351909
 20
-0.995161399805931
 30
0.0
 10
63.24347081273626
 20
-1.736947713743995
 30
0.0
 10
63.24347081273626
 20
-2.900981621769879
 30
0.0
  0
SPLINE
  5
10000203
102
{ACAD_XDICTIONARY
360
10000204
102
}
330
1F
100
AcDbEntity
  8
MODELSKETCH_VISIBLE
100
AcDbSpline
210
0.0
220
0.0
230
1.0
 70
     8
 71
     2
 72
     6
 73
     3
 74
     0
 42
0.000000001
 43
0.00000001
 40
0.0
 40
0.0
 40
0.0
 40
1.0
 40
1.0
 40
1.0
 10
-70.36001658067106
 20
-4.96045951067613
 30
0.0
 10
-67.89714437002354
 20
-4.96045951067613
 30
0.0
 10
-67.89714437002354
 20
-1.623254956929798
 30
0.0
  0
SPLINE
  5
10000206
102
{ACAD_XDICTIONARY
360
10000207
102
}
330
1F
100
AcDbEntity
  8
MODELSKETCH_VISIBLE
100
AcDbSpline
210
0.0
220
0.0
230
1.0
 70
     8
 71
     2
 72
     6
 73
     3
 74
     0
 42
0.000000001
 43
0.00000001
 40
0.0
 40
0.0
 40
0.0
 40
1.0
 40
1.0
 40
1.0
 10
59.98721909616711
 20
0.4440308503132154
 30
0.0
 10
61.93488367430191
 20
-0.2533750858678685
 30
0.0
 10
62.58917724351909
 20
-0.995161399805931
 30
0.0
  0
SPLINE
  5
10000209
102
{ACAD_XDICTIONARY
360
1000020A
102
}
330
1F
100
AcDbEntity
  8
MODELSKETCH_VISIBLE
100
AcDbSpline
210
0.0
220
0.0
230
1.0
 70
     8
 71
     2
 72
     6
 73
     3
 74
     0
 42
0.000000001
 43
0.00000001
 40
0.0
 40
0.0
 40
0.0
 40
1.0
 40
1.0
 40
1.0
 10
-67.49301982771915
 20
-4.943938696053625
 30
0.0
 10
-68.58085192901652
 20
-6.160124818648917
 30
0.0
 10
-70.39305820991608
 20
-6.160124818648917
 30
0.0
  0
SPLINE
  5
1000020C
102
{ACAD_XDICTIONARY
360
1000020D
102
}
330
1F
100
AcDbEntity
  8
MODELSKETCH_VISIBLE
100
AcDbSpline
210
0.0
220
0.0
230
1.0
 70
     8
 71
     2
 72
     6
 73
     3
 74
     0
 42
0.000000001
 43
0.00000001
 40
0.0
 40
0.0
 40
0.0
 40
1.0
 40
1.0
 40
1.0
 10
57.84301284510854
 20
1.497747819343182
 30
0.0
 10
58.36162925946865
 20
1.007027642430309
 30
0.0
 10
59.98721909616711
 20
0.4440308503132154
 30
0.0
  0
SPLINE
  5
1000020F
102
{ACAD_XDICTIONARY
360
10000210
102
}
330
1F
100
AcDbEntity
  8
MODELSKETCH_VISIBLE
100
AcDbSpline
210
0.0
220
0.0
230
1.0
 70
     8
 71
     2
 72
     6
 73
     3
 74
     0
 42
0.000000001
 43
0.00000001
 40
0.0
 40
0.0
 40
0.0
 40
1.0
 40
1.0
 40
1.0
 10
-66.40518772642179
 20
-1.623254956929799
 30
0.0
 10
-66.40518772642179
 20
-3.727752573458331
 30
0.0
 10
-67.49301982771915
 20
-4.943938696053625
 30
0.0
  0
SPLINE
  5
10000212
102
{ACAD_XDICTIONARY
360
10000213
102
}
330
1F
100
AcDbEntity
  8
MODELSKETCH_VISIBLE
100
AcDbSpline
210
0.0
220
0.0
230
1.0
 70
     8
 71
     2
 72
     6
 73
     3
 74
     0
 42
0.000000001
 43
0.00000001
 40
0.0
 40
0.0
 40
0.0
 40
1.0
 40
1.0
 40
1.0
 10
57.32439643074842
 20
2.797458882226113
 30
0.0
 10
57.32439643074842
 20
1.988467996256053
 30
0.0
 10
57.84301284510854
 20
1.497747819343182
 30
0.0
  0
SPLINE
  5
10000215
102
{ACAD_XDICTIONARY
360
10000216
102
}
330
1F
100
AcDbEntity
  8
MODELSKETCH_VISIBLE
100
AcDbSpline
210
0.0
220
0.0
230
1.0
 70
     8
 71
     2
 72
     6
 73
     3
 74
     0
 42
0.000000001
 43
0.00000001
 40
0.0
 40
0.0
 40
0.0
 40
1.0
 40
1.0
 40
1.0
 10
-67.50954064234166
 20
1.649137170220548
 30
0.0
 10
-66.40518772642179
 20
0.4177010648967862
 30
0.0
 10
-66.40518772642179
 20
-1.623254956929799
 30
0.0
  0
SPLINE
  5
10000218
102
{ACAD_XDICTIONARY
360
10000219
102
}
330
1F
100
AcDbEntity
  8
MODELSKETCH_VISIBLE
100
AcDbSpline
210
0.0
220
0.0
230
1.0
 70
     8
 71
     2
 72
     6
 73
     3
 74
     0
 42
0.000000001
 43
0.00000001
 40
0.0
 40
0.0
 40
0.0
 40
1.0
 40
1.0
 40
1.0
 10
59.64485618204185
 20
4.453480977957931
 30
0.0
 10
57.32439643074842
 20
4.453480977957928
 30
0.0
 10
57.32439643074842
 20
2.797458882226113
 30
0.0
  0
SPLINE
  5
1000021B
102
{ACAD_XDICTIONARY
360
1000021C
102
}
330
1F
100
AcDbEntity
  8
MODELSKETCH_VISIBLE
100
AcDbSpline
210
0.0
220
0.0
230
1.0
 70
     8
 71
     2
 72
     6
 73
     3
 74
     0
 42
0.000000001
 43
0.00000001
 40
0.0
 40
0.0
 40
0.0
 40
1.0
 40
1.0
 40
1.0
 10
-70.3447665979426
 20
2.880573275544309
 30
0.0
 10
-68.61389355826152
 20
2.880573275544309
 30
0.0
 10
-67.50954064234166
 20
1.649137170220548
 30
0.0
  0
SPLINE
  5
1000021E
102
{ACAD_XDICTIONARY
360
1000021F
102
}
330
1F
100
AcDbEntity
  8
MODELSKETCH_VISIBLE
100
AcDbSpline
210
0.0
220
0.0
230
1.0
 70
     8
 71
     2
 72
     6
 73
     3
 74
     0
 42
0.000000001
 43
0.00000001
 40
0.0
 40
0.0
 40
0.0
 40
1.0
 40
1.0
 40
1.0
 10
62.49788046641902
 20
3.834691710946351
 30
0.0
 10
60.96865944999286
 20
4.453480977957931
 30
0.0
 10
59.64485618204185
 20
4.453480977957931
 30
0.0
  0
SPLINE
  5
10000221
102
{ACAD_XDICTIONARY
360
10000222
102
}
330
1F
100
AcDbEntity
  8
MODELSKETCH_VISIBLE
100
AcDbSpline
210
0.0
220
0.0
230
1.0
 70
     8
 71
     2
 72
     6
 73
     3
 74
     0
 42
0.000000001
 43
0.00000001
 40
0.0
 40
0.0
 40
0.0
 40
1.0
 40
1.0
 40
1.0
 10
-73.24861747582165
 20
1.673282976207288
 30
0.0
 10
-72.17222286157065
 20
2.880573275544309
 30
0.0
 10
-70.3447665979426
 20
2.880573275544309
 30
0.0
  0
LINE
  5
10000224
102
{ACAD_XDICTIONARY
360
10000225
102
}
330
1F
100
AcDbEntity
  8
MODELSKETCH_VISIBLE
100
AcDbLine
 10
63.00508478364161
 20
5.135670784622336
 30
0.0
 11
62.49788046641901
 21
3.834691710946351
 31
0.0
  0
SPLINE
  5
10000227
102
{ACAD_XDICTIONARY
360
10000228
102
}
330
1F
100
AcDbEntity
  8
MODELSKETCH_VISIBLE
100
AcDbSpline
210
0.0
220
0.0
230
1.0
 70
     8
 71
     2
 72
     6
 73
     3
 74
     0
 42
0.000000001
 43
0.00000001
 40
0.0
 40
0.0
 40
0.0
 40
1.0
 40
1.0
 40
1.0
 10
-74.32501209007265
 20
-1.623254956929797
 30
0.0
 10
-74.32501209007265
 20
0.4659926768702683
 30
0.0
 10
-73.24861747582165
 20
1.673282976207288
 30
0.0
  0
SPLINE
  5
1000022A
102
{ACAD_XDICTIONARY
360
1000022B
102
}
330
1F
100
AcDbEntity
  8
MODELSKETCH_VISIBLE
100
AcDbSpline
210
0.0
220
0.0
230
1.0
 70
     8
 71
     2
 72
     6
 73
     3
 74
     0
 42
0.000000001
 43
0.00000001
 40
0.0
 40
0.0
 40
0.0
 40
1.0
 40
1.0
 40
1.0
 10
59.70825672169467
 20
5.751924030047808
 30
0.0
 10
61.5240481773516
 20
5.751924030047808
 30
0.0
 10
63.00508478364163
 20
5.135670784622341
 30
0.0
  0
SPLINE
  5
1000022D
102
{ACAD_XDICTIONARY
360
1000022E
102
}
330
1F
100
AcDbEntity
  8
MODELSKETCH_VISIBLE
100
AcDbSpline
210
0.0
220
0.0
230
1.0
 70
     8
 71
     2
 72
     6
 73
     3
 74
     0
 42
0.000000001
 43
0.00000001
 40
0.0
 40
0.0
 40
0.0
 40
1.0
 40
1.0
 40
1.0
 10
-73.21684667847067
 20
-4.924876217643039
 30
0.0
 10
-74.32501209007265
 20
-3.689627616637161
 30
0.0
 10
-74.32501209007265
 20
-1.623254956929797
 30
0.0
  0
SPLINE
  5
10000230
102
{ACAD_XDICTIONARY
360
10000231
102
}
330
1F
100
AcDbEntity
  8
MODELSKETCH_VISIBLE
100
AcDbSpline
210
0.0
220
0.0
230
1.0
 70
     8
 71
     2
 72
     6
 73
     3
 74
     0
 42
0.000000001
 43
0.00000001
 40
0.0
 40
0.0
 40
0.0
 40
1.0
 40
1.0
 40
1.0
 10
56.91482894459116
 20
4.972097392318044
 30
0.0
 10
57.93304161141555
 20
5.751924030047806
 30
0.0
 10
59.70825672169467
 20
5.751924030047808
 30
0.0
  0
SPLINE
  5
10000233
102
{ACAD_XDICTIONARY
360
10000234
102
}
330
1F
100
AcDbEntity
  8
MODELSKETCH_VISIBLE
100
AcDbSpline
210
0.0
220
0.0
230
1.0
 70
     8
 71
     2
 72
     6
 73
     3
 74
     0
 42
0.000000001
 43
0.00000001
 40
0.0
 40
0.0
 40
0.0
 40
1.0
 40
1.0
 40
1.0
 10
-70.39305820991608
 20
-6.160124818648917
 30
0.0
 10
-72.10868126686869
 20
-6.160124818648917
 30
0.0
 10
-73.21684667847067
 20
-4.924876217643039
 30
0.0
  0
SPLINE
  5
10000236
102
{ACAD_XDICTIONARY
360
10000237
102
}
330
1F
100
AcDbEntity
  8
MODELSKETCH_VISIBLE
100
AcDbSpline
210
0.0
220
0.0
230
1.0
 70
     8
 71
     2
 72
     6
 73
     3
 74
     0
 42
0.000000001
 43
0.00000001
 40
0.0
 40
0.0
 40
0.0
 40
1.0
 40
1.0
 40
1.0
 10
55.89661627776677
 20
2.812675011742792
 30
0.0
 10
55.89661627776677
 20
4.192270754588285
 30
0.0
 10
56.91482894459116
 20
4.972097392318044
 30
0.0
  0
SPLINE
  5
10000239
102
{ACAD_XDICTIONARY
360
1000023A
102
}
330
1F
100
AcDbEntity
  8
MODELSKETCH_VISIBLE
100
AcDbSpline
210
0.0
220
0.0
230
1.0
 70
     8
 71
     2
 72
     6
 73
     3
 74
     0
 42
0.000000001
 43
0.00000001
 40
0.0
 40
0.0
 40
0.0
 40
1.0
 40
1.0
 40
1.0
 10
-78.66871550389786
 20
-4.863876286729168
 30
0.0
 10
-77.6368000059382
 20
-4.863876286729168
 30
0.0
 10
-76.0711351124822
 20
-4.403835141087061
 30
0.0
  0
SPLINE
  5
1000023C
102
{ACAD_XDICTIONARY
360
1000023D
102
}
330
1F
100
AcDbEntity
  8
MODELSKETCH_VISIBLE
100
AcDbSpline
210
0.0
220
0.0
230
1.0
 70
     8
 71
     2
 72
     6
 73
     3
 74
     0
 42
0.000000001
 43
0.00000001
 40
0.0
 40
0.0
 40
0.0
 40
1.0
 40
1.0
 40
1.0
 10
56.61431038663677
 20
0.7242612355787036
 30
0.0
 10
55.89661627776677
 20
1.529448089169594
 30
0.0
 10
55.89661627776677
 20
2.812675011742792
 30
0.0
  0
SPLINE
  5
1000023F
102
{ACAD_XDICTIONARY
360
10000240
102
}
330
1F
100
AcDbEntity
  8
MODELSKETCH_VISIBLE
100
AcDbSpline
210
0.0
220
0.0
230
1.0
 70
     8
 71
     2
 72
     6
 73
     3
 74
     0
 42
0.000000001
 43
0.00000001
 40
0.0
 40
0.0
 40
0.0
 40
1.0
 40
1.0
 40
1.0
 10
-60.77286077204108
 20
1.838491122432352
 30
0.0
 10
-62.55965041505987
 20
1.838491122432352
 30
0.0
 10
-62.55965041505987
 20
-0.0830067013545682
 30
0.0
  0
SPLINE
  5
10000242
102
{ACAD_XDICTIONARY
360
10000243
102
}
330
1F
100
AcDbEntity
  8
MODELSKETCH_VISIBLE
100
AcDbSpline
210
0.0
220
0.0
230
1.0
 70
     8
 71
     2
 72
     6
 73
     3
 74
     0
 42
0.000000001
 43
0.00000001
 40
0.0
 40
0.0
 40
0.0
 40
1.0
 40
1.0
 40
1.0
 10
-62.55965041505987
 20
-0.0830067013545682
 30
0.0
 10
-62.55965041505987
 20
-1.885046327101826
 30
0.0
 10
-60.75761078931262
 20
-1.885046327101826
 30
0.0
  0
LINE
  5
10000245
102
{ACAD_XDICTIONARY
360
10000246
102
}
330
1F
100
AcDbEntity
  8
MODELSKETCH_VISIBLE
100
AcDbLine
 10
-59.97732000637269
 20
-5.857666827867644
 30
0.0
 11
-61.47181831376252
 21
-5.857666827867644
 31
0.0
  0
SPLINE
  5
10000248
102
{ACAD_XDICTIONARY
360
10000249
102
}
330
1F
100
AcDbEntity
  8
MODELSKETCH_VISIBLE
100
AcDbSpline
210
0.0
220
0.0
230
1.0
 70
     8
 71
     2
 72
     6
 73
     3
 74
     0
 42
0.000000001
 43
0.00000001
 40
0.0
 40
0.0
 40
0.0
 40
1.0
 40
1.0
 40
1.0
 10
-61.47181831376252
 20
-5.857666827867644
 30
0.0
 10
-63.29927457739056
 20
-5.857666827867644
 30
0.0
 10
-63.29927457739056
 20
-7.430956712687887
 30
0.0
  0
SPLINE
  5
1000024B
102
{ACAD_XDICTIONARY
360
1000024C
102
}
330
1F
100
AcDbEntity
  8
MODELSKETCH_VISIBLE
100
AcDbSpline
210
0.0
220
0.0
230
1.0
 70
     8
 71
     2
 72
     6
 73
     3
 74
     0
 42
0.000000001
 43
0.00000001
 40
0.0
 40
0.0
 40
0.0
 40
1.0
 40
1.0
 40
1.0
 10
-63.29927457739056
 20
-7.430956712687887
 30
0.0
 10
-63.29927457739056
 20
-8.811080149614208
 30
0.0
 10
-61.14648534888855
 20
-8.81108014961421
 30
0.0
  0
SPLINE
  5
1000024E
102
{ACAD_XDICTIONARY
360
1000024F
102
}
330
1F
100
AcDbEntity
  8
MODELSKETCH_VISIBLE
100
AcDbSpline
210
0.0
220
0.0
230
1.0
 70
     8
 71
     2
 72
     6
 73
     3
 74
     0
 42
0.000000001
 43
0.00000001
 40
0.0
 40
0.0
 40
0.0
 40
1.0
 40
1.0
 40
1.0
 10
-61.14648534888855
 20
-8.81108014961421
 30
0.0
 10
-58.00753057061229
 20
-8.81108014961421
 30
0.0
 10
-58.00753057061229
 20
-7.039540489323886
 30
0.0
  0
SPLINE
  5
10000251
102
{ACAD_XDICTIONARY
360
10000252
102
}
330
1F
100
AcDbEntity
  8
MODELSKETCH_VISIBLE
100
AcDbSpline
210
0.0
220
0.0
230
1.0
 70
     8
 71
     2
 72
     6
 73
     3
 74
     0
 42
0.000000001
 43
0.00000001
 40
0.0
 40
0.0
 40
0.0
 40
1.0
 40
1.0
 40
1.0
 10
-58.00753057061229
 20
-7.039540489323886
 30
0.0
 10
-58.00753057061229
 20
-6.340582947602452
 30
0.0
 10
-58.40530095344648
 20
-6.099124887735048
 30
0.0
  0
SPLINE
  5
10000254
102
{ACAD_XDICTIONARY
360
10000255
102
}
330
1F
100
AcDbEntity
  8
MODELSKETCH_VISIBLE
100
AcDbSpline
210
0.0
220
0.0
230
1.0
 70
     8
 71
     2
 72
     6
 73
     3
 74
     0
 42
0.000000001
 43
0.00000001
 40
0.0
 40
0.0
 40
0.0
 40
1.0
 40
1.0
 40
1.0
 10
-58.40530095344648
 20
-6.099124887735048
 30
0.0
 10
-58.80307133628068
 20
-5.857666827867645
 30
0.0
 10
-59.97732000637269
 20
-5.857666827867644
 30
0.0
  0
LINE
  5
10000257
102
{ACAD_XDICTIONARY
360
10000258
102
}
330
1F
100
AcDbEntity
  8
MODELSKETCH_VISIBLE
100
AcDbLine
 10
-48.38987479652538
 20
-6.000000000000007
 30
0.0
 11
-48.60337455472392
 21
-4.833376321272233
 31
0.0
  0
LINE
  5
1000025A
102
{ACAD_XDICTIONARY
360
1000025B
102
}
330
1F
100
AcDbEntity
  8
MODELSKETCH_VISIBLE
100
AcDbLine
 10
-48.60337455472392
 20
-4.833376321272237
 30
0.0
 11
-48.68216613215434
 21
-4.833376321272237
 31
0.0
  0
SPLINE
  5
1000025D
102
{ACAD_XDICTIONARY
360
1000025E
102
}
330
1F
100
AcDbEntity
  8
MODELSKETCH_VISIBLE
100
AcDbSpline
210
0.0
220
0.0
230
1.0
 70
     8
 71
     2
 72
     6
 73
     3
 74
     0
 42
0.000000001
 43
0.00000001
 40
0.0
 40
0.0
 40
0.0
 40
1.0
 40
1.0
 40
1.0
 10
-48.68216613215434
 20
-4.833376321272237
 30
0.0
 10
-49.5158318546439
 20
-6.16012481864892
 30
0.0
 10
-51.3356631269077
 20
-6.16012481864892
 30
0.0
  0
SPLINE
  5
10000260
102
{ACAD_XDICTIONARY
360
10000261
102
}
330
1F
100
AcDbEntity
  8
MODELSKETCH_VISIBLE
100
AcDbSpline
210
0.0
220
0.0
230
1.0
 70
     8
 71
     2
 72
     6
 73
     3
 74
     0
 42
0.000000001
 43
0.00000001
 40
0.0
 40
0.0
 40
0.0
 40
1.0
 40
1.0
 40
1.0
 10
-51.3356631269077
 20
-6.16012481864892
 30
0.0
 10
-54.44157627593894
 20
-6.160124818648919
 30
0.0
 10
-54.44157627593894
 20
-2.972878428399185
 30
0.0
  0
LINE
  5
10000263
102
{ACAD_XDICTIONARY
360
10000264
102
}
330
1F
100
AcDbEntity
  8
MODELSKETCH_VISIBLE
100
AcDbLine
 10
-54.44157627593894
 20
-2.972878428399185
 30
0.0
 11
-54.44157627593894
 21
2.720448456895397
 31
0.0
  0
LINE
  5
10000266
102
{ACAD_XDICTIONARY
360
10000267
102
}
330
1F
100
AcDbEntity
  8
MODELSKETCH_VISIBLE
100
AcDbLine
 10
-54.44157627593894
 20
2.720448456895397
 30
0.0
 11
-52.9953695805226
 21
2.720448456895397
 31
0.0
  0
LINE
  5
10000269
102
{ACAD_XDICTIONARY
360
1000026A
102
}
330
1F
100
AcDbEntity
  8
MODELSKETCH_VISIBLE
100
AcDbLine
 10
-52.9953695805226
 20
2.720448456895397
 30
0.0
 11
-52.9953695805226
 21
-2.894086850968768
 31
0.0
  0
SPLINE
  5
1000026C
102
{ACAD_XDICTIONARY
360
1000026D
102
}
330
1F
100
AcDbEntity
  8
MODELSKETCH_VISIBLE
100
AcDbSpline
210
0.0
220
0.0
230
1.0
 70
     8
 71
     2
 72
     6
 73
     3
 74
     0
 42
0.000000001
 43
0.00000001
 40
0.0
 40
0.0
 40
0.0
 40
1.0
 40
1.0
 40
1.0
 10
-52.9953695805226
 20
-2.894086850968768
 30
0.0
 10
-52.9953695805226
 20
-4.960459510676133
 30
0.0
 10
-51.12216336870915
 20
-4.960459510676133
 30
0.0
  0
SPLINE
  5
1000026F
102
{ACAD_XDICTIONARY
360
10000270
102
}
330
1F
100
AcDbEntity
  8
MODELSKETCH_VISIBLE
100
AcDbSpline
210
0.0
220
0.0
230
1.0
 70
     8
 71
     2
 72
     6
 73
     3
 74
     0
 42
0.000000001
 43
0.00000001
 40
0.0
 40
0.0
 40
0.0
 40
1.0
 40
1.0
 40
1.0
 10
-51.12216336870915
 20
-4.960459510676133
 30
0.0
 10
-49.84370648330595
 20
-4.960459510676133
 30
0.0
 10
-49.25531131636591
 20
-4.22464784402757
 30
0.0
  0
SPLINE
  5
10000272
102
{ACAD_XDICTIONARY
360
10000273
102
}
330
1F
100
AcDbEntity
  8
MODELSKETCH_VISIBLE
100
AcDbSpline
210
0.0
220
0.0
230
1.0
 70
     8
 71
     2
 72
     6
 73
     3
 74
     0
 42
0.000000001
 43
0.00000001
 40
0.0
 40
0.0
 40
0.0
 40
1.0
 40
1.0
 40
1.0
 10
-49.25531131636591
 20
-4.22464784402757
 30
0.0
 10
-48.66691614942587
 20
-3.488836177379007
 30
0.0
 10
-48.66691614942587
 20
-1.806254749671412
 30
0.0
  0
LINE
  5
10000275
102
{ACAD_XDICTIONARY
360
10000276
102
}
330
1F
100
AcDbEntity
  8
MODELSKETCH_VISIBLE
100
AcDbLine
 10
-48.66691614942587
 20
-1.806254749671412
 30
0.0
 11
-48.66691614942587
 21
2.720448456895396
 31
0.0
  0
LINE
  5
10000278
102
{ACAD_XDICTIONARY
360
10000279
102
}
330
1F
100
AcDbEntity
  8
MODELSKETCH_VISIBLE
100
AcDbLine
 10
-48.66691614942587
 20
2.720448456895395
 30
0.0
 11
-47.22070945400952
 21
2.720448456895395
 31
0.0
  0
LINE
  5
1000027B
102
{ACAD_XDICTIONARY
360
1000027C
102
}
330
1F
100
AcDbEntity
  8
MODELSKETCH_VISIBLE
100
AcDbLine
 10
-47.22070945400952
 20
2.720448456895396
 30
0.0
 11
-47.22070945400952
 21
-6.00000000000001
 31
0.0
  0
LINE
  5
1000027E
102
{ACAD_XDICTIONARY
360
1000027F
102
}
330
1F
100
AcDbEntity
  8
MODELSKETCH_VISIBLE
100
AcDbLine
 10
-47.22070945400952
 20
-6.00000000000001
 30
0.0
 11
-48.38987479652538
 21
-6.00000000000001
 31
0.0
  0
LINE
  5
10000281
102
{ACAD_XDICTIONARY
360
10000282
102
}
330
1F
100
AcDbEntity
  8
MODELSKETCH_VISIBLE
100
AcDbLine
 10
-38.19017801496861
 20
-6.000000000000011
 30
0.0
 11
-38.19017801496861
 21
-0.3854646921358459
 31
0.0
  0
SPLINE
  5
10000284
102
{ACAD_XDICTIONARY
360
10000285
102
}
330
1F
100
AcDbEntity
  8
MODELSKETCH_VISIBLE
100
AcDbSpline
210
0.0
220
0.0
230
1.0
 70
     8
 71
     2
 72
     6
 73
     3
 74
     0
 42
0.000000001
 43
0.00000001
 40
0.0
 40
0.0
 40
0.0
 40
1.0
 40
1.0
 40
1.0
 10
-38.19017801496861
 20
-0.3854646921358454
 30
0.0
 10
-38.19017801496861
 20
0.7760756590157727
 30
0.0
 10
-38.39986527748503
 20
1.228491813293646
 30
0.0
  0
SPLINE
  5
10000287
102
{ACAD_XDICTIONARY
360
10000288
102
}
330
1F
100
AcDbEntity
  8
MODELSKETCH_VISIBLE
100
AcDbSpline
210
0.0
220
0.0
230
1.0
 70
     8
 71
     2
 72
     6
 73
     3
 74
     0
 42
0.000000001
 43
0.00000001
 40
0.0
 40
0.0
 40
0.0
 40
1.0
 40
1.0
 40
1.0
 10
-38.39986527748503
 20
1.228491813293646
 30
0.0
 10
-38.60955254000147
 20
1.680907967571518
 30
0.0
 10
-39.10263531488859
 20
1.680907967571518
 30
0.0
  0
SPLINE
  5
1000028A
102
{ACAD_XDICTIONARY
360
1000028B
102
}
330
1F
100
AcDbEntity
  8
MODELSKETCH_VISIBLE
100
AcDbSpline
210
0.0
220
0.0
230
1.0
 70
     8
 71
     2
 72
     6
 73
     3
 74
     0
 42
0.000000001
 43
0.00000001
 40
0.0
 40
0.0
 40
0.0
 40
1.0
 40
1.0
 40
1.0
 10
-39.10263531488859
 20
1.680907967571518
 30
0.0
 10
-39.79396786524578
 20
1.680907967571518
 30
0.0
 10
-40.10786334307341
 20
1.021346214565294
 30
0.0
  0
SPLINE
  5
1000028D
102
{ACAD_XDICTIONARY
360
1000028E
102
}
330
1F
100
AcDbEntity
  8
MODELSKETCH_VISIBLE
100
AcDbSpline
210
0.0
220
0.0
230
1.0
 70
     8
 71
     2
 72
     6
 73
     3
 74
     0
 42
0.000000001
 43
0.00000001
 40
0.0
 40
0.0
 40
0.0
 40
1.0
 40
1.0
 40
1.0
 10
-40.10786334307341
 20
1.021346214565294
 30
0.0
 10
-40.42175882090104
 20
0.3617844615590683
 30
0.0
 10
-40.42175882090104
 20
-1.186088785380395
 30
0.0
  0
LINE
  5
10000290
102
{ACAD_XDICTIONARY
360
10000291
102
}
330
1F
100
AcDbEntity
  8
MODELSKETCH_VISIBLE
100
AcDbLine
 10
-40.42175882090104
 20
-1.186088785380395
 30
0.0
 11
-40.42175882090104
 21
-6.000000000000011
 31
0.0
  0
LINE
  5
10000293
102
{ACAD_XDICTIONARY
360
10000294
102
}
330
1F
100
AcDbEntity
  8
MODELSKETCH_VISIBLE
100
AcDbLine
 10
-40.42175882090104
 20
-6.000000000000011
 30
0.0
 11
-41.70021570630423
 21
-6.000000000000011
 31
0.0
  0
LINE
  5
10000296
102
{ACAD_XDICTIONARY
360
10000297
102
}
330
1F
100
AcDbEntity
  8
MODELSKETCH_VISIBLE
100
AcDbLine
 10
-41.70021570630423
 20
-6.000000000000011
 30
0.0
 11
-41.70021570630423
 21
-0.3854646921358454
 31
0.0
  0
SPLINE
  5
10000299
102
{ACAD_XDICTIONARY
360
1000029A
102
}
330
1F
100
AcDbEntity
  8
MODELSKETCH_VISIBLE
100
AcDbSpline
210
0.0
220
0.0
230
1.0
 70
     8
 71
     2
 72
     6
 73
     3
 74
     0
 42
0.000000001
 43
0.00000001
 40
0.0
 40
0.0
 40
0.0
 40
1.0
 40
1.0
 40
1.0
 10
-41.70021570630423
 20
-0.3854646921358454
 30
0.0
 10
-41.70021570630423
 20
1.680907967571518
 30
0.0
 10
-42.69400624744272
 20
1.680907967571518
 30
0.0
  0
SPLINE
  5
1000029C
102
{ACAD_XDICTIONARY
360
1000029D
102
}
330
1F
100
AcDbEntity
  8
MODELSKETCH_VISIBLE
100
AcDbSpline
210
0.0
220
0.0
230
1.0
 70
     8
 71
     2
 72
     6
 73
     3
 74
     0
 42
0.000000001
 43
0.00000001
 40
0.0
 40
0.0
 40
0.0
 40
1.0
 40
1.0
 40
1.0
 10
-42.69400624744272
 20
1.680907967571518
 30
0.0
 10
-43.35992215991913
 20
1.680907967571518
 30
0.0
 10
-43.6458593360779
 20
1.049304516234151
 30
0.0
  0
SPLINE
  5
1000029F
102
{ACAD_XDICTIONARY
360
100002A0
102
}
330
1F
100
AcDbEntity
  8
MODELSKETCH_VISIBLE
100
AcDbSpline
210
0.0
220
0.0
230
1.0
 70
     8
 71
     2
 72
     6
 73
     3
 74
     0
 42
0.000000001
 43
0.00000001
 40
0.0
 40
0.0
 40
0.0
 40
1.0
 40
1.0
 40
1.0
 10
-43.6458593360779
 20
1.049304516234151
 30
0.0
 10
-43.93179651223667
 20
0.4177010648967836
 30
0.0
 10
-43.93179651223667
 20
-1.480921784797437
 30
0.0
  0
LINE
  5
100002A2
102
{ACAD_XDICTIONARY
360
100002A3
102
}
330
1F
100
AcDbEntity
  8
MODELSKETCH_VISIBLE
100
AcDbLine
 10
-43.93179651223667
 20
-1.480921784797436
 30
0.0
 11
-43.93179651223667
 21
-6.000000000000011
 31
0.0
  0
LINE
  5
100002A5
102
{ACAD_XDICTIONARY
360
100002A6
102
}
330
1F
100
AcDbEntity
  8
MODELSKETCH_VISIBLE
100
AcDbLine
 10
-43.93179651223667
 20
-6.000000000000011
 30
0.0
 11
-45.21787838900411
 21
-6.000000000000011
 31
0.0
  0
LINE
  5
100002A8
102
{ACAD_XDICTIONARY
360
100002A9
102
}
330
1F
100
AcDbEntity
  8
MODELSKETCH_VISIBLE
100
AcDbLine
 10
-45.21787838900411
 20
-6.00000000000001
 30
0.0
 11
-45.21787838900411
 21
2.720448456895396
 31
0.0
  0
LINE
  5
100002AB
102
{ACAD_XDICTIONARY
360
100002AC
102
}
330
1F
100
AcDbEntity
  8
MODELSKETCH_VISIBLE
100
AcDbLine
 10
-45.21787838900411
 20
2.720448456895395
 30
0.0
 11
-44.21137952892524
 21
2.720448456895395
 31
0.0
  0
LINE
  5
100002AE
102
{ACAD_XDICTIONARY
360
100002AF
102
}
330
1F
100
AcDbEntity
  8
MODELSKETCH_VISIBLE
100
AcDbLine
 10
-44.21137952892524
 20
2.720448456895392
 30
0.0
 11
-43.99533810693861
 21
1.546199786803387
 31
0.0
  0
LINE
  5
100002B1
102
{ACAD_XDICTIONARY
360
100002B2
102
}
330
1F
100
AcDbEntity
  8
MODELSKETCH_VISIBLE
100
AcDbLine
 10
-43.99533810693862
 20
1.546199786803388
 30
0.0
 11
-43.9165465295082
 21
1.546199786803388
 31
0.0
  0
SPLINE
  5
100002B4
102
{ACAD_XDICTIONARY
360
100002B5
102
}
330
1F
100
AcDbEntity
  8
MODELSKETCH_VISIBLE
100
AcDbSpline
210
0.0
220
0.0
230
1.0
 70
     8
 71
     2
 72
     6
 73
     3
 74
     0
 42
0.000000001
 43
0.00000001
 40
0.0
 40
0.0
 40
0.0
 40
1.0
 40
1.0
 40
1.0
 10
-43.9165465295082
 20
1.546199786803388
 30
0.0
 10
-43.38533879779991
 20
2.880573275544305
 30
0.0
 10
-42.32038167059526
 20
2.880573275544305
 30
0.0
  0
SPLINE
  5
100002B7
102
{ACAD_XDICTIONARY
360
100002B8
102
}
330
1F
100
AcDbEntity
  8
MODELSKETCH_VISIBLE
100
AcDbSpline
210
0.0
220
0.0
230
1.0
 70
     8
 71
     2
 72
     6
 73
     3
 74
     0
 42
0.000000001
 43
0.00000001
 40
0.0
 40
0.0
 40
0.0
 40
1.0
 40
1.0
 40
1.0
 10
-42.32038167059526
 20
2.880573275544305
 30
0.0
 10
-41.02413313867551
 20
2.880573275544305
 30
0.0
 10
-40.62763358773535
 20
1.434366580127958
 30
0.0
  0
LINE
  5
100002BA
102
{ACAD_XDICTIONARY
360
100002BB
102
}
330
1F
100
AcDbEntity
  8
MODELSKETCH_VISIBLE
100
AcDbLine
 10
-40.62763358773535
 20
1.434366580127958
 30
0.0
 11
-40.57934197576186
 21
1.434366580127958
 31
0.0
  0
SPLINE
  5
100002BD
102
{ACAD_XDICTIONARY
360
100002BE
102
}
330
1F
100
AcDbEntity
  8
MODELSKETCH_VISIBLE
100
AcDbSpline
210
0.0
220
0.0
230
1.0
 70
     8
 71
     2
 72
     6
 73
     3
 74
     0
 42
0.000000001
 43
0.00000001
 40
0.0
 40
0.0
 40
0.0
 40
1.0
 40
1.0
 40
1.0
 10
-40.57934197576186
 20
1.434366580127958
 30
0.0
 10
-39.97696765798739
 20
2.880573275544305
 30
0.0
 10
-38.84084394471655
 20
2.880573275544305
 30
0.0
  0
SPLINE
  5
100002C0
102
{ACAD_XDICTIONARY
360
100002C1
102
}
330
1F
100
AcDbEntity
  8
MODELSKETCH_VISIBLE
100
AcDbSpline
210
0.0
220
0.0
230
1.0
 70
     8
 71
     2
 72
     6
 73
     3
 74
     0
 42
0.000000001
 43
0.00000001
 40
0.0
 40
0.0
 40
0.0
 40
1.0
 40
1.0
 40
1.0
 10
-38.84084394471655
 20
2.880573275544305
 30
0.0
 10
-37.82417842948539
 20
2.880573275544305
 30
0.0
 10
-37.36413728384328
 20
2.146032440789781
 30
0.0
  0
SPLINE
  5
100002C3
102
{ACAD_XDICTIONARY
360
100002C4
102
}
330
1F
100
AcDbEntity
  8
MODELSKETCH_VISIBLE
100
AcDbSpline
210
0.0
220
0.0
230
1.0
 70
     8
 71
     2
 72
     6
 73
     3
 74
     0
 42
0.000000001
 43
0.00000001
 40
0.0
 40
0.0
 40
0.0
 40
1.0
 40
1.0
 40
1.0
 10
-37.36413728384328
 20
2.146032440789781
 30
0.0
 10
-36.90409613820117
 20
1.411491606035256
 30
0.0
 10
-36.90409613820117
 20
-0.3041314509173521
 30
0.0
  0
LINE
  5
100002C6
102
{ACAD_XDICTIONARY
360
100002C7
102
}
330
1F
100
AcDbEntity
  8
MODELSKETCH_VISIBLE
100
AcDbLine
 10
-36.90409613820117
 20
-0.3041314509173517
 30
0.0
 11
-36.90409613820117
 21
-6.000000000000011
 31
0.0
  0
LINE
  5
100002C9
102
{ACAD_XDICTIONARY
360
100002CA
102
}
330
1F
100
AcDbEntity
  8
MODELSKETCH_VISIBLE
100
AcDbLine
 10
-36.90409613820117
 20
-6.000000000000012
 30
0.0
 11
-38.19017801496861
 21
-6.000000000000012
 31
0.0
  0
LINE
  5
100002CC
102
{ACAD_XDICTIONARY
360
100002CD
102
}
330
1F
100
AcDbEntity
  8
MODELSKETCH_VISIBLE
100
AcDbLine
 10
-27.48214847579625
 20
-1.918087956346844
 30
0.0
 11
-33.63043317915679
 21
-1.918087956346843
 31
0.0
  0
SPLINE
  5
100002CF
102
{ACAD_XDICTIONARY
360
100002D0
102
}
330
1F
100
AcDbEntity
  8
MODELSKETCH_VISIBLE
100
AcDbSpline
210
0.0
220
0.0
230
1.0
 70
     8
 71
     2
 72
     6
 73
     3
 74
     0
 42
0.000000001
 43
0.00000001
 40
0.0
 40
0.0
 40
0.0
 40
1.0
 40
1.0
 40
1.0
 10
-33.63043317915679
 20
-1.918087956346843
 30
0.0
 10
-33.56689158445484
 20
-4.896917915974186
 30
0.0
 10
-30.898144606973
 20
-4.896917915974186
 30
0.0
  0
SPLINE
  5
100002D2
102
{ACAD_XDICTIONARY
360
100002D3
102
}
330
1F
100
AcDbEntity
  8
MODELSKETCH_VISIBLE
100
AcDbSpline
210
0.0
220
0.0
230
1.0
 70
     8
 71
     2
 72
     6
 73
     3
 74
     0
 42
0.000000001
 43
0.00000001
 40
0.0
 40
0.0
 40
0.0
 40
1.0
 40
1.0
 40
1.0
 10
-30.898144606973
 20
-4.896917915974186
 30
0.0
 10
-29.34772969624546
 20
-4.896917915974186
 30
0.0
 10
-27.95743960416683
 20
-4.292001934411638
 30
0.0
  0
LINE
  5
100002D5
102
{ACAD_XDICTIONARY
360
100002D6
102
}
330
1F
100
AcDbEntity
  8
MODELSKETCH_VISIBLE
100
AcDbLine
 10
-27.95743960416683
 20
-4.292001934411638
 30
0.0
 11
-27.95743960416683
 21
-5.562833828450607
 31
0.0
  0
SPLINE
  5
100002D8
102
{ACAD_XDICTIONARY
360
100002D9
102
}
330
1F
100
AcDbEntity
  8
MODELSKETCH_VISIBLE
100
AcDbSpline
210
0.0
220
0.0
230
1.0
 70
     8
 71
     2
 72
     6
 73
     3
 74
     0
 42
0.000000001
 43
0.00000001
 40
0.0
 40
0.0
 40
0.0
 40
1.0
 40
1.0
 40
1.0
 10
-27.95743960416683
 20
-5.562833828450606
 30
0.0
 10
-29.27656311017927
 20
-6.160124818648923
 30
0.0
 10
-30.84985299499952
 20
-6.160124818648922
 30
0.0
  0
SPLINE
  5
100002DB
102
{ACAD_XDICTIONARY
360
100002DC
102
}
330
1F
100
AcDbEntity
  8
MODELSKETCH_VISIBLE
100
AcDbSpline
210
0.0
220
0.0
230
1.0
 70
     8
 71
     2
 72
     6
 73
     3
 74
     0
 42
0.000000001
 43
0.00000001
 40
0.0
 40
0.0
 40
0.0
 40
1.0
 40
1.0
 40
1.0
 10
-30.84985299499952
 20
-6.160124818648922
 30
0.0
 10
-32.79676745666723
 20
-6.160124818648922
 30
0.0
 10
-33.963391135395
 20
-4.971896997722485
 30
0.0
  0
SPLINE
  5
100002DE
102
{ACAD_XDICTIONARY
360
100002DF
102
}
330
1F
100
AcDbEntity
  8
MODELSKETCH_VISIBLE
100
AcDbSpline
210
0.0
220
0.0
230
1.0
 70
     8
 71
     2
 72
     6
 73
     3
 74
     0
 42
0.000000001
 43
0.00000001
 40
0.0
 40
0.0
 40
0.0
 40
1.0
 40
1.0
 40
1.0
 10
-33.963391135395
 20
-4.971896997722485
 30
0.0
 10
-35.13001481412277
 20
-3.78366917679605
 30
0.0
 10
-35.13001481412277
 20
-1.702046534360218
 30
0.0
  0
SPLINE
  5
100002E1
102
{ACAD_XDICTIONARY
360
100002E2
102
}
330
1F
100
AcDbEntity
  8
MODELSKETCH_VISIBLE
100
AcDbSpline
210
0.0
220
0.0
230
1.0
 70
     8
 71
     2
 72
     6
 73
     3
 74
     0
 42
0.000000001
 43
0.00000001
 40
0.0
 40
0.0
 40
0.0
 40
1.0
 40
1.0
 40
1.0
 10
-35.13001481412277
 20
-1.702046534360218
 30
0.0
 10
-35.13001481412277
 20
0.4100760735325487
 30
0.0
 10
-34.05362019987177
 20
1.645324674538426
 30
0.0
  0
SPLINE
  5
100002E4
102
{ACAD_XDICTIONARY
360
100002E5
102
}
330
1F
100
AcDbEntity
  8
MODELSKETCH_VISIBLE
100
AcDbSpline
210
0.0
220
0.0
230
1.0
 70
     8
 71
     2
 72
     6
 73
     3
 74
     0
 42
0.000000001
 43
0.00000001
 40
0.0
 40
0.0
 40
0.0
 40
1.0
 40
1.0
 40
1.0
 10
-34.05362019987177
 20
1.645324674538426
 30
0.0
 10
-32.97722558562075
 20
2.880573275544303
 30
0.0
 10
-31.1751859598735
 20
2.880573275544303
 30
0.0
  0
SPLINE
  5
100002E7
102
{ACAD_XDICTIONARY
360
100002E8
102
}
330
1F
100
AcDbEntity
  8
MODELSKETCH_VISIBLE
100
AcDbSpline
210
0.0
220
0.0
230
1.0
 70
     8
 71
     2
 72
     6
 73
     3
 74
     0
 42
0.000000001
 43
0.00000001
 40
0.0
 40
0.0
 40
0.0
 40
1.0
 40
1.0
 40
1.0
 10
-31.1751859598735
 20
2.880573275544303
 30
0.0
 10
-29.4926045321659
 20
2.880573275544303
 30
0.0
 10
-28.48737650398107
 20
1.815616148339647
 30
0.0
  0
ENDSEC
  0
SECTION
  2
OBJECTS
  0
DICTIONARY
  5
C
330
0
100
AcDbDictionary
  3
ACAD_GROUP
350
D
  3
ACAD_LAYOUT
350
1A
  3
ACAD_MATERIAL
350
43
  3
ACAD_MLEADERSTYLE
350
6B
  3
ACAD_MLINESTYLE
350
17
  3
ACAD_PLOTSETTINGS
350
19
  3
ACAD_SCALELIST
350
47
  3
ACAD_VISUALSTYLE
350
2A
  3
ACDBHEADERROUNDTRIPXREC
350
100002EC
  3
ACDBVARIABLEDICTIONARY
350
1000030D
  3
DWGPROPS
350
10000314
  3
ONSHAPE_DATA
350
10000001
  0
DICTIONARY
  5
10000315
330
8
100
AcDbDictionary
280
     1
  3
ACAD_XREC_ROUNDTRIP
360
10000316
  0
DICTIONARY
  5
100002EA
330
1F
100
AcDbDictionary
280
     1
  3
ACAD_SORTENTS
360
100002EB
  0
DICTIONARY
  5
10000051
330
10000050
100
AcDbDictionary
280
     1
  3
BTDETID
360
10000052
  0
DICTIONARY
  5
10000054
330
10000053
100
AcDbDictionary
280
     1
  3
BTDETID
360
10000055
  0
DICTIONARY
  5
10000057
330
10000056
100
AcDbDictionary
280
     1
  3
BTDETID
360
10000058
  0
DICTIONARY
  5
1000005A
330
10000059
100
AcDbDictionary
280
     1
  3
BTDETID
360
1000005B
  0
DICTIONARY
  5
1000005D
330
1000005C
100
AcDbDictionary
280
     1
  3
BTDETID
360
1000005E
  0
DICTIONARY
  5
10000060
330
1000005F
100
AcDbDictionary
280
     1
  3
BTDETID
360
10000061
  0
DICTIONARY
  5
10000063
330
10000062
100
AcDbDictionary
280
     1
  3
BTDETID
360
10000064
  0
DICTIONARY
  5
10000066
330
10000065
100
AcDbDictionary
280
     1
  3
BTDETID
360
10000067
  0
DICTIONARY
  5
10000069
330
10000068
100
AcDbDictionary
280
     1
  3
BTDETID
360
1000006A
  0
DICTIONARY
  5
1000006C
330
1000006B
100
AcDbDictionary
280
     1
  3
BTDETID
360
1000006D
  0
DICTIONARY
  5
1000006F
330
1000006E
100
AcDbDictionary
280
     1
  3
BTDETID
360
10000070
  0
DICTIONARY
  5
10000072
330
10000071
100
AcDbDictionary
280
     1
  3
BTDETID
360
10000073
  0
DICTIONARY
  5
10000075
330
10000074
100
AcDbDictionary
280
     1
  3
BTDETID
360
10000076
  0
DICTIONARY
  5
10000078
330
10000077
100
AcDbDictionary
280
     1
  3
BTDETID
360
10000079
  0
DICTIONARY
  5
1000007B
330
1000007A
100
AcDbDictionary
280
     1
  3
BTDETID
360
1000007C
  0
DICTIONARY
  5
1000007E
330
1000007D
100
AcDbDictionary
280
     1
  3
BTDETID
360
1000007F
  0
DICTIONARY
  5
10000081
330
10000080
100
AcDbDictionary
280
     1
  3
BTDETID
360
10000082
  0
DICTIONARY
  5
10000084
330
10000083
100
AcDbDictionary
280
     1
  3
BTDETID
360
10000085
  0
DICTIONARY
  5
10000087
330
10000086
100
AcDbDictionary
280
     1
  3
BTDETID
360
10000088
  0
DICTIONARY
  5
1000008A
330
10000089
100
AcDbDictionary
280
     1
  3
BTDETID
360
1000008B
  0
DICTIONARY
  5
1000008D
330
1000008C
100
AcDbDictionary
280
     1
  3
BTDETID
360
1000008E
  0
DICTIONARY
  5
10000090
330
1000008F
100
AcDbDictionary
280
     1
  3
BTDETID
360
10000091
  0
DICTIONARY
  5
10000093
330
10000092
100
AcDbDictionary
280
     1
  3
BTDETID
360
10000094
  0
DICTIONARY
  5
10000096
330
10000095
100
AcDbDictionary
280
     1
  3
BTDETID
360
10000097
  0
DICTIONARY
  5
10000099
330
10000098
100
AcDbDictionary
280
     1
  3
BTDETID
360
1000009A
  0
DICTIONARY
  5
1000009C
330
1000009B
100
AcDbDictionary
280
     1
  3
BTDETID
360
1000009D
  0
DICTIONARY
  5
1000009F
330
1000009E
100
AcDbDictionary
280
     1
  3
BTDETID
360
100000A0
  0
DICTIONARY
  5
100000A2
330
100000A1
100
AcDbDictionary
280
     1
  3
BTDETID
360
100000A3
  0
DICTIONARY
  5
100000A5
330
100000A4
100
AcDbDictionary
280
     1
  3
BTDETID
360
100000A6
  0
DICTIONARY
  5
100000A8
330
100000A7
100
AcDbDictionary
280
     1
  3
BTDETID
360
100000A9
  0
DICTIONARY
  5
100000AB
330
100000AA
100
AcDbDictionary
280
     1
  3
BTDETID
360
100000AC
  0
DICTIONARY
  5
100000AE
330
100000AD
100
AcDbDictionary
280
     1
  3
BTDETID
360
100000AF
  0
DICTIONARY
  5
100000B1
330
100000B0
100
AcDbDictionary
280
     1
  3
BTDETID
360
100000B2
  0
DICTIONARY
  5
100000B4
330
100000B3
100
AcDbDictionary
280
     1
  3
BTDETID
360
100000B5
  0
DICTIONARY
  5
100000B7
330
100000B6
100
AcDbDictionary
280
     1
  3
BTDETID
360
100000B8
  0
DICTIONARY
  5
100000BA
330
100000B9
100
AcDbDictionary
280
     1
  3
BTDETID
360
100000BB
  0
DICTIONARY
  5
100000BD
330
100000BC
100
AcDbDictionary
280
     1
  3
BTDETID
360
100000BE
  0
DICTIONARY
  5
100000C0
330
100000BF
100
AcDbDictionary
280
     1
  3
BTDETID
360
100000C1
  0
DICTIONARY
  5
100000C3
330
100000C2
100
AcDbDictionary
280
     1
  3
BTDETID
360
100000C4
  0
DICTIONARY
  5
100000C6
330
100000C5
100
AcDbDictionary
280
     1
  3
BTDETID
360
100000C7
  0
DICTIONARY
  5
100000C9
330
100000C8
100
AcDbDictionary
280
     1
  3
BTDETID
360
100000CA
  0
DICTIONARY
  5
100000CC
330
100000CB
100
AcDbDictionary
280
     1
  3
BTDETID
360
100000CD
  0
DICTIONARY
  5
100000CF
330
100000CE
100
AcDbDictionary
280
     1
  3
BTDETID
360
100000D0
  0
DICTIONARY
  5
100000D2
330
100000D1
100
AcDbDictionary
280
     1
  3
BTDETID
360
100000D3
  0
DICTIONARY
  5
100000D5
330
100000D4
100
AcDbDictionary
280
     1
  3
BTDETID
360
100000D6
  0
DICTIONARY
  5
100000D8
330
100000D7
100
AcDbDictionary
280
     1
  3
BTDETID
360
100000D9
  0
DICTIONARY
  5
100000DB
330
100000DA
100
AcDbDictionary
280
     1
  3
BTDETID
360
100000DC
  0
DICTIONARY
  5
100000DE
330
100000DD
100
AcDbDictionary
280
     1
  3
BTDETID
360
100000DF
  0
DICTIONARY
  5
100000E1
330
100000E0
100
AcDbDictionary
280
     1
  3
BTDETID
360
100000E2
  0
DICTIONARY
  5
100000E4
330
100000E3
100
AcDbDictionary
280
     1
  3
BTDETID
360
100000E5
  0
DICTIONARY
  5
100000E7
330
100000E6
100
AcDbDictionary
280
     1
  3
BTDETID
360
100000E8
  0
DICTIONARY
  5
100000EA
330
100000E9
100
AcDbDictionary
280
     1
  3
BTDETID
360
100000EB
  0
DICTIONARY
  5
100000ED
330
100000EC
100
AcDbDictionary
280
     1
  3
BTDETID
360
100000EE
  0
DICTIONARY
  5
100000F0
330
100000EF
100
AcDbDictionary
280
     1
  3
BTDETID
360
100000F1
  0
DICTIONARY
  5
100000F3
330
100000F2
100
AcDbDictionary
280
     1
  3
BTDETID
360
100000F4
  0
DICTIONARY
  5
100000F6
330
100000F5
100
AcDbDictionary
280
     1
  3
BTDETID
360
100000F7
  0
DICTIONARY
  5
100000F9
330
100000F8
100
AcDbDictionary
280
     1
  3
BTDETID
360
100000FA
  0
DICTIONARY
  5
100000FC
330
100000FB
100
AcDbDictionary
280
     1
  3
BTDETID
360
100000FD
  0
DICTIONARY
  5
100000FF
330
100000FE
100
AcDbDictionary
280
     1
  3
BTDETID
360
10000100
  0
DICTIONARY
  5
10000102
330
10000101
100
AcDbDictionary
280
     1
  3
BTDETID
360
10000103
  0
DICTIONARY
  5
10000105
330
10000104
100
AcDbDictionary
280
     1
  3
BTDETID
360
10000106
  0
DICTIONARY
  5
10000108
330
10000107
100
AcDbDictionary
280
     1
  3
BTDETID
360
10000109
  0
DICTIONARY
  5
1000010B
330
1000010A
100
AcDbDictionary
280
     1
  3
BTDETID
360
1000010C
  0
DICTIONARY
  5
1000010E
330
1000010D
100
AcDbDictionary
280
     1
  3
BTDETID
360
1000010F
  0
DICTIONARY
  5
10000111
330
10000110
100
AcDbDictionary
280
     1
  3
BTDETID
360
10000112
  0
DICTIONARY
  5
10000114
330
10000113
100
AcDbDictionary
280
     1
  3
BTDETID
360
10000115
  0
DICTIONARY
  5
10000117
330
10000116
100
AcDbDictionary
280
     1
  3
BTDETID
360
10000118
  0
DICTIONARY
  5
1000011A
330
10000119
100
AcDbDictionary
280
     1
  3
BTDETID
360
1000011B
  0
DICTIONARY
  5
1000011D
330
1000011C
100
AcDbDictionary
280
     1
  3
BTDETID
360
1000011E
  0
DICTIONARY
  5
10000120
330
1000011F
100
AcDbDictionary
280
     1
  3
BTDETID
360
10000121
  0
DICTIONARY
  5
10000123
330
10000122
100
AcDbDictionary
280
     1
  3
BTDETID
360
10000124
  0
DICTIONARY
  5
10000126
330
10000125
100
AcDbDictionary
280
     1
  3
BTDETID
360
10000127
  0
DICTIONARY
  5
10000129
330
10000128
100
AcDbDictionary
280
     1
  3
BTDETID
360
1000012A
  0
DICTIONARY
  5
1000012C
330
1000012B
100
AcDbDictionary
280
     1
  3
BTDETID
360
1000012D
  0
DICTIONARY
  5
1000012F
330
1000012E
100
AcDbDictionary
280
     1
  3
BTDETID
360
10000130
  0
DICTIONARY
  5
10000132
330
10000131
100
AcDbDictionary
280
     1
  3
BTDETID
360
10000133
  0
DICTIONARY
  5
10000135
330
10000134
100
AcDbDictionary
280
     1
  3
BTDETID
360
10000136
  0
DICTIONARY
  5
10000138
330
10000137
100
AcDbDictionary
280
     1
  3
BTDETID
360
10000139
  0
DICTIONARY
  5
1000013B
330
1000013A
100
AcDbDictionary
280
     1
  3
BTDETID
360
1000013C
  0
DICTIONARY
  5
1000013E
330
1000013D
100
AcDbDictionary
280
     1
  3
BTDETID
360
1000013F
  0
DICTIONARY
  5
10000141
330
10000140
100
AcDbDictionary
280
     1
  3
BTDETID
360
10000142
  0
DICTIONARY
  5
10000144
330
10000143
100
AcDbDictionary
280
     1
  3
BTDETID
360
10000145
  0
DICTIONARY
  5
10000147
330
10000146
100
AcDbDictionary
280
     1
  3
BTDETID
360
10000148
  0
DICTIONARY
  5
1000014A
330
10000149
100
AcDbDictionary
280
     1
  3
BTDETID
360
1000014B
  0
DICTIONARY
  5
1000014D
330
1000014C
100
AcDbDictionary
280
     1
  3
BTDETID
360
1000014E
  0
DICTIONARY
  5
10000150
330
1000014F
100
AcDbDictionary
280
     1
  3
BTDETID
360
10000151
  0
DICTIONARY
  5
10000153
330
10000152
100
AcDbDictionary
280
     1
  3
BTDETID
360
10000154
  0
DICTIONARY
  5
10000156
330
10000155
100
AcDbDictionary
280
     1
  3
BTDETID
360
10000157
  0
DICTIONARY
  5
10000159
330
10000158
100
AcDbDictionary
280
     1
  3
BTDETID
360
1000015A
  0
DICTIONARY
  5
1000015C
330
1000015B
100
AcDbDictionary
280
     1
  3
BTDETID
360
1000015D
  0
DICTIONARY
  5
1000015F
330
1000015E
100
AcDbDictionary
280
     1
  3
BTDETID
360
10000160
  0
DICTIONARY
  5
10000162
330
10000161
100
AcDbDictionary
280
     1
  3
BTDETID
360
10000163
  0
DICTIONARY
  5
10000165
330
10000164
100
AcDbDictionary
280
     1
  3
BTDETID
360
10000166
  0
DICTIONARY
  5
10000168
330
10000167
100
AcDbDictionary
280
     1
  3
BTDETID
360
10000169
  0
DICTIONARY
  5
1000016B
330
1000016A
100
AcDbDictionary
280
     1
  3
BTDETID
360
1000016C
  0
DICTIONARY
  5
1000016E
330
1000016D
100
AcDbDictionary
280
     1
  3
BTDETID
360
1000016F
  0
DICTIONARY
  5
10000171
330
10000170
100
AcDbDictionary
280
     1
  3
BTDETID
360
10000172
  0
DICTIONARY
  5
10000174
330
10000173
100
AcDbDictionary
280
     1
  3
BTDETID
360
10000175
  0
DICTIONARY
  5
10000177
330
10000176
100
AcDbDictionary
280
     1
  3
BTDETID
360
10000178
  0
DICTIONARY
  5
1000017A
330
10000179
100
AcDbDictionary
280
     1
  3
BTDETID
360
1000017B
  0
DICTIONARY
  5
1000017D
330
1000017C
100
AcDbDictionary
280
     1
  3
BTDETID
360
1000017E
  0
DICTIONARY
  5
10000180
330
1000017F
100
AcDbDictionary
280
     1
  3
BTDETID
360
10000181
  0
DICTIONARY
  5
10000183
330
10000182
100
AcDbDictionary
280
     1
  3
BTDETID
360
10000184
  0
DICTIONARY
  5
10000186
330
10000185
100
AcDbDictionary
280
     1
  3
BTDETID
360
10000187
  0
DICTIONARY
  5
10000189
330
10000188
100
AcDbDictionary
280
     1
  3
BTDETID
360
1000018A
  0
DICTIONARY
  5
1000018C
330
1000018B
100
AcDbDictionary
280
     1
  3
BTDETID
360
1000018D
  0
DICTIONARY
  5
1000018F
330
1000018E
100
AcDbDictionary
280
     1
  3
BTDETID
360
10000190
  0
DICTIONARY
  5
10000192
330
10000191
100
AcDbDictionary
280
     1
  3
BTDETID
360
10000193
  0
DICTIONARY
  5
10000195
330
10000194
100
AcDbDictionary
280
     1
  3
BTDETID
360
10000196
  0
DICTIONARY
  5
10000198
330
10000197
100
AcDbDictionary
280
     1
  3
BTDETID
360
10000199
  0
DICTIONARY
  5
1000019B
330
1000019A
100
AcDbDictionary
280
     1
  3
BTDETID
360
1000019C
  0
DICTIONARY
  5
1000019E
330
1000019D
100
AcDbDictionary
280
     1
  3
BTDETID
360
1000019F
  0
DICTIONARY
  5
100001A1
330
100001A0
100
AcDbDictionary
280
     1
  3
BTDETID
360
100001A2
  0
DICTIONARY
  5
100001A4
330
100001A3
100
AcDbDictionary
280
     1
  3
BTDETID
360
100001A5
  0
DICTIONARY
  5
100001A7
330
100001A6
100
AcDbDictionary
280
     1
  3
BTDETID
360
100001A8
  0
DICTIONARY
  5
100001AA
330
100001A9
100
AcDbDictionary
280
     1
  3
BTDETID
360
100001AB
  0
DICTIONARY
  5
100001AD
330
100001AC
100
AcDbDictionary
280
     1
  3
BTDETID
360
100001AE
  0
DICTIONARY
  5
100001B0
330
100001AF
100
AcDbDictionary
280
     1
  3
BTDETID
360
100001B1
  0
DICTIONARY
  5
100001B3
330
100001B2
100
AcDbDictionary
280
     1
  3
BTDETID
360
100001B4
  0
DICTIONARY
  5
100001B6
330
100001B5
100
AcDbDictionary
280
     1
  3
BTDETID
360
100001B7
  0
DICTIONARY
  5
100001B9
330
100001B8
100
AcDbDictionary
280
     1
  3
BTDETID
360
100001BA
  0
DICTIONARY
  5
100001BC
330
100001BB
100
AcDbDictionary
280
     1
  3
BTDETID
360
100001BD
  0
DICTIONARY
  5
100001BF
330
100001BE
100
AcDbDictionary
280
     1
  3
BTDETID
360
100001C0
  0
DICTIONARY
  5
100001C2
330
100001C1
100
AcDbDictionary
280
     1
  3
BTDETID
360
100001C3
  0
DICTIONARY
  5
100001C5
330
100001C4
100
AcDbDictionary
280
     1
  3
BTDETID
360
100001C6
  0
DICTIONARY
  5
100001C8
330
100001C7
100
AcDbDictionary
280
     1
  3
BTDETID
360
100001C9
  0
DICTIONARY
  5
100001CB
330
100001CA
100
AcDbDictionary
280
     1
  3
BTDETID
360
100001CC
  0
DICTIONARY
  5
100001CE
330
100001CD
100
AcDbDictionary
280
     1
  3
BTDETID
360
100001CF
  0
DICTIONARY
  5
100001D1
330
100001D0
100
AcDbDictionary
280
     1
  3
BTDETID
360
100001D2
  0
DICTIONARY
  5
100001D4
330
100001D3
100
AcDbDictionary
280
     1
  3
BTDETID
360
100001D5
  0
DICTIONARY
  5
100001D7
330
100001D6
100
AcDbDictionary
280
     1
  3
BTDETID
360
100001D8
  0
DICTIONARY
  5
100001DA
330
100001D9
100
AcDbDictionary
280
     1
  3
BTDETID
360
100001DB
  0
DICTIONARY
  5
100001DD
330
100001DC
100
AcDbDictionary
280
     1
  3
BTDETID
360
100001DE
  0
DICTIONARY
  5
100001E0
330
100001DF
100
AcDbDictionary
280
     1
  3
BTDETID
360
100001E1
  0
DICTIONARY
  5
100001E3
330
100001E2
100
AcDbDictionary
280
     1
  3
BTDETID
360
100001E4
  0
DICTIONARY
  5
100001E6
330
100001E5
100
AcDbDictionary
280
     1
  3
BTDETID
360
100001E7
  0
DICTIONARY
  5
100001E9
330
100001E8
100
AcDbDictionary
280
     1
  3
BTDETID
360
100001EA
  0
DICTIONARY
  5
100001EC
330
100001EB
100
AcDbDictionary
280
     1
  3
BTDETID
360
100001ED
  0
DICTIONARY
  5
100001EF
330
100001EE
100
AcDbDictionary
280
     1
  3
BTDETID
360
100001F0
  0
DICTIONARY
  5
100001F2
330
100001F1
100
AcDbDictionary
280
     1
  3
BTDETID
360
100001F3
  0
DICTIONARY
  5
100001F5
330
100001F4
100
AcDbDictionary
280
     1
  3
BTDETID
360
100001F6
  0
DICTIONARY
  5
100001F8
330
100001F7
100
AcDbDictionary
280
     1
  3
BTDETID
360
100001F9
  0
DICTIONARY
  5
100001FB
330
100001FA
100
AcDbDictionary
280
     1
  3
BTDETID
360
100001FC
  0
DICTIONARY
  5
100001FE
330
100001FD
100
AcDbDictionary
280
     1
  3
BTDETID
360
100001FF
  0
DICTIONARY
  5
10000201
330
10000200
100
AcDbDictionary
280
     1
  3
BTDETID
360
10000202
  0
DICTIONARY
  5
10000204
330
10000203
100
AcDbDictionary
280
     1
  3
BTDETID
360
10000205
  0
DICTIONARY
  5
10000207
330
10000206
100
AcDbDictionary
280
     1
  3
BTDETID
360
10000208
  0
DICTIONARY
  5
1000020A
330
10000209
100
AcDbDictionary
280
     1
  3
BTDETID
360
1000020B
  0
DICTIONARY
  5
1000020D
330
1000020C
100
AcDbDictionary
280
     1
  3
BTDETID
360
1000020E
  0
DICTIONARY
  5
10000210
330
1000020F
100
AcDbDictionary
280
     1
  3
BTDETID
360
10000211
  0
DICTIONARY
  5
10000213
330
10000212
100
AcDbDictionary
280
     1
  3
BTDETID
360
10000214
  0
DICTIONARY
  5
10000216
330
10000215
100
AcDbDictionary
280
     1
  3
BTDETID
360
10000217
  0
DICTIONARY
  5
10000219
330
10000218
100
AcDbDictionary
280
     1
  3
BTDETID
360
1000021A
  0
DICTIONARY
  5
1000021C
330
1000021B
100
AcDbDictionary
280
     1
  3
BTDETID
360
1000021D
  0
DICTIONARY
  5
1000021F
330
1000021E
100
AcDbDictionary
280
     1
  3
BTDETID
360
10000220
  0
DICTIONARY
  5
10000222
330
10000221
100
AcDbDictionary
280
     1
  3
BTDETID
360
10000223
  0
DICTIONARY
  5
10000225
330
10000224
100
AcDbDictionary
280
     1
  3
BTDETID
360
10000226
  0
DICTIONARY
  5
10000228
330
10000227
100
AcDbDictionary
280
     1
  3
BTDETID
360
10000229
  0
DICTIONARY
  5
1000022B
330
1000022A
100
AcDbDictionary
280
     1
  3
BTDETID
360
1000022C
  0
DICTIONARY
  5
1000022E
330
1000022D
100
AcDbDictionary
280
     1
  3
BTDETID
360
1000022F
  0
DICTIONARY
  5
10000231
330
10000230
100
AcDbDictionary
280
     1
  3
BTDETID
360
10000232
  0
DICTIONARY
  5
10000234
330
10000233
100
AcDbDictionary
280
     1
  3
BTDETID
360
10000235
  0
DICTIONARY
  5
10000237
330
10000236
100
AcDbDictionary
280
     1
  3
BTDETID
360
10000238
  0
DICTIONARY
  5
1000023A
330
10000239
100
AcDbDictionary
280
     1
  3
BTDETID
360
1000023B
  0
DICTIONARY
  5
1000023D
330
1000023C
100
AcDbDictionary
280
     1
  3
BTDETID
360
1000023E
  0
DICTIONARY
  5
10000240
330
1000023F
100
AcDbDictionary
280
     1
  3
BTDETID
360
10000241
  0
DICTIONARY
  5
10000243
330
10000242
100
AcDbDictionary
280
     1
  3
BTDETID
360
10000244
  0
DICTIONARY
  5
10000246
330
10000245
100
AcDbDictionary
280
     1
  3
BTDETID
360
10000247
  0
DICTIONARY
  5
10000249
330
10000248
100
AcDbDictionary
280
     1
  3
BTDETID
360
1000024A
  0
DICTIONARY
  5
1000024C
330
1000024B
100
AcDbDictionary
280
     1
  3
BTDETID
360
1000024D
  0
DICTIONARY
  5
1000024F
330
1000024E
100
AcDbDictionary
280
     1
  3
BTDETID
360
10000250
  0
DICTIONARY
  5
10000252
330
10000251
100
AcDbDictionary
280
     1
  3
BTDETID
360
10000253
  0
DICTIONARY
  5
10000255
330
10000254
100
AcDbDictionary
280
     1
  3
BTDETID
360
10000256
  0
DICTIONARY
  5
10000258
330
10000257
100
AcDbDictionary
280
     1
  3
BTDETID
360
10000259
  0
DICTIONARY
  5
1000025B
330
1000025A
100
AcDbDictionary
280
     1
  3
BTDETID
360
1000025C
  0
DICTIONARY
  5
1000025E
330
1000025D
100
AcDbDictionary
280
     1
  3
BTDETID
360
1000025F
  0
DICTIONARY
  5
10000261
330
10000260
100
AcDbDictionary
280
     1
  3
BTDETID
360
10000262
  0
DICTIONARY
  5
10000264
330
10000263
100
AcDbDictionary
280
     1
  3
BTDETID
360
10000265
  0
DICTIONARY
  5
10000267
330
10000266
100
AcDbDictionary
280
     1
  3
BTDETID
360
10000268
  0
DICTIONARY
  5
1000026A
330
10000269
100
AcDbDictionary
280
     1
  3
BTDETID
360
1000026B
  0
DICTIONARY
  5
1000026D
330
1000026C
100
AcDbDictionary
280
     1
  3
BTDETID
360
1000026E
  0
DICTIONARY
  5
10000270
330
1000026F
100
AcDbDictionary
280
     1
  3
BTDETID
360
10000271
  0
DICTIONARY
  5
10000273
330
10000272
100
AcDbDictionary
280
     1
  3
BTDETID
360
10000274
  0
DICTIONARY
  5
10000276
330
10000275
100
AcDbDictionary
280
     1
  3
BTDETID
360
10000277
  0
DICTIONARY
  5
10000279
330
10000278
100
AcDbDictionary
280
     1
  3
BTDETID
360
1000027A
  0
DICTIONARY
  5
1000027C
330
1000027B
100
AcDbDictionary
280
     1
  3
BTDETID
360
1000027D
  0
DICTIONARY
  5
1000027F
330
1000027E
100
AcDbDictionary
280
     1
  3
BTDETID
360
10000280
  0
DICTIONARY
  5
10000282
330
10000281
100
AcDbDictionary
280
     1
  3
BTDETID
360
10000283
  0
DICTIONARY
  5
10000285
330
10000284
100
AcDbDictionary
280
     1
  3
BTDETID
360
10000286
  0
DICTIONARY
  5
10000288
330
10000287
100
AcDbDictionary
280
     1
  3
BTDETID
360
10000289
  0
DICTIONARY
  5
1000028B
330
1000028A
100
AcDbDictionary
280
     1
  3
BTDETID
360
1000028C
  0
DICTIONARY
  5
1000028E
330
1000028D
100
AcDbDictionary
280
     1
  3
BTDETID
360
1000028F
  0
DICTIONARY
  5
10000291
330
10000290
100
AcDbDictionary
280
     1
  3
BTDETID
360
10000292
  0
DICTIONARY
  5
10000294
330
10000293
100
AcDbDictionary
280
     1
  3
BTDETID
360
10000295
  0
DICTIONARY
  5
10000297
330
10000296
100
AcDbDictionary
280
     1
  3
BTDETID
360
10000298
  0
DICTIONARY
  5
1000029A
330
10000299
100
AcDbDictionary
280
     1
  3
BTDETID
360
1000029B
  0
DICTIONARY
  5
1000029D
330
1000029C
100
AcDbDictionary
280
     1
  3
BTDETID
360
1000029E
  0
DICTIONARY
  5
100002A0
330
1000029F
100
AcDbDictionary
280
     1
  3
BTDETID
360
100002A1
  0
DICTIONARY
  5
100002A3
330
100002A2
100
AcDbDictionary
280
     1
  3
BTDETID
360
100002A4
  0
DICTIONARY
  5
100002A6
330
100002A5
100
AcDbDictionary
280
     1
  3
BTDETID
360
100002A7
  0
DICTIONARY
  5
100002A9
330
100002A8
100
AcDbDictionary
280
     1
  3
BTDETID
360
100002AA
  0
DICTIONARY
  5
100002AC
330
100002AB
100
AcDbDictionary
280
     1
  3
BTDETID
360
100002AD
  0
DICTIONARY
  5
100002AF
330
100002AE
100
AcDbDictionary
280
     1
  3
BTDETID
360
100002B0
  0
DICTIONARY
  5
100002B2
330
100002B1
100
AcDbDictionary
280
     1
  3
BTDETID
360
100002B3
  0
DICTIONARY
  5
100002B5
330
100002B4
100
AcDbDictionary
280
     1
  3
BTDETID
360
100002B6
  0
DICTIONARY
  5
100002B8
330
100002B7
100
AcDbDictionary
280
     1
  3
BTDETID
360
100002B9
  0
DICTIONARY
  5
100002BB
330
100002BA
100
AcDbDictionary
280
     1
  3
BTDETID
360
100002BC
  0
DICTIONARY
  5
100002BE
330
100002BD
100
AcDbDictionary
280
     1
  3
BTDETID
360
100002BF
  0
DICTIONARY
  5
100002C1
330
100002C0
100
AcDbDictionary
280
     1
  3
BTDETID
360
100002C2
  0
DICTIONARY
  5
100002C4
330
100002C3
100
AcDbDictionary
280
     1
  3
BTDETID
360
100002C5
  0
DICTIONARY
  5
100002C7
330
100002C6
100
AcDbDictionary
280
     1
  3
BTDETID
360
100002C8
  0
DICTIONARY
  5
100002CA
330
100002C9
100
AcDbDictionary
280
     1
  3
BTDETID
360
100002CB
  0
DICTIONARY
  5
100002CD
330
100002CC
100
AcDbDictionary
280
     1
  3
BTDETID
360
100002CE
  0
DICTIONARY
  5
100002D0
330
100002CF
100
AcDbDictionary
280
     1
  3
BTDETID
360
100002D1
  0
DICTIONARY
  5
100002D3
330
100002D2
100
AcDbDictionary
280
     1
  3
BTDETID
360
100002D4
  0
DICTIONARY
  5
100002D6
330
100002D5
100
AcDbDictionary
280
     1
  3
BTDETID
360
100002D7
  0
DICTIONARY
  5
100002D9
330
100002D8
100
AcDbDictionary
280
     1
  3
BTDETID
360
100002DA
  0
DICTIONARY
  5
100002DC
330
100002DB
100
AcDbDictionary
280
     1
  3
BTDETID
360
100002DD
  0
DICTIONARY
  5
100002DF
330
100002DE
100
AcDbDictionary
280
     1
  3
BTDETID
360
100002E0
  0
DICTIONARY
  5
100002E2
330
100002E1
100
AcDbDictionary
280
     1
  3
BTDETID
360
100002E3
  0
DICTIONARY
  5
100002E5
330
100002E4
100
AcDbDictionary
280
     1
  3
BTDETID
360
100002E6
  0
DICTIONARY
  5
100002E8
330
100002E7
100
AcDbDictionary
280
     1
  3
BTDETID
360
100002E9
  0
DICTIONARY
  5
D
102
{ACAD_REACTORS
330
C
102
}
330
C
100
AcDbDictionary
  0
DICTIONARY
  5
1A
102
{ACAD_REACTORS
330
C
102
}
330
C
100
AcDbDictionary
  0
DICTIONARY
  5
43
102
{ACAD_REACTORS
330
C
102
}
330
C
100
AcDbDictionary
  3
BYBLOCK
350
45
  3
BYLAYER
350
44
  3
GLOBAL
350
46
  0
DICTIONARY
  5
6B
102
{ACAD_REACTORS
330
C
102
}
330
C
100
AcDbDictionary
  3
STANDARD
350
6C
  0
DICTIONARY
  5
17
102
{ACAD_REACTORS
330
C
102
}
330
C
100
AcDbDictionary
  3
STANDARD
350
18
  0
DICTIONARY
  5
19
102
{ACAD_REACTORS
330
C
102
}
330
C
100
AcDbDictionary
  0
DICTIONARY
  5
47
102
{ACAD_REACTORS
330
C
102
}
330
C
100
AcDbDictionary
  3
SCALE100_1
350
10000023
  3
SCALE10_1
350
1000001D
  3
SCALE12_1
350
1000001E
  3
SCALE16_1
350
1000001F
  3
SCALE1_1
350
10000006
  3
SCALE1_10
350
1000000D
  3
SCALE1_100
350
10000016
  3
SCALE1_12
350
1000000E
  3
SCALE1_16
350
1000000F
  3
SCALE1_2
350
10000007
  3
SCALE1_20
350
10000010
  3
SCALE1_25
350
10000011
  3
SCALE1_3
350
10000008
  3
SCALE1_32
350
10000012
  3
SCALE1_4
350
10000009
  3
SCALE1_40
350
10000013
  3
SCALE1_5
350
1000000A
  3
SCALE1_50
350
10000014
  3
SCALE1_6
350
1000000B
  3
SCALE1_8
350
1000000C
  3
SCALE1_80
350
10000015
  3
SCALE20_1
350
10000020
  3
SCALE2_1
350
10000017
  3
SCALE32_1
350
10000021
  3
SCALE3_1
350
10000018
  3
SCALE4_1
350
10000019
  3
SCALE50_1
350
10000022
  3
SCALE5_1
350
1000001A
  3
SCALE6_1
350
1000001B
  3
SCALE8_1
350
1000001C
  0
DICTIONARY
  5
2A
102
{ACAD_REACTORS
330
C
102
}
330
C
100
AcDbDictionary
  3
2DWIREFRAME
350
2F
  3
BASIC
350
32
  3
BRIGHTEN
350
36
  3
COLORCHANGE
350
3A
  3
CONCEPTUAL
350
34
  3
DIM
350
35
  3
EDGECOLOROFF
350
3D
  3
FACEPATTERN
350
39
  3
FLAT
350
2B
  3
FLATWITHEDGES
350
2C
  3
GOURAUD
350
2D
  3
GOURAUDWITHEDGES
350
2E
  3
HIDDEN
350
31
  3
JITTEROFF
350
3B
  3
LINEPATTERN
350
38
  3
OVERHANGOFF
350
3C
  3
REALISTIC
350
33
  3
SHADED
350
42
  3
SHADED_WITH_EDGES
350
41
  3
SHADES_OF_GRAY
350
3E
  3
SKETCHY
350
3F
  3
THICKEN
350
37
  3
WIREFRAME
350
30
  3
X-RAY
350
40
  0
DICTIONARY
  5
100002EC
102
{ACAD_REACTORS
330
C
102
}
330
C
100
AcDbDictionary
  3
CEPSNID
350
100002F6
  3
CEPSNTYPE
350
100002F5
  3
DIMSTYLEDATA
350
1000030C
  3
FINGERPRINTGUID
350
100002F7
  3
HYPERLINKBASE
350
100002EF
  3
INSUNITS
350
100002F4
  3
LAYOUTDICT
350
100002F1
  3
LWETCUNION
350
100002F3
  3
PLOTSETDICT
350
100002F2
  3
PSVPSCALE
350
100002F9
  3
PUCSBASE
350
100002FC
  3
PUCSORGBACK
350
10000302
  3
PUCSORGBOTTOM
350
100002FE
  3
PUCSORGFRONT
350
10000301
  3
PUCSORGLEFT
350
100002FF
  3
PUCSORGRIGHT
350
10000300
  3
PUCSORGTOP
350
100002FD
  3
PUCSORTHOREF
350
100002FA
  3
PUCSORTHOVIEW
350
100002FB
  3
STYLESHEET
350
100002F0
  3
TSTACKALIGN
350
100002ED
  3
TSTACKSIZE
350
100002EE
  3
UCSBASE
350
10000305
  3
UCSORGBACK
350
1000030B
  3
UCSORGBOTTOM
350
10000307
  3
UCSORGFRONT
350
1000030A
  3
UCSORGLEFT
350
10000308
  3
UCSORGRIGHT
350
10000309
  3
UCSORGTOP
350
10000306
  3
UCSORTHOREF
350
10000303
  3
UCSORTHOVIEW
350
10000304
  3
VERSIONGUID
350
100002F8
  0
DICTIONARY
  5
1000030D
102
{ACAD_REACTORS
330
C
102
}
330
C
100
AcDbDictionary
  3
CANNOSCALE
350
10000317
  3
CMLEADERSTYLE
350
1000030F
  3
CTABLESTYLE
350
1000030E
  3
DIMASSOC
350
10000312
  3
HIDETEXT
350
10000313
  3
MSLTSCALE
350
10000318
  0
XRECORD
  5
10000314
102
{ACAD_REACTORS
330
C
102
}
330
C
100
AcDbXrecord
  1
DWGPROPS COOKIE
  2

  3

  4

  6
File was created by BTDwgCreate
  7

  8

  9

300
=
301
=
302
=
303
=
304
=
305
=
306
=
307
=
308
=
309
=
 40
0.0
 41
2459746.463800995
 42
2459746.46380103
  1

 90
        0
  0
DICTIONARY
  5
10000001
102
{ACAD_REACTORS
330
C
102
}
330
C
100
AcDbDictionary
280
     1
  3
DIM_UNITS
360
10000003
  3
DWGGEN_VERSION
360
10000002
  3
FIRST_ANGLE
360
10000005
  0
XRECORD
  5
10000316
102
{ACAD_REACTORS
330
10000315
102
}
330
10000315
100
AcDbXrecord
102
VTR_0.000_0.000_1.000_1.000_VISUALSTYLE
340
2F
102
VTR_0.000_0.000_1.000_1.000_GRIDDISPLAY
 70
     3
102
VTR_0.000_0.000_1.000_1.000_GRIDMAJOR
 70
     5
102
VTR_0.000_0.000_1.000_1.000_DEFAULTLIGHTING
280
     1
102
VTR_0.000_0.000_1.000_1.000_DEFAULTLIGHTINGTYPE
 70
     1
102
VTR_0.000_0.000_1.000_1.000_BRIGHTNESS
141
0.0
102
VTR_0.000_0.000_1.000_1.000_CONTRAST
142
0.0
  0
SORTENTSTABLE
  5
100002EB
102
{ACAD_REACTORS
330
100002EA
102
}
330
100002EA
100
AcDbSortentsTable
330
1F
  0
XRECORD
  5
10000052
102
{ACAD_REACTORS
330
10000051
102
}
330
10000051
100
AcDbXrecord
1000
KF1B
  0
XRECORD
  5
10000055
102
{ACAD_REACTORS
330
10000054
102
}
330
10000054
100
AcDbXrecord
1000
KFxB
  0
XRECORD
  5
10000058
102
{ACAD_REACTORS
330
10000057
102
}
330
10000057
100
AcDbXrecord
1000
KFtB
  0
XRECORD
  5
1000005B
102
{ACAD_REACTORS
330
1000005A
102
}
330
1000005A
100
AcDbXrecord
1000
KFpB
  0
XRECORD
  5
1000005E
102
{ACAD_REACTORS
330
1000005D
102
}
330
1000005D
100
AcDbXrecord
1000
KFlB
  0
XRECORD
  5
10000061
102
{ACAD_REACTORS
330
10000060
102
}
330
10000060
100
AcDbXrecord
1000
KFhB
  0
XRECORD
  5
10000064
102
{ACAD_REACTORS
330
10000063
102
}
330
10000063
100
AcDbXrecord
1000
KFdB
  0
XRECORD
  5
10000067
102
{ACAD_REACTORS
330
10000066
102
}
330
10000066
100
AcDbXrecord
1000
KFZB
  0
XRECORD
  5
1000006A
102
{ACAD_REACTORS
330
10000069
102
}
330
10000069
100
AcDbXrecord
1000
KFVB
  0
XRECORD
  5
1000006D
102
{ACAD_REACTORS
330
1000006C
102
}
330
1000006C
100
AcDbXrecord
1000
KFRB
  0
XRECORD
  5
10000070
102
{ACAD_REACTORS
330
1000006F
102
}
330
1000006F
100
AcDbXrecord
1000
JFR
  0
XRECORD
  5
10000073
102
{ACAD_REACTORS
330
10000072
102
}
330
10000072
100
AcDbXrecord
1000
JFN
  0
XRECORD
  5
10000076
102
{ACAD_REACTORS
330
10000075
102
}
330
10000075
100
AcDbXrecord
1000
JFJ
  0
XRECORD
  5
10000079
102
{ACAD_REACTORS
330
10000078
102
}
330
10000078
100
AcDbXrecord
1000
JFF
  0
XRECORD
  5
1000007C
102
{ACAD_REACTORS
330
1000007B
102
}
330
1000007B
100
AcDbXrecord
1000
JFB
  0
XRECORD
  5
1000007F
102
{ACAD_REACTORS
330
1000007E
102
}
330
1000007E
100
AcDbXrecord
1000
KFpK
  0
XRECORD
  5
10000082
102
{ACAD_REACTORS
330
10000081
102
}
330
10000081
100
AcDbXrecord
1000
KFlK
  0
XRECORD
  5
10000085
102
{ACAD_REACTORS
330
10000084
102
}
330
10000084
100
AcDbXrecord
1000
KFhK
  0
XRECORD
  5
10000088
102
{ACAD_REACTORS
330
10000087
102
}
330
10000087
100
AcDbXrecord
1000
KFdK
  0
XRECORD
  5
1000008B
102
{ACAD_REACTORS
330
1000008A
102
}
330
1000008A
100
AcDbXrecord
1000
KFZK
  0
XRECORD
  5
1000008E
102
{ACAD_REACTORS
330
1000008D
102
}
330
1000008D
100
AcDbXrecord
1000
KFdJ
  0
XRECORD
  5
10000091
102
{ACAD_REACTORS
330
10000090
102
}
330
10000090
100
AcDbXrecord
1000
KFVK
  0
XRECORD
  5
10000094
102
{ACAD_REACTORS
330
10000093
102
}
330
10000093
100
AcDbXrecord
1000
KFZJ
  0
XRECORD
  5
10000097
102
{ACAD_REACTORS
330
10000096
102
}
330
10000096
100
AcDbXrecord
1000
KFRK
  0
XRECORD
  5
1000009A
102
{ACAD_REACTORS
330
10000099
102
}
330
10000099
100
AcDbXrecord
1000
KFVJ
  0
XRECORD
  5
1000009D
102
{ACAD_REACTORS
330
1000009C
102
}
330
1000009C
100
AcDbXrecord
1000
KFNK
  0
XRECORD
  5
100000A0
102
{ACAD_REACTORS
330
1000009F
102
}
330
1000009F
100
AcDbXrecord
1000
KFRJ
  0
XRECORD
  5
100000A3
102
{ACAD_REACTORS
330
100000A2
102
}
330
100000A2
100
AcDbXrecord
1000
KFJK
  0
XRECORD
  5
100000A6
102
{ACAD_REACTORS
330
100000A5
102
}
330
100000A5
100
AcDbXrecord
1000
KFNJ
  0
XRECORD
  5
100000A9
102
{ACAD_REACTORS
330
100000A8
102
}
330
100000A8
100
AcDbXrecord
1000
KFFK
  0
XRECORD
  5
100000AC
102
{ACAD_REACTORS
330
100000AB
102
}
330
100000AB
100
AcDbXrecord
1000
KFJJ
  0
XRECORD
  5
100000AF
102
{ACAD_REACTORS
330
100000AE
102
}
330
100000AE
100
AcDbXrecord
1000
KFBK
  0
XRECORD
  5
100000B2
102
{ACAD_REACTORS
330
100000B1
102
}
330
100000B1
100
AcDbXrecord
1000
KFFJ
  0
XRECORD
  5
100000B5
102
{ACAD_REACTORS
330
100000B4
102
}
330
100000B4
100
AcDbXrecord
1000
KF9J
  0
XRECORD
  5
100000B8
102
{ACAD_REACTORS
330
100000B7
102
}
330
100000B7
100
AcDbXrecord
1000
KFBJ
  0
XRECORD
  5
100000BB
102
{ACAD_REACTORS
330
100000BA
102
}
330
100000BA
100
AcDbXrecord
1000
KF5J
  0
XRECORD
  5
100000BE
102
{ACAD_REACTORS
330
100000BD
102
}
330
100000BD
100
AcDbXrecord
1000
KF9I
  0
XRECORD
  5
100000C1
102
{ACAD_REACTORS
330
100000C0
102
}
330
100000C0
100
AcDbXrecord
1000
KF1J
  0
XRECORD
  5
100000C4
102
{ACAD_REACTORS
330
100000C3
102
}
330
100000C3
100
AcDbXrecord
1000
KF5I
  0
XRECORD
  5
100000C7
102
{ACAD_REACTORS
330
100000C6
102
}
330
100000C6
100
AcDbXrecord
1000
KF1I
  0
XRECORD
  5
100000CA
102
{ACAD_REACTORS
330
100000C9
102
}
330
100000C9
100
AcDbXrecord
1000
KFxI
  0
XRECORD
  5
100000CD
102
{ACAD_REACTORS
330
100000CC
102
}
330
100000CC
100
AcDbXrecord
1000
KFtI
  0
XRECORD
  5
100000D0
102
{ACAD_REACTORS
330
100000CF
102
}
330
100000CF
100
AcDbXrecord
1000
KFpI
  0
XRECORD
  5
100000D3
102
{ACAD_REACTORS
330
100000D2
102
}
330
100000D2
100
AcDbXrecord
1000
KFlI
  0
XRECORD
  5
100000D6
102
{ACAD_REACTORS
330
100000D5
102
}
330
100000D5
100
AcDbXrecord
1000
KFhI
  0
XRECORD
  5
100000D9
102
{ACAD_REACTORS
330
100000D8
102
}
330
100000D8
100
AcDbXrecord
1000
KFdI
  0
XRECORD
  5
100000DC
102
{ACAD_REACTORS
330
100000DB
102
}
330
100000DB
100
AcDbXrecord
1000
KFZI
  0
XRECORD
  5
100000DF
102
{ACAD_REACTORS
330
100000DE
102
}
330
100000DE
100
AcDbXrecord
1000
KFVI
  0
XRECORD
  5
100000E2
102
{ACAD_REACTORS
330
100000E1
102
}
330
100000E1
100
AcDbXrecord
1000
KFRI
  0
XRECORD
  5
100000E5
102
{ACAD_REACTORS
330
100000E4
102
}
330
100000E4
100
AcDbXrecord
1000
KFNI
  0
XRECORD
  5
100000E8
102
{ACAD_REACTORS
330
100000E7
102
}
330
100000E7
100
AcDbXrecord
1000
KFJI
  0
XRECORD
  5
100000EB
102
{ACAD_REACTORS
330
100000EA
102
}
330
100000EA
100
AcDbXrecord
1000
KFFI
  0
XRECORD
  5
100000EE
102
{ACAD_REACTORS
330
100000ED
102
}
330
100000ED
100
AcDbXrecord
1000
KFBI
  0
XRECORD
  5
100000F1
102
{ACAD_REACTORS
330
100000F0
102
}
330
100000F0
100
AcDbXrecord
1000
KF9H
  0
XRECORD
  5
100000F4
102
{ACAD_REACTORS
330
100000F3
102
}
330
100000F3
100
AcDbXrecord
1000
KF5H
  0
XRECORD
  5
100000F7
102
{ACAD_REACTORS
330
100000F6
102
}
330
100000F6
100
AcDbXrecord
1000
KF1H
  0
XRECORD
  5
100000FA
102
{ACAD_REACTORS
330
100000F9
102
}
330
100000F9
100
AcDbXrecord
1000
KFtK
  0
XRECORD
  5
100000FD
102
{ACAD_REACTORS
330
100000FC
102
}
330
100000FC
100
AcDbXrecord
1000
KFxK
  0
XRECORD
  5
10000100
102
{ACAD_REACTORS
330
100000FF
102
}
330
100000FF
100
AcDbXrecord
1000
JFV
  0
XRECORD
  5
10000103
102
{ACAD_REACTORS
330
10000102
102
}
330
10000102
100
AcDbXrecord
1000
KF1K
  0
XRECORD
  5
10000106
102
{ACAD_REACTORS
330
10000105
102
}
330
10000105
100
AcDbXrecord
1000
JFZ
  0
XRECORD
  5
10000109
102
{ACAD_REACTORS
330
10000108
102
}
330
10000108
100
AcDbXrecord
1000
KF5K
  0
XRECORD
  5
1000010C
102
{ACAD_REACTORS
330
1000010B
102
}
330
1000010B
100
AcDbXrecord
1000
JFd
  0
XRECORD
  5
1000010F
102
{ACAD_REACTORS
330
1000010E
102
}
330
1000010E
100
AcDbXrecord
1000
KF9K
  0
XRECORD
  5
10000112
102
{ACAD_REACTORS
330
10000111
102
}
330
10000111
100
AcDbXrecord
1000
JFh
  0
XRECORD
  5
10000115
102
{ACAD_REACTORS
330
10000114
102
}
330
10000114
100
AcDbXrecord
1000
KFBL
  0
XRECORD
  5
10000118
102
{ACAD_REACTORS
330
10000117
102
}
330
10000117
100
AcDbXrecord
1000
JFl
  0
XRECORD
  5
1000011B
102
{ACAD_REACTORS
330
1000011A
102
}
330
1000011A
100
AcDbXrecord
1000
KFFL
  0
XRECORD
  5
1000011E
102
{ACAD_REACTORS
330
1000011D
102
}
330
1000011D
100
AcDbXrecord
1000
JFp
  0
XRECORD
  5
10000121
102
{ACAD_REACTORS
330
10000120
102
}
330
10000120
100
AcDbXrecord
1000
KFJL
  0
XRECORD
  5
10000124
102
{ACAD_REACTORS
330
10000123
102
}
330
10000123
100
AcDbXrecord
1000
JFt
  0
XRECORD
  5
10000127
102
{ACAD_REACTORS
330
10000126
102
}
330
10000126
100
AcDbXrecord
1000
KFNL
  0
XRECORD
  5
1000012A
102
{ACAD_REACTORS
330
10000129
102
}
330
10000129
100
AcDbXrecord
1000
KFRL
  0
XRECORD
  5
1000012D
102
{ACAD_REACTORS
330
1000012C
102
}
330
1000012C
100
AcDbXrecord
1000
KFVL
  0
XRECORD
  5
10000130
102
{ACAD_REACTORS
330
1000012F
102
}
330
1000012F
100
AcDbXrecord
1000
KFZL
  0
XRECORD
  5
10000133
102
{ACAD_REACTORS
330
10000132
102
}
330
10000132
100
AcDbXrecord
1000
KFdL
  0
XRECORD
  5
10000136
102
{ACAD_REACTORS
330
10000135
102
}
330
10000135
100
AcDbXrecord
1000
KFhL
  0
XRECORD
  5
10000139
102
{ACAD_REACTORS
330
10000138
102
}
330
10000138
100
AcDbXrecord
1000
KFFB
  0
XRECORD
  5
1000013C
102
{ACAD_REACTORS
330
1000013B
102
}
330
1000013B
100
AcDbXrecord
1000
KFlL
  0
XRECORD
  5
1000013F
102
{ACAD_REACTORS
330
1000013E
102
}
330
1000013E
100
AcDbXrecord
1000
KFJB
  0
XRECORD
  5
10000142
102
{ACAD_REACTORS
330
10000141
102
}
330
10000141
100
AcDbXrecord
1000
KFpL
  0
XRECORD
  5
10000145
102
{ACAD_REACTORS
330
10000144
102
}
330
10000144
100
AcDbXrecord
1000
KFNB
  0
XRECORD
  5
10000148
102
{ACAD_REACTORS
330
10000147
102
}
330
10000147
100
AcDbXrecord
1000
KFtL
  0
XRECORD
  5
1000014B
102
{ACAD_REACTORS
330
1000014A
102
}
330
1000014A
100
AcDbXrecord
1000
KFxL
  0
XRECORD
  5
1000014E
102
{ACAD_REACTORS
330
1000014D
102
}
330
1000014D
100
AcDbXrecord
1000
KF1L
  0
XRECORD
  5
10000151
102
{ACAD_REACTORS
330
10000150
102
}
330
10000150
100
AcDbXrecord
1000
KF5L
  0
XRECORD
  5
10000154
102
{ACAD_REACTORS
330
10000153
102
}
330
10000153
100
AcDbXrecord
1000
KF9L
  0
XRECORD
  5
10000157
102
{ACAD_REACTORS
330
10000156
102
}
330
10000156
100
AcDbXrecord
1000
KFBM
  0
XRECORD
  5
1000015A
102
{ACAD_REACTORS
330
10000159
102
}
330
10000159
100
AcDbXrecord
1000
KFFM
  0
XRECORD
  5
1000015D
102
{ACAD_REACTORS
330
1000015C
102
}
330
1000015C
100
AcDbXrecord
1000
KFJM
  0
XRECORD
  5
10000160
102
{ACAD_REACTORS
330
1000015F
102
}
330
1000015F
100
AcDbXrecord
1000
KFNM
  0
XRECORD
  5
10000163
102
{ACAD_REACTORS
330
10000162
102
}
330
10000162
100
AcDbXrecord
1000
KFpD
  0
XRECORD
  5
10000166
102
{ACAD_REACTORS
330
10000165
102
}
330
10000165
100
AcDbXrecord
1000
KFFO
  0
XRECORD
  5
10000169
102
{ACAD_REACTORS
330
10000168
102
}
330
10000168
100
AcDbXrecord
1000
KFhN
  0
XRECORD
  5
1000016C
102
{ACAD_REACTORS
330
1000016B
102
}
330
1000016B
100
AcDbXrecord
1000
KFFD
  0
XRECORD
  5
1000016F
102
{ACAD_REACTORS
330
1000016E
102
}
330
1000016E
100
AcDbXrecord
1000
KFtD
  0
XRECORD
  5
10000172
102
{ACAD_REACTORS
330
10000171
102
}
330
10000171
100
AcDbXrecord
1000
KFJO
  0
XRECORD
  5
10000175
102
{ACAD_REACTORS
330
10000174
102
}
330
10000174
100
AcDbXrecord
1000
KFlN
  0
XRECORD
  5
10000178
102
{ACAD_REACTORS
330
10000177
102
}
330
10000177
100
AcDbXrecord
1000
KFJD
  0
XRECORD
  5
1000017B
102
{ACAD_REACTORS
330
1000017A
102
}
330
1000017A
100
AcDbXrecord
1000
KFxD
  0
XRECORD
  5
1000017E
102
{ACAD_REACTORS
330
1000017D
102
}
330
1000017D
100
AcDbXrecord
1000
KFNO
  0
XRECORD
  5
10000181
102
{ACAD_REACTORS
330
10000180
102
}
330
10000180
100
AcDbXrecord
1000
KFpN
  0
XRECORD
  5
10000184
102
{ACAD_REACTORS
330
10000183
102
}
330
10000183
100
AcDbXrecord
1000
KFND
  0
XRECORD
  5
10000187
102
{ACAD_REACTORS
330
10000186
102
}
330
10000186
100
AcDbXrecord
1000
KF1D
  0
XRECORD
  5
1000018A
102
{ACAD_REACTORS
330
10000189
102
}
330
10000189
100
AcDbXrecord
1000
KFRO
  0
XRECORD
  5
1000018D
102
{ACAD_REACTORS
330
1000018C
102
}
330
1000018C
100
AcDbXrecord
1000
KFtN
  0
XRECORD
  5
10000190
102
{ACAD_REACTORS
330
1000018F
102
}
330
1000018F
100
AcDbXrecord
1000
KFRD
  0
XRECORD
  5
10000193
102
{ACAD_REACTORS
330
10000192
102
}
330
10000192
100
AcDbXrecord
1000
KF5D
  0
XRECORD
  5
10000196
102
{ACAD_REACTORS
330
10000195
102
}
330
10000195
100
AcDbXrecord
1000
KFVO
  0
XRECORD
  5
10000199
102
{ACAD_REACTORS
330
10000198
102
}
330
10000198
100
AcDbXrecord
1000
KFxN
  0
XRECORD
  5
1000019C
102
{ACAD_REACTORS
330
1000019B
102
}
330
1000019B
100
AcDbXrecord
1000
KFVD
  0
XRECORD
  5
1000019F
102
{ACAD_REACTORS
330
1000019E
102
}
330
1000019E
100
AcDbXrecord
1000
KF9D
  0
XRECORD
  5
100001A2
102
{ACAD_REACTORS
330
100001A1
102
}
330
100001A1
100
AcDbXrecord
1000
KFZO
  0
XRECORD
  5
100001A5
102
{ACAD_REACTORS
330
100001A4
102
}
330
100001A4
100
AcDbXrecord
1000
KF1N
  0
XRECORD
  5
100001A8
102
{ACAD_REACTORS
330
100001A7
102
}
330
100001A7
100
AcDbXrecord
1000
KFZD
  0
XRECORD
  5
100001AB
102
{ACAD_REACTORS
330
100001AA
102
}
330
100001AA
100
AcDbXrecord
1000
KFBE
  0
XRECORD
  5
100001AE
102
{ACAD_REACTORS
330
100001AD
102
}
330
100001AD
100
AcDbXrecord
1000
KFdO
  0
XRECORD
  5
100001B1
102
{ACAD_REACTORS
330
100001B0
102
}
330
100001B0
100
AcDbXrecord
1000
KF5N
  0
XRECORD
  5
100001B4
102
{ACAD_REACTORS
330
100001B3
102
}
330
100001B3
100
AcDbXrecord
1000
KFdD
  0
XRECORD
  5
100001B7
102
{ACAD_REACTORS
330
100001B6
102
}
330
100001B6
100
AcDbXrecord
1000
KFFE
  0
XRECORD
  5
100001BA
102
{ACAD_REACTORS
330
100001B9
102
}
330
100001B9
100
AcDbXrecord
1000
KF9N
  0
XRECORD
  5
100001BD
102
{ACAD_REACTORS
330
100001BC
102
}
330
100001BC
100
AcDbXrecord
1000
KFhD
  0
XRECORD
  5
100001C0
102
{ACAD_REACTORS
330
100001BF
102
}
330
100001BF
100
AcDbXrecord
1000
KFJE
  0
XRECORD
  5
100001C3
102
{ACAD_REACTORS
330
100001C2
102
}
330
100001C2
100
AcDbXrecord
1000
KFBO
  0
XRECORD
  5
100001C6
102
{ACAD_REACTORS
330
100001C5
102
}
330
100001C5
100
AcDbXrecord
1000
KFlD
  0
XRECORD
  5
100001C9
102
{ACAD_REACTORS
330
100001C8
102
}
330
100001C8
100
AcDbXrecord
1000
KFNE
  0
XRECORD
  5
100001CC
102
{ACAD_REACTORS
330
100001CB
102
}
330
100001CB
100
AcDbXrecord
1000
KFdN
  0
XRECORD
  5
100001CF
102
{ACAD_REACTORS
330
100001CE
102
}
330
100001CE
100
AcDbXrecord
1000
KFBD
  0
XRECORD
  5
100001D2
102
{ACAD_REACTORS
330
100001D1
102
}
330
100001D1
100
AcDbXrecord
1000
KFZN
  0
XRECORD
  5
100001D5
102
{ACAD_REACTORS
330
100001D4
102
}
330
100001D4
100
AcDbXrecord
1000
KF9C
  0
XRECORD
  5
100001D8
102
{ACAD_REACTORS
330
100001D7
102
}
330
100001D7
100
AcDbXrecord
1000
KFVN
  0
XRECORD
  5
100001DB
102
{ACAD_REACTORS
330
100001DA
102
}
330
100001DA
100
AcDbXrecord
1000
KF5C
  0
XRECORD
  5
100001DE
102
{ACAD_REACTORS
330
100001DD
102
}
330
100001DD
100
AcDbXrecord
1000
KFRN
  0
XRECORD
  5
100001E1
102
{ACAD_REACTORS
330
100001E0
102
}
330
100001E0
100
AcDbXrecord
1000
KF1C
  0
XRECORD
  5
100001E4
102
{ACAD_REACTORS
330
100001E3
102
}
330
100001E3
100
AcDbXrecord
1000
KFNN
  0
XRECORD
  5
100001E7
102
{ACAD_REACTORS
330
100001E6
102
}
330
100001E6
100
AcDbXrecord
1000
KFxC
  0
XRECORD
  5
100001EA
102
{ACAD_REACTORS
330
100001E9
102
}
330
100001E9
100
AcDbXrecord
1000
KFJN
  0
XRECORD
  5
100001ED
102
{ACAD_REACTORS
330
100001EC
102
}
330
100001EC
100
AcDbXrecord
1000
KFtC
  0
XRECORD
  5
100001F0
102
{ACAD_REACTORS
330
100001EF
102
}
330
100001EF
100
AcDbXrecord
1000
KFFN
  0
XRECORD
  5
100001F3
102
{ACAD_REACTORS
330
100001F2
102
}
330
100001F2
100
AcDbXrecord
1000
KFpC
  0
XRECORD
  5
100001F6
102
{ACAD_REACTORS
330
100001F5
102
}
330
100001F5
100
AcDbXrecord
1000
KFBN
  0
XRECORD
  5
100001F9
102
{ACAD_REACTORS
330
100001F8
102
}
330
100001F8
100
AcDbXrecord
1000
KFlC
  0
XRECORD
  5
100001FC
102
{ACAD_REACTORS
330
100001FB
102
}
330
100001FB
100
AcDbXrecord
1000
KF9M
  0
XRECORD
  5
100001FF
102
{ACAD_REACTORS
330
100001FE
102
}
330
100001FE
100
AcDbXrecord
1000
KFhC
  0
XRECORD
  5
10000202
102
{ACAD_REACTORS
330
10000201
102
}
330
10000201
100
AcDbXrecord
1000
KF5M
  0
XRECORD
  5
10000205
102
{ACAD_REACTORS
330
10000204
102
}
330
10000204
100
AcDbXrecord
1000
KFdC
  0
XRECORD
  5
10000208
102
{ACAD_REACTORS
330
10000207
102
}
330
10000207
100
AcDbXrecord
1000
KF1M
  0
XRECORD
  5
1000020B
102
{ACAD_REACTORS
330
1000020A
102
}
330
1000020A
100
AcDbXrecord
1000
KFZC
  0
XRECORD
  5
1000020E
102
{ACAD_REACTORS
330
1000020D
102
}
330
1000020D
100
AcDbXrecord
1000
KFxM
  0
XRECORD
  5
10000211
102
{ACAD_REACTORS
330
10000210
102
}
330
10000210
100
AcDbXrecord
1000
KFVC
  0
XRECORD
  5
10000214
102
{ACAD_REACTORS
330
10000213
102
}
330
10000213
100
AcDbXrecord
1000
KFtM
  0
XRECORD
  5
10000217
102
{ACAD_REACTORS
330
10000216
102
}
330
10000216
100
AcDbXrecord
1000
KFRC
  0
XRECORD
  5
1000021A
102
{ACAD_REACTORS
330
10000219
102
}
330
10000219
100
AcDbXrecord
1000
KFpM
  0
XRECORD
  5
1000021D
102
{ACAD_REACTORS
330
1000021C
102
}
330
1000021C
100
AcDbXrecord
1000
KFNC
  0
XRECORD
  5
10000220
102
{ACAD_REACTORS
330
1000021F
102
}
330
1000021F
100
AcDbXrecord
1000
KFlM
  0
XRECORD
  5
10000223
102
{ACAD_REACTORS
330
10000222
102
}
330
10000222
100
AcDbXrecord
1000
KFJC
  0
XRECORD
  5
10000226
102
{ACAD_REACTORS
330
10000225
102
}
330
10000225
100
AcDbXrecord
1000
KFhM
  0
XRECORD
  5
10000229
102
{ACAD_REACTORS
330
10000228
102
}
330
10000228
100
AcDbXrecord
1000
KFFC
  0
XRECORD
  5
1000022C
102
{ACAD_REACTORS
330
1000022B
102
}
330
1000022B
100
AcDbXrecord
1000
KFdM
  0
XRECORD
  5
1000022F
102
{ACAD_REACTORS
330
1000022E
102
}
330
1000022E
100
AcDbXrecord
1000
KFBC
  0
XRECORD
  5
10000232
102
{ACAD_REACTORS
330
10000231
102
}
330
10000231
100
AcDbXrecord
1000
KFZM
  0
XRECORD
  5
10000235
102
{ACAD_REACTORS
330
10000234
102
}
330
10000234
100
AcDbXrecord
1000
KF9B
  0
XRECORD
  5
10000238
102
{ACAD_REACTORS
330
10000237
102
}
330
10000237
100
AcDbXrecord
1000
KFVM
  0
XRECORD
  5
1000023B
102
{ACAD_REACTORS
330
1000023A
102
}
330
1000023A
100
AcDbXrecord
1000
KF5B
  0
XRECORD
  5
1000023E
102
{ACAD_REACTORS
330
1000023D
102
}
330
1000023D
100
AcDbXrecord
1000
KFRM
  0
XRECORD
  5
10000241
102
{ACAD_REACTORS
330
10000240
102
}
330
10000240
100
AcDbXrecord
1000
KFRE
  0
XRECORD
  5
10000244
102
{ACAD_REACTORS
330
10000243
102
}
330
10000243
100
AcDbXrecord
1000
KFVE
  0
XRECORD
  5
10000247
102
{ACAD_REACTORS
330
10000246
102
}
330
10000246
100
AcDbXrecord
1000
KFZE
  0
XRECORD
  5
1000024A
102
{ACAD_REACTORS
330
10000249
102
}
330
10000249
100
AcDbXrecord
1000
KFdE
  0
XRECORD
  5
1000024D
102
{ACAD_REACTORS
330
1000024C
102
}
330
1000024C
100
AcDbXrecord
1000
KFhE
  0
XRECORD
  5
10000250
102
{ACAD_REACTORS
330
1000024F
102
}
330
1000024F
100
AcDbXrecord
1000
KFlE
  0
XRECORD
  5
10000253
102
{ACAD_REACTORS
330
10000252
102
}
330
10000252
100
AcDbXrecord
1000
KFpE
  0
XRECORD
  5
10000256
102
{ACAD_REACTORS
330
10000255
102
}
330
10000255
100
AcDbXrecord
1000
KFtE
  0
XRECORD
  5
10000259
102
{ACAD_REACTORS
330
10000258
102
}
330
10000258
100
AcDbXrecord
1000
KFxE
  0
XRECORD
  5
1000025C
102
{ACAD_REACTORS
330
1000025B
102
}
330
1000025B
100
AcDbXrecord
1000
KF1E
  0
XRECORD
  5
1000025F
102
{ACAD_REACTORS
330
1000025E
102
}
330
1000025E
100
AcDbXrecord
1000
KF5E
  0
XRECORD
  5
10000262
102
{ACAD_REACTORS
330
10000261
102
}
330
10000261
100
AcDbXrecord
1000
KF9E
  0
XRECORD
  5
10000265
102
{ACAD_REACTORS
330
10000264
102
}
330
10000264
100
AcDbXrecord
1000
KFBF
  0
XRECORD
  5
10000268
102
{ACAD_REACTORS
330
10000267
102
}
330
10000267
100
AcDbXrecord
1000
KFFF
  0
XRECORD
  5
1000026B
102
{ACAD_REACTORS
330
1000026A
102
}
330
1000026A
100
AcDbXrecord
1000
KFJF
  0
XRECORD
  5
1000026E
102
{ACAD_REACTORS
330
1000026D
102
}
330
1000026D
100
AcDbXrecord
1000
KFNF
  0
XRECORD
  5
10000271
102
{ACAD_REACTORS
330
10000270
102
}
330
10000270
100
AcDbXrecord
1000
KFRF
  0
XRECORD
  5
10000274
102
{ACAD_REACTORS
330
10000273
102
}
330
10000273
100
AcDbXrecord
1000
KFVF
  0
XRECORD
  5
10000277
102
{ACAD_REACTORS
330
10000276
102
}
330
10000276
100
AcDbXrecord
1000
KFZF
  0
XRECORD
  5
1000027A
102
{ACAD_REACTORS
330
10000279
102
}
330
10000279
100
AcDbXrecord
1000
KFdF
  0
XRECORD
  5
1000027D
102
{ACAD_REACTORS
330
1000027C
102
}
330
1000027C
100
AcDbXrecord
1000
KFhF
  0
XRECORD
  5
10000280
102
{ACAD_REACTORS
330
1000027F
102
}
330
1000027F
100
AcDbXrecord
1000
KFlF
  0
XRECORD
  5
10000283
102
{ACAD_REACTORS
330
10000282
102
}
330
10000282
100
AcDbXrecord
1000
KFpF
  0
XRECORD
  5
10000286
102
{ACAD_REACTORS
330
10000285
102
}
330
10000285
100
AcDbXrecord
1000
KFtF
  0
XRECORD
  5
10000289
102
{ACAD_REACTORS
330
10000288
102
}
330
10000288
100
AcDbXrecord
1000
KFxF
  0
XRECORD
  5
1000028C
102
{ACAD_REACTORS
330
1000028B
102
}
330
1000028B
100
AcDbXrecord
1000
KF1F
  0
XRECORD
  5
1000028F
102
{ACAD_REACTORS
330
1000028E
102
}
330
1000028E
100
AcDbXrecord
1000
KF5F
  0
XRECORD
  5
10000292
102
{ACAD_REACTORS
330
10000291
102
}
330
10000291
100
AcDbXrecord
1000
KF9F
  0
XRECORD
  5
10000295
102
{ACAD_REACTORS
330
10000294
102
}
330
10000294
100
AcDbXrecord
1000
KFBG
  0
XRECORD
  5
10000298
102
{ACAD_REACTORS
330
10000297
102
}
330
10000297
100
AcDbXrecord
1000
KFFG
  0
XRECORD
  5
1000029B
102
{ACAD_REACTORS
330
1000029A
102
}
330
1000029A
100
AcDbXrecord
1000
KFJG
  0
XRECORD
  5
1000029E
102
{ACAD_REACTORS
330
1000029D
102
}
330
1000029D
100
AcDbXrecord
1000
KFNG
  0
XRECORD
  5
100002A1
102
{ACAD_REACTORS
330
100002A0
102
}
330
100002A0
100
AcDbXrecord
1000
KFRG
  0
XRECORD
  5
100002A4
102
{ACAD_REACTORS
330
100002A3
102
}
330
100002A3
100
AcDbXrecord
1000
KFVG
  0
XRECORD
  5
100002A7
102
{ACAD_REACTORS
330
100002A6
102
}
330
100002A6
100
AcDbXrecord
1000
KFZG
  0
XRECORD
  5
100002AA
102
{ACAD_REACTORS
330
100002A9
102
}
330
100002A9
100
AcDbXrecord
1000
KFdG
  0
XRECORD
  5
100002AD
102
{ACAD_REACTORS
330
100002AC
102
}
330
100002AC
100
AcDbXrecord
1000
KFhG
  0
XRECORD
  5
100002B0
102
{ACAD_REACTORS
330
100002AF
102
}
330
100002AF
100
AcDbXrecord
1000
KFlG
  0
XRECORD
  5
100002B3
102
{ACAD_REACTORS
330
100002B2
102
}
330
100002B2
100
AcDbXrecord
1000
KFpG
  0
XRECORD
  5
100002B6
102
{ACAD_REACTORS
330
100002B5
102
}
330
100002B5
100
AcDbXrecord
1000
KFtG
  0
XRECORD
  5
100002B9
102
{ACAD_REACTORS
330
100002B8
102
}
330
100002B8
100
AcDbXrecord
1000
KFxG
  0
XRECORD
  5
100002BC
102
{ACAD_REACTORS
330
100002BB
102
}
330
100002BB
100
AcDbXrecord
1000
KF1G
  0
XRECORD
  5
100002BF
102
{ACAD_REACTORS
330
100002BE
102
}
330
100002BE
100
AcDbXrecord
1000
KF5G
  0
XRECORD
  5
100002C2
102
{ACAD_REACTORS
330
100002C1
102
}
330
100002C1
100
AcDbXrecord
1000
KF9G
  0
XRECORD
  5
100002C5
102
{ACAD_REACTORS
330
100002C4
102
}
330
100002C4
100
AcDbXrecord
1000
KFBH
  0
XRECORD
  5
100002C8
102
{ACAD_REACTORS
330
100002C7
102
}
330
100002C7
100
AcDbXrecord
1000
KFFH
  0
XRECORD
  5
100002CB
102
{ACAD_REACTORS
330
100002CA
102
}
330
100002CA
100
AcDbXrecord
1000
KFJH
  0
XRECORD
  5
100002CE
102
{ACAD_REACTORS
330
100002CD
102
}
330
100002CD
100
AcDbXrecord
1000
KFNH
  0
XRECORD
  5
100002D1
102
{ACAD_REACTORS
330
100002D0
102
}
330
100002D0
100
AcDbXrecord
1000
KFRH
  0
XRECORD
  5
100002D4
102
{ACAD_REACTORS
330
100002D3
102
}
330
100002D3
100
AcDbXrecord
1000
KFVH
  0
XRECORD
  5
100002D7
102
{ACAD_REACTORS
330
100002D6
102
}
330
100002D6
100
AcDbXrecord
1000
KFZH
  0
XRECORD
  5
100002DA
102
{ACAD_REACTORS
330
100002D9
102
}
330
100002D9
100
AcDbXrecord
1000
KFdH
  0
XRECORD
  5
100002DD
102
{ACAD_REACTORS
330
100002DC
102
}
330
100002DC
100
AcDbXrecord
1000
KFhH
  0
XRECORD
  5
100002E0
102
{ACAD_REACTORS
330
100002DF
102
}
330
100002DF
100
AcDbXrecord
1000
KFlH
  0
XRECORD
  5
100002E3
102
{ACAD_REACTORS
330
100002E2
102
}
330
100002E2
100
AcDbXrecord
1000
KFpH
  0
XRECORD
  5
100002E6
102
{ACAD_REACTORS
330
100002E5
102
}
330
100002E5
100
AcDbXrecord
1000
KFtH
  0
XRECORD
  5
100002E9
102
{ACAD_REACTORS
330
100002E8
102
}
330
100002E8
100
AcDbXrecord
1000
KFxH
  0
MATERIAL
  5
45
102
{ACAD_REACTORS
330
43
102
}
102
{ACAD_XDICTIONARY
360
1000031B
102
}
330
43
100
AcDbMaterial
  1
BYBLOCK
  0
MATERIAL
  5
44
102
{ACAD_REACTORS
330
43
102
}
102
{ACAD_XDICTIONARY
360
10000319
102
}
330
43
100
AcDbMaterial
  1
BYLAYER
  0
MATERIAL
  5
46
102
{ACAD_REACTORS
330
43
102
}
102
{ACAD_XDICTIONARY
360
1000031D
102
}
330
43
100
AcDbMaterial
  1
GLOBAL
  0
ACAD_PROXY_OBJECT
  5
6C
102
{ACAD_REACTORS
330
6B
102
}
330
6B
100
AcDbProxyObject
 90
      499
 91
      505
 93
      610
310
40901902A4063FBFFFFFE056BD1B81E855B9FC0AD7A3703D0AD73F4214DD185B99185C9900AD7A3703D0AC73F90141901A02B5E8DC0F42B1CFC02B5E8DC0F42B1CFE5764000000000000300FC0
340
14
340
0
340
11
340
0
 94
        0
1001
ACAD_MLEADERVER
1070
     2
  0
MLINESTYLE
  5
18
102
{ACAD_REACTORS
330
17
102
}
330
17
100
AcDbMlineStyle
  2
Standard
 70
     0
  3

 62
   256
 51
90.0
 52
90.0
 71
     2
 49
0.5
 62
   256
  6
BYLAYER
 49
-0.5
 62
   256
  6
BYLAYER
  0
ACAD_PROXY_OBJECT
  5
10000023
102
{ACAD_REACTORS
330
47
102
}
330
47
100
AcDbProxyObject
 90
      499
 91
      503
 93
      121
310
9053130303A310000000000001650100
  0
ACAD_PROXY_OBJECT
  5
1000001D
102
{ACAD_REACTORS
330
47
102
}
330
47
100
AcDbProxyObject
 90
      499
 91
      503
 93
      113
310
90431303A310000000000000910100
  0
ACAD_PROXY_OBJECT
  5
1000001E
102
{ACAD_REACTORS
330
47
102
}
330
47
100
AcDbProxyObject
 90
      499
 91
      503
 93
      113
310
90431323A310000000000000A10100
  0
ACAD_PROXY_OBJECT
  5
1000001F
102
{ACAD_REACTORS
330
47
102
}
330
47
100
AcDbProxyObject
 90
      499
 91
      503
 93
      113
310
90431363A310000000000000C10100
  0
ACAD_PROXY_OBJECT
  5
10000006
102
{ACAD_REACTORS
330
47
102
}
330
47
100
AcDbProxyObject
 90
      499
 91
      503
 93
       41
310
903313A31500
  0
ACAD_PROXY_OBJECT
  5
1000000D
102
{ACAD_REACTORS
330
47
102
}
330
47
100
AcDbProxyObject
 90
      499
 91
      503
 93
      113
310
904313A31304000000000000244000
  0
ACAD_PROXY_OBJECT
  5
10000016
102
{ACAD_REACTORS
330
47
102
}
330
47
100
AcDbProxyObject
 90
      499
 91
      503
 93
      121
310
905313A3130304000000000000594000
  0
ACAD_PROXY_OBJECT
  5
1000000E
102
{ACAD_REACTORS
330
47
102
}
330
47
100
AcDbProxyObject
 90
      499
 91
      503
 93
      113
310
904313A31324000000000000284000
  0
ACAD_PROXY_OBJECT
  5
1000000F
102
{ACAD_REACTORS
330
47
102
}
330
47
100
AcDbProxyObject
 90
      499
 91
      503
 93
      113
310
904313A31364000000000000304000
  0
ACAD_PROXY_OBJECT
  5
10000007
102
{ACAD_REACTORS
330
47
102
}
330
47
100
AcDbProxyObject
 90
      499
 91
      503
 93
      105
310
903313A324000000000000004000
  0
ACAD_PROXY_OBJECT
  5
10000010
102
{ACAD_REACTORS
330
47
102
}
330
47
100
AcDbProxyObject
 90
      499
 91
      503
 93
      113
310
904313A32304000000000000344000
  0
ACAD_PROXY_OBJECT
  5
10000011
102
{ACAD_REACTORS
330
47
102
}
330
47
100
AcDbProxyObject
 90
      499
 91
      503
 93
      113
310
904313A32354000000000000394000
  0
ACAD_PROXY_OBJECT
  5
10000008
102
{ACAD_REACTORS
330
47
102
}
330
47
100
AcDbProxyObject
 90
      499
 91
      503
 93
      105
310
903313A334000000000000084000
  0
ACAD_PROXY_OBJECT
  5
10000012
102
{ACAD_REACTORS
330
47
102
}
330
47
100
AcDbProxyObject
 90
      499
 91
      503
 93
      113
310
904313A33324000000000000404000
  0
ACAD_PROXY_OBJECT
  5
10000009
102
{ACAD_REACTORS
330
47
102
}
330
47
100
AcDbProxyObject
 90
      499
 91
      503
 93
      105
310
903313A344000000000000104000
  0
ACAD_PROXY_OBJECT
  5
10000013
102
{ACAD_REACTORS
330
47
102
}
330
47
100
AcDbProxyObject
 90
      499
 91
      503
 93
      113
310
904313A34304000000000000444000
  0
ACAD_PROXY_OBJECT
  5
1000000A
102
{ACAD_REACTORS
330
47
102
}
330
47
100
AcDbProxyObject
 90
      499
 91
      503
 93
      105
310
903313A354000000000000144000
  0
ACAD_PROXY_OBJECT
  5
10000014
102
{ACAD_REACTORS
330
47
102
}
330
47
100
AcDbProxyObject
 90
      499
 91
      503
 93
      113
310
904313A35304000000000000494000
  0
ACAD_PROXY_OBJECT
  5
1000000B
102
{ACAD_REACTORS
330
47
102
}
330
47
100
AcDbProxyObject
 90
      499
 91
      503
 93
      105
310
903313A364000000000000184000
  0
ACAD_PROXY_OBJECT
  5
1000000C
102
{ACAD_REACTORS
330
47
102
}
330
47
100
AcDbProxyObject
 90
      499
 91
      503
 93
      105
310
903313A384000000000000204000
  0
ACAD_PROXY_OBJECT
  5
10000015
102
{ACAD_REACTORS
330
47
102
}
330
47
100
AcDbProxyObject
 90
      499
 91
      503
 93
      113
310
904313A38304000000000000544000
  0
ACAD_PROXY_OBJECT
  5
10000020
102
{ACAD_REACTORS
330
47
102
}
330
47
100
AcDbProxyObject
 90
      499
 91
      503
 93
      113
310
90432303A310000000000000D10100
  0
ACAD_PROXY_OBJECT
  5
10000017
102
{ACAD_REACTORS
330
47
102
}
330
47
100
AcDbProxyObject
 90
      499
 91
      503
 93
      105
310
903323A310000000000000010100
  0
ACAD_PROXY_OBJECT
  5
10000021
102
{ACAD_REACTORS
330
47
102
}
330
47
100
AcDbProxyObject
 90
      499
 91
      503
 93
      113
310
90433323A310000000000001010100
  0
ACAD_PROXY_OBJECT
  5
10000018
102
{ACAD_REACTORS
330
47
102
}
330
47
100
AcDbProxyObject
 90
      499
 91
      503
 93
      105
310
903333A310000000000000210100
  0
ACAD_PROXY_OBJECT
  5
10000019
102
{ACAD_REACTORS
330
47
102
}
330
47
100
AcDbProxyObject
 90
      499
 91
      503
 93
      105
310
903343A310000000000000410100
  0
ACAD_PROXY_OBJECT
  5
10000022
102
{ACAD_REACTORS
330
47
102
}
330
47
100
AcDbProxyObject
 90
      499
 91
      503
 93
      113
310
90435303A310000000000001250100
  0
ACAD_PROXY_OBJECT
  5
1000001A
102
{ACAD_REACTORS
330
47
102
}
330
47
100
AcDbProxyObject
 90
      499
 91
      503
 93
      105
310
903353A310000000000000510100
  0
ACAD_PROXY_OBJECT
  5
1000001B
102
{ACAD_REACTORS
330
47
102
}
330
47
100
AcDbProxyObject
 90
      499
 91
      503
 93
      105
310
903363A310000000000000610100
  0
ACAD_PROXY_OBJECT
  5
1000001C
102
{ACAD_REACTORS
330
47
102
}
330
47
100
AcDbProxyObject
 90
      499
 91
      503
 93
      105
310
903383A310000000000000810100
  0
ACAD_PROXY_OBJECT
  5
2F
102
{ACAD_REACTORS
330
2A
102
}
330
2A
100
AcDbProxyObject
 90
      499
 91
      501
 93
      436
310
42CC9915DA5C99599C985B595049028333333333333E33F0000000000000F90107901411070040501600405405064090741402480A0340
1001
ACAD
1000
AcDbSavedByObjectVersion
1070
     0
  0
ACAD_PROXY_OBJECT
  5
32
102
{ACAD_REACTORS
330
2A
102
}
330
2A
100
AcDbProxyObject
 90
      499
 91
      501
 93
      388
310
4150985CDA58D07406404333333333333E33F0000000000000F90107A41107004050150841D405064090741402480A0350
1001
ACAD
1000
AcDbSavedByObjectVersion
1070
     0
  0
ACAD_PROXY_OBJECT
  5
36
102
{ACAD_REACTORS
330
2A
102
}
330
2A
100
AcDbProxyObject
 90
      499
 91
      501
 93
      428
310
42109C9A59DA1D195B90C409028333333333333E33F0000000000000F9010790141107004050150841D405064090741402480A029950
1001
ACAD
1000
AcDbSavedByObjectVersion
1070
     0
  0
ACAD_PROXY_OBJECT
  5
3A
102
{ACAD_REACTORS
330
2A
102
}
330
2A
100
AcDbProxyObject
 90
      499
 91
      501
 93
      452
310
42D0DBDB1BDC90DA185B99D95104090240C333333333333E33F0000000000000F90108901411070040501508421405064090741402480A0350
1001
ACAD
1000
AcDbSavedByObjectVersion
1070
     0
  0
ACAD_PROXY_OBJECT
  5
34
102
{ACAD_REACTORS
330
2A
102
}
330
2A
100
AcDbProxyObject
 90
      499
 91
      501
 93
      500
310
4290DBDB98D95C1D1D585B10940D028333333333333E33F0000000000000F90107902409070040501000000000018199010841D405064090740C02480A0340
1001
ACAD
1000
AcDbSavedByObjectVersion
1070
     0
  0
ACAD_PROXY_OBJECT
  5
35
102
{ACAD_REACTORS
330
2A
102
}
330
2A
100
AcDbProxyObject
 90
      499
 91
      501
 93
      412
310
40D11A5B50B409028333333333333E33F0000000000000F9010790141107004050150841D405064090741402480A02677FFFFFD0
1001
ACAD
1000
AcDbSavedByObjectVersion
1070
     0
  0
ACAD_PROXY_OBJECT
  5
3D
102
{ACAD_REACTORS
330
2A
102
}
330
2A
100
AcDbProxyObject
 90
      499
 91
      501
 93
      452
310
43115919D950DBDB1BDC93D999916409028333333333333E33F0000000000000F9010790141107004050150841D405064090741402480A0350
1001
ACAD
1000
AcDbSavedByObjectVersion
1070
     0
  0
ACAD_PROXY_OBJECT
  5
39
102
{ACAD_REACTORS
330
2A
102
}
330
2A
100
AcDbProxyObject
 90
      499
 91
      501
 93
      444
310
42D19858D95C185D1D195C9B90F409028333333333333E33F0000000000000F9010790141107004050150841D405064090741402480A0350
1001
ACAD
1000
AcDbSavedByObjectVersion
1070
     0
  0
ACAD_PROXY_OBJECT
  5
2B
102
{ACAD_REACTORS
330
2A
102
}
330
2A
100
AcDbProxyObject
 90
      499
 91
      501
 93
      380
310
41119B185D240901404333333333333E33F0000000000000F9010740A907004050150841D405064090741402480A1B50
1001
ACAD
1000
AcDbSavedByObjectVersion
1070
     0
  0
ACAD_PROXY_OBJECT
  5
2C
102
{ACAD_REACTORS
330
2A
102
}
330
2A
100
AcDbProxyObject
 90
      499
 91
      501
 93
      468
310
43519B185D15DA5D1A115919D95CD0140901404333333333333E33F0000000000000F90107409019070040501600405405064090741402480A1B50
1001
ACAD
1000
AcDbSavedByObjectVersion
1070
     0
  0
ACAD_PROXY_OBJECT
  5
2D
102
{ACAD_REACTORS
330
2A
102
}
330
2A
100
AcDbProxyObject
 90
      499
 91
      501
 93
      404
310
41D1DBDD5C985D5910240902404333333333333E33F0000000000000F9010740A9070040501641D405064090741402480A1B50
1001
ACAD
1000
AcDbSavedByObjectVersion
1070
     0
  0
ACAD_PROXY_OBJECT
  5
2E
102
{ACAD_REACTORS
330
2A
102
}
330
2A
100
AcDbProxyObject
 90
      499
 91
      501
 93
      492
310
4411DBDD5C985D5915DA5D1A115919D95CD0340902404333333333333E33F0000000000000F90107409019070040501600405405064090741402480A1B50
1001
ACAD
1000
AcDbSavedByObjectVersion
1070
     0
  0
ACAD_PROXY_OBJECT
  5
31
102
{ACAD_REACTORS
330
2A
102
}
330
2A
100
AcDbProxyObject
 90
      499
 91
      501
 93
      476
310
41921A5919195B90640502408333333333333E33F0000000000000F901079024090700405020000000000001110200405405064090740C02480A0340
1001
ACAD
1000
AcDbSavedByObjectVersion
1070
     0
  0
ACAD_PROXY_OBJECT
  5
3B
102
{ACAD_REACTORS
330
2A
102
}
330
2A
100
AcDbProxyObject
 90
      499
 91
      501
 93
      428
310
42529A5D1D195C93D999914409028333333333333E33F0000000000000F9010790141107004050150A41D405064090741402480A0350
1001
ACAD
1000
AcDbSavedByObjectVersion
1070
     0
  0
ACAD_PROXY_OBJECT
  5
38
102
{ACAD_REACTORS
330
2A
102
}
330
2A
100
AcDbProxyObject
 90
      499
 91
      501
 93
      444
310
42D31A5B995C185D1D195C9B90E409028333333333333E33F0000000000000F9010790141107004050750841D405064090741402483A0350
1001
ACAD
1000
AcDbSavedByObjectVersion
1070
     0
  0
ACAD_PROXY_OBJECT
  5
3C
102
{ACAD_REACTORS
330
2A
102
}
330
2A
100
AcDbProxyObject
 90
      499
 91
      501
 93
      444
310
42D3DD995C9A185B99D3D999915409028333333333333E33F0000000000000F9010790141107004050150941D405064090741402480A0350
1001
ACAD
1000
AcDbSavedByObjectVersion
1070
     0
  0
ACAD_PROXY_OBJECT
  5
33
102
{ACAD_REACTORS
330
2A
102
}
330
2A
100
AcDbProxyObject
 90
      499
 91
      501
 93
      428
310
425499585B1A5CDD1A58D08409038333333333333E33F0000000000000F9010740A907004050150800405405064090740C02480A1B40
1001
ACAD
1000
AcDbSavedByObjectVersion
1070
     0
  0
ACAD_PROXY_OBJECT
  5
42
102
{ACAD_REACTORS
330
2A
102
}
330
2A
100
AcDbProxyObject
 90
      499
 91
      501
 93
      420
310
4194DA1859195911B40902404333333333333E33F0000000000000F9010740A41107004050150800405405064090840C02480A0B40
1001
ACAD
1000
AcDbSavedByObjectVersion
1070
     0
  0
ACAD_PROXY_OBJECT
  5
41
102
{ACAD_REACTORS
330
2A
102
}
330
2A
100
AcDbProxyObject
 90
      499
 91
      501
 93
      516
310
4454DA18591959081DDA5D1A08195919D95CD1A40902404333333333333E33F0000000000000F901074090142907004050250800405405064090740C02480A0B40
1001
ACAD
1000
AcDbSavedByObjectVersion
1070
     0
  0
ACAD_PROXY_OBJECT
  5
3E
102
{ACAD_REACTORS
330
2A
102
}
330
2A
100
AcDbProxyObject
 90
      499
 91
      501
 93
      532
310
4394DA1859195CC81BD98811DC985E5174090240C333333333333E33F0000000000000F901079024090741D01000000000000111010841D405064090740C02480A0340
1001
ACAD
1000
AcDbSavedByObjectVersion
1070
     0
  0
ACAD_PROXY_OBJECT
  5
3F
102
{ACAD_REACTORS
330
2A
102
}
330
2A
100
AcDbProxyObject
 90
      499
 91
      501
 93
      476
310
41D4DAD95D18DA1E51840502408333333333333E33F0000000000000F901079024090741D01000000000000111010B41D405064090741802480A0340
1001
ACAD
1000
AcDbSavedByObjectVersion
1070
     0
  0
ACAD_PROXY_OBJECT
  5
37
102
{ACAD_REACTORS
330
2A
102
}
330
2A
100
AcDbProxyObject
 90
      499
 91
      501
 93
      412
310
41D51A1A58DAD95B90D409028333333333333E33F0000000000000F9010790141107004050150C41D405064090741402480A0350
1001
ACAD
1000
AcDbSavedByObjectVersion
1070
     0
  0
ACAD_PROXY_OBJECT
  5
30
102
{ACAD_REACTORS
330
2A
102
}
330
2A
100
AcDbProxyObject
 90
      499
 91
      501
 93
      420
310
4255DA5C99599C985B595059028333333333333E33F0000000000000F90107901411070040501600405405064090740C02480A0340
1001
ACAD
1000
AcDbSavedByObjectVersion
1070
     0
  0
ACAD_PROXY_OBJECT
  5
40
102
{ACAD_REACTORS
330
2A
102
}
330
2A
100
AcDbProxyObject
 90
      499
 91
      501
 93
      404
310
41560B54985E51940902404000000000000E03F0000000000000F9010740501907004050150841D405064090740C02480A1B40
1001
ACAD
1000
AcDbSavedByObjectVersion
1070
     0
  0
XRECORD
  5
100002F6
102
{ACAD_REACTORS
330
100002EC
102
}
330
100002EC
100
AcDbXrecord
340
0
  0
XRECORD
  5
100002F5
102
{ACAD_REACTORS
330
100002EC
102
}
330
100002EC
100
AcDbXrecord
 90
        0
  0
XRECORD
  5
1000030C
102
{ACAD_REACTORS
330
100002EC
102
}
330
100002EC
100
AcDbXrecord
1000
DSTYLE
1002
{
1070
   143
 40
0.0393700787401575
1070
   340
340
11
1002
}
  0
XRECORD
  5
100002F7
102
{ACAD_REACTORS
330
100002EC
102
}
330
100002EC
100
AcDbXrecord
  1
{36e1b464-7178-3777-3975-327136756136}
  0
XRECORD
  5
100002EF
102
{ACAD_REACTORS
330
100002EC
102
}
330
100002EC
100
AcDbXrecord
  1

  0
XRECORD
  5
100002F4
102
{ACAD_REACTORS
330
100002EC
102
}
330
100002EC
100
AcDbXrecord
 90
        1
  0
XRECORD
  5
100002F1
102
{ACAD_REACTORS
330
100002EC
102
}
330
100002EC
100
AcDbXrecord
340
1A
  0
XRECORD
  5
100002F3
102
{ACAD_REACTORS
330
100002EC
102
}
330
100002EC
100
AcDbXrecord
 90
    10781
  0
XRECORD
  5
100002F2
102
{ACAD_REACTORS
330
100002EC
102
}
330
100002EC
100
AcDbXrecord
340
19
  0
XRECORD
  5
100002F9
102
{ACAD_REACTORS
330
100002EC
102
}
330
100002EC
100
AcDbXrecord
 40
0.0
  0
XRECORD
  5
100002FC
102
{ACAD_REACTORS
330
100002EC
102
}
330
100002EC
100
AcDbXrecord
340
0
  0
XRECORD
  5
10000302
102
{ACAD_REACTORS
330
100002EC
102
}
330
100002EC
100
AcDbXrecord
 10
0.0
 20
0.0
 30
0.0
  0
XRECORD
  5
100002FE
102
{ACAD_REACTORS
330
100002EC
102
}
330
100002EC
100
AcDbXrecord
 10
0.0
 20
0.0
 30
0.0
  0
XRECORD
  5
10000301
102
{ACAD_REACTORS
330
100002EC
102
}
330
100002EC
100
AcDbXrecord
 10
0.0
 20
0.0
 30
0.0
  0
XRECORD
  5
100002FF
102
{ACAD_REACTORS
330
100002EC
102
}
330
100002EC
100
AcDbXrecord
 10
0.0
 20
0.0
 30
0.0
  0
XRECORD
  5
10000300
102
{ACAD_REACTORS
330
100002EC
102
}
330
100002EC
100
AcDbXrecord
 10
0.0
 20
0.0
 30
0.0
  0
XRECORD
  5
100002FD
102
{ACAD_REACTORS
330
100002EC
102
}
330
100002EC
100
AcDbXrecord
 10
0.0
 20
0.0
 30
0.0
  0
XRECORD
  5
100002FA
102
{ACAD_REACTORS
330
100002EC
102
}
330
100002EC
100
AcDbXrecord
340
0
  0
XRECORD
  5
100002FB
102
{ACAD_REACTORS
330
100002EC
102
}
330
100002EC
100
AcDbXrecord
 70
     0
  0
XRECORD
  5
100002F0
102
{ACAD_REACTORS
330
100002EC
102
}
330
100002EC
100
AcDbXrecord
  1

  0
XRECORD
  5
100002ED
102
{ACAD_REACTORS
330
100002EC
102
}
330
100002EC
100
AcDbXrecord
 90
        1
  0
XRECORD
  5
100002EE
102
{ACAD_REACTORS
330
100002EC
102
}
330
100002EC
100
AcDbXrecord
 90
       70
  0
XRECORD
  5
10000305
102
{ACAD_REACTORS
330
100002EC
102
}
330
100002EC
100
AcDbXrecord
340
0
  0
XRECORD
  5
1000030B
102
{ACAD_REACTORS
330
100002EC
102
}
330
100002EC
100
AcDbXrecord
 10
0.0
 20
0.0
 30
0.0
  0
XRECORD
  5
10000307
102
{ACAD_REACTORS
330
100002EC
102
}
330
100002EC
100
AcDbXrecord
 10
0.0
 20
0.0
 30
0.0
  0
XRECORD
  5
1000030A
102
{ACAD_REACTORS
330
100002EC
102
}
330
100002EC
100
AcDbXrecord
 10
0.0
 20
0.0
 30
0.0
  0
XRECORD
  5
10000308
102
{ACAD_REACTORS
330
100002EC
102
}
330
100002EC
100
AcDbXrecord
 10
0.0
 20
0.0
 30
0.0
  0
XRECORD
  5
10000309
102
{ACAD_REACTORS
330
100002EC
102
}
330
100002EC
100
AcDbXrecord
 10
0.0
 20
0.0
 30
0.0
  0
XRECORD
  5
10000306
102
{ACAD_REACTORS
330
100002EC
102
}
330
100002EC
100
AcDbXrecord
 10
0.0
 20
0.0
 30
0.0
  0
XRECORD
  5
10000303
102
{ACAD_REACTORS
330
100002EC
102
}
330
100002EC
100
AcDbXrecord
340
0
  0
XRECORD
  5
10000304
102
{ACAD_REACTORS
330
100002EC
102
}
330
100002EC
100
AcDbXrecord
 70
     0
  0
XRECORD
  5
100002F8
102
{ACAD_REACTORS
330
100002EC
102
}
330
100002EC
100
AcDbXrecord
  1
{FAEB1C32-E019-11D5-929B-00C0DF256EC4}
  0
DICTIONARYVAR
  5
10000317
102
{ACAD_REACTORS
330
1000030D
102
}
330
1000030D
100
DictionaryVariables
280
     0
  1
1:1
  0
DICTIONARYVAR
  5
1000030F
102
{ACAD_REACTORS
330
1000030D
102
}
330
1000030D
100
DictionaryVariables
280
     0
  1
Standard
  0
DICTIONARYVAR
  5
1000030E
102
{ACAD_REACTORS
330
1000030D
102
}
330
1000030D
100
DictionaryVariables
280
     0
  1
Standard
  0
DICTIONARYVAR
  5
10000312
102
{ACAD_REACTORS
330
1000030D
102
}
330
1000030D
100
DictionaryVariables
280
     0
  1
2
  0
DICTIONARYVAR
  5
10000313
102
{ACAD_REACTORS
330
1000030D
102
}
330
1000030D
100
DictionaryVariables
280
     0
  1
1
  0
DICTIONARYVAR
  5
10000318
102
{ACAD_REACTORS
330
1000030D
102
}
330
1000030D
100
DictionaryVariables
280
     0
  1
1
  0
XRECORD
  5
10000003
102
{ACAD_REACTORS
330
10000001
102
}
330
10000001
100
AcDbXrecord
 70
     4
  0
XRECORD
  5
10000002
102
{ACAD_REACTORS
330
10000001
102
}
330
10000001
100
AcDbXrecord
1040
88.0
  0
ACAD_PROXY_OBJECT
  5
10000005
102
{ACAD_REACTORS
330
10000001
102
}
330
10000001
100
AcDbProxyObject
 90
      499
 91
      509
 93
       34
310
40C8804000
  0
DICTIONARY
  5
1000031B
330
45
100
AcDbDictionary
280
     1
  3
ACAD_XREC_ROUNDTRIP
360
1000031C
  0
DICTIONARY
  5
10000319
330
44
100
AcDbDictionary
280
     1
  3
ACAD_XREC_ROUNDTRIP
360
1000031A
  0
DICTIONARY
  5
1000031D
330
46
100
AcDbDictionary
280
     1
  3
ACAD_XREC_ROUNDTRIP
360
1000031E
  0
XRECORD
  5
1000031C
102
{ACAD_REACTORS
330
1000031B
102
}
330
1000031B
100
AcDbXrecord
102
MATERIAL
148
0.0
149
0.0
149
0.0
 93
        0
 94
      127
282
     0
 72
     1
 77
     1
171
     1
175
     1
179
     1
273
     0
  0
XRECORD
  5
1000031A
102
{ACAD_REACTORS
330
10000319
102
}
330
10000319
100
AcDbXrecord
102
MATERIAL
148
0.0
149
0.0
149
0.0
 93
        0
 94
      127
282
     0
 72
     1
 77
     1
171
     1
175
     1
179
     1
273
     0
  0
XRECORD
  5
1000031E
102
{ACAD_REACTORS
330
1000031D
102
}
330
1000031D
100
AcDbXrecord
102
MATERIAL
148
0.0
149
0.0
149
0.0
 93
        0
 94
      127
282
     0
 72
     1
 77
     1
171
     1
175
     1
179
     1
273
     0
  0
ENDSEC
  0
EOF
